{"glyphs":{"0":{"ha":767,"x_min":78,"x_max":715,"o":"m 463 943 q 239 845 325 943 q 115 605 153 747 q 78 318 78 463 q 142 69 78 156 q 331 -17 207 -17 q 554 81 468 -17 q 678 322 640 179 q 715 608 715 465 q 651 857 715 771 q 463 943 586 943 m 458 842 q 555 792 522 842 q 588 632 588 742 q 561 380 588 506 q 478 169 535 254 q 336 85 422 85 q 240 135 272 85 q 207 294 207 185 q 233 547 207 421 q 316 757 260 672 q 458 842 372 842 z "},"1":{"ha":593,"x_min":100,"x_max":522,"o":"m 522 929 l 392 0 l 264 0 l 375 781 l 143 649 l 100 751 l 410 929 l 522 929 z "},"2":{"ha":679,"x_min":1,"x_max":642,"o":"m 388 943 q 573 878 504 943 q 642 710 642 814 q 603 560 642 633 q 462 381 564 486 q 163 104 360 275 l 575 107 l 544 0 l 1 0 l 15 104 q 340 413 240 311 q 474 577 439 515 q 510 706 510 639 q 474 803 510 769 q 378 838 439 838 q 272 813 319 838 q 172 733 225 788 l 92 807 q 231 910 158 876 q 388 943 304 943 z "},"3":{"ha":685,"x_min":-15,"x_max":631,"o":"m 383 943 q 565 881 500 943 q 631 724 631 818 q 577 578 631 640 q 419 492 524 517 q 547 435 497 485 q 597 300 597 385 q 558 152 597 225 q 439 31 518 79 q 247 -17 360 -17 q 95 16 163 -17 q -15 111 28 49 l 68 181 q 151 109 106 131 q 253 88 196 88 q 408 151 349 88 q 468 315 468 215 q 427 409 468 382 q 307 436 386 436 l 235 436 l 264 535 l 308 535 q 451 587 400 535 q 503 718 503 639 q 469 808 503 776 q 374 840 435 840 q 270 819 318 840 q 169 754 222 799 l 107 835 q 383 943 238 943 z "},"4":{"ha":731,"x_min":35,"x_max":685,"o":"m 685 331 l 671 229 l 551 229 l 519 0 l 396 0 l 428 229 l 35 229 l 47 321 l 406 943 l 513 899 l 188 331 l 443 331 l 490 581 l 601 581 l 567 331 l 685 331 z "},"5":{"ha":688,"x_min":0,"x_max":674,"o":"m 643 829 l 283 829 l 244 557 q 392 592 314 592 q 559 526 499 592 q 619 340 619 460 q 582 177 619 260 q 463 39 544 94 q 261 -17 382 -17 q 111 15 174 -17 q 0 104 49 46 l 83 175 q 162 108 118 129 q 264 88 206 88 q 394 128 343 88 q 467 227 444 168 q 490 343 490 286 q 353 493 490 493 q 283 485 314 493 q 211 461 251 478 l 111 461 l 176 929 l 674 929 l 643 829 z "},"6":{"ha":731,"x_min":75,"x_max":682,"o":"m 451 611 q 610 547 547 611 q 672 364 672 482 q 635 191 672 279 q 523 43 599 103 q 336 -17 447 -17 q 138 68 201 -17 q 75 307 75 153 q 124 615 75 469 q 269 852 174 761 q 497 943 365 943 q 682 885 603 943 l 625 801 q 493 842 568 842 q 319 747 393 842 q 217 492 246 651 q 451 611 321 611 m 340 85 q 460 131 414 85 q 526 241 507 176 q 546 365 546 306 q 426 510 546 510 q 306 474 364 510 q 203 376 249 438 q 200 292 200 313 q 233 133 200 182 q 340 85 267 85 z "},"7":{"ha":608,"x_min":60,"x_max":647,"o":"m 647 929 l 635 833 l 175 -14 l 60 25 l 503 825 l 97 825 l 113 929 l 647 929 z "},"8":{"ha":757,"x_min":43,"x_max":708,"o":"m 521 496 q 681 281 681 422 q 634 128 681 196 q 507 22 588 60 q 328 -17 426 -17 q 120 50 197 -17 q 43 225 43 117 q 92 376 43 310 q 260 492 140 443 q 146 685 146 557 q 185 818 146 760 q 294 910 225 876 q 447 943 363 943 q 576 919 517 943 q 672 846 636 894 q 708 729 708 797 q 664 594 708 649 q 521 496 619 540 m 443 847 q 310 799 353 847 q 268 686 268 751 q 303 594 268 626 q 415 536 339 563 l 435 531 q 553 624 522 576 q 585 728 585 671 q 549 816 585 785 q 443 847 514 847 m 333 85 q 491 141 431 85 q 551 286 551 197 q 513 374 551 340 q 376 444 474 408 l 346 454 q 174 226 174 379 q 216 122 174 160 q 333 85 258 85 z "},"9":{"ha":719,"x_min":90,"x_max":689,"o":"m 422 943 q 621 864 553 943 q 689 647 689 785 q 644 366 689 494 q 472 131 600 238 q 111 -32 344 25 l 90 67 q 396 213 282 119 q 543 457 510 306 q 447 371 504 404 q 321 338 390 338 q 206 369 257 338 q 125 457 154 400 q 96 589 96 514 q 132 758 96 676 q 242 891 168 839 q 422 943 315 943 m 346 438 q 557 567 465 438 q 563 650 563 610 q 527 797 563 751 q 419 842 492 842 q 267 762 314 842 q 221 583 221 682 q 255 475 221 513 q 346 438 289 438 z "},"\r":{"ha":360,"x_min":0,"x_max":0,"o":""}," ":{"ha":360,"x_min":0,"x_max":0,"o":""},"A":{"ha":788,"x_min":-44,"x_max":728,"o":"m 593 0 l 556 240 l 196 240 l 90 0 l -44 0 l 394 957 l 560 957 l 728 0 l 593 0 m 242 347 l 539 347 l 461 847 l 242 347 z "},"Á":{"ha":788,"x_min":-44,"x_max":728,"o":"m 593 0 l 556 240 l 196 240 l 90 0 l -44 0 l 394 957 l 560 957 l 728 0 l 593 0 m 242 347 l 539 347 l 461 847 l 242 347 m 626 1261 l 668 1154 l 363 1049 l 336 1117 l 626 1261 z "},"Ă":{"ha":788,"x_min":-44,"x_max":728,"o":"m 593 0 l 556 240 l 196 240 l 90 0 l -44 0 l 394 957 l 560 957 l 728 0 l 593 0 m 242 347 l 539 347 l 461 847 l 242 347 m 492 1053 q 355 1101 407 1053 q 306 1228 303 1150 l 388 1239 q 494 1150 407 1150 q 580 1176 543 1150 q 638 1244 617 1201 l 721 1219 q 639 1098 703 1143 q 492 1053 575 1053 z "},"Ắ":{"ha":788,"x_min":-44,"x_max":728,"o":"m 710 1389 l 501 1214 l 451 1263 l 639 1464 l 710 1389 m 490 1028 q 353 1076 406 1028 q 304 1203 301 1125 l 386 1214 q 493 1125 406 1125 q 578 1151 542 1125 q 636 1219 615 1176 l 719 1194 q 638 1073 701 1118 q 490 1028 574 1028 m 593 0 l 556 240 l 196 240 l 90 0 l -44 0 l 394 957 l 560 957 l 728 0 l 593 0 m 242 347 l 539 347 l 461 847 l 242 347 z "},"Ặ":{"ha":788,"x_min":-44,"x_max":728,"o":"m 593 0 l 556 240 l 196 240 l 90 0 l -44 0 l 394 957 l 560 957 l 728 0 l 593 0 m 242 347 l 539 347 l 461 847 l 242 347 m 492 1053 q 355 1101 407 1053 q 306 1228 303 1150 l 388 1239 q 494 1150 407 1150 q 580 1176 543 1150 q 638 1244 617 1201 l 721 1219 q 639 1098 703 1143 q 492 1053 575 1053 m 324 -103 q 383 -126 360 -103 q 406 -182 406 -149 q 378 -249 406 -222 q 310 -276 350 -276 q 250 -254 272 -276 q 228 -197 228 -232 q 256 -130 228 -157 q 324 -103 283 -103 z "},"Ằ":{"ha":788,"x_min":-44,"x_max":728,"o":"m 551 1257 l 499 1214 l 335 1390 l 417 1461 l 551 1257 m 486 1028 q 349 1076 401 1028 q 300 1203 297 1125 l 382 1214 q 489 1125 401 1125 q 574 1151 538 1125 q 632 1219 611 1176 l 715 1194 q 633 1073 697 1118 q 486 1028 569 1028 m 593 0 l 556 240 l 196 240 l 90 0 l -44 0 l 394 957 l 560 957 l 728 0 l 593 0 m 242 347 l 539 347 l 461 847 l 242 347 z "},"Ẳ":{"ha":788,"x_min":-44,"x_max":728,"o":"m 593 0 l 556 240 l 196 240 l 90 0 l -44 0 l 394 957 l 560 957 l 728 0 l 593 0 m 242 347 l 539 347 l 461 847 l 242 347 m 490 1028 q 353 1076 406 1028 q 304 1203 301 1125 l 386 1214 q 493 1125 406 1125 q 578 1151 542 1125 q 636 1219 615 1176 l 719 1194 q 638 1073 701 1118 q 490 1028 574 1028 m 468 1307 q 551 1328 522 1314 q 579 1378 579 1343 q 529 1417 579 1417 q 446 1394 486 1417 l 421 1471 q 551 1503 481 1503 q 651 1469 615 1503 q 688 1382 688 1436 q 654 1297 688 1326 q 560 1257 621 1267 l 550 1190 l 456 1190 l 468 1307 z "},"Ẵ":{"ha":788,"x_min":-44,"x_max":765,"o":"m 454 1326 q 409 1310 429 1326 q 367 1260 389 1293 l 294 1304 q 457 1424 368 1424 q 507 1413 488 1424 q 553 1383 526 1403 q 582 1363 571 1369 q 606 1357 593 1357 q 648 1372 628 1357 q 690 1421 668 1388 l 765 1376 q 690 1289 731 1318 q 608 1260 650 1260 q 553 1271 576 1260 q 506 1301 531 1282 q 478 1320 489 1314 q 454 1326 467 1326 m 499 1125 q 584 1151 547 1125 q 642 1219 621 1176 l 725 1194 q 643 1073 707 1118 q 496 1028 579 1028 q 359 1076 411 1028 q 310 1203 307 1125 l 392 1214 q 499 1125 411 1125 m 394 957 l 560 957 l 728 0 l 593 0 l 556 240 l 196 240 l 90 0 l -44 0 l 394 957 m 242 347 l 539 347 l 461 847 l 242 347 z "},"Ǎ":{"ha":788,"x_min":-44,"x_max":738,"o":"m 593 0 l 556 240 l 196 240 l 90 0 l -44 0 l 394 957 l 560 957 l 728 0 l 593 0 m 242 347 l 539 347 l 461 847 l 242 347 m 689 1263 l 738 1200 l 532 1047 l 449 1047 l 282 1200 l 342 1263 l 499 1150 l 689 1263 z "},"Â":{"ha":788,"x_min":-44,"x_max":728,"o":"m 593 0 l 556 240 l 196 240 l 90 0 l -44 0 l 394 957 l 560 957 l 728 0 l 593 0 m 242 347 l 539 347 l 461 847 l 242 347 m 318 1054 l 267 1117 l 474 1269 l 557 1269 l 722 1117 l 665 1054 l 506 1167 l 318 1054 z "},"Ấ":{"ha":788,"x_min":-44,"x_max":886,"o":"m 886 1340 l 678 1165 l 628 1214 l 815 1415 l 886 1340 m 497 1107 l 310 994 l 258 1057 l 465 1210 l 549 1210 l 714 1057 l 657 994 l 497 1107 m 394 957 l 560 957 l 728 0 l 593 0 l 556 240 l 196 240 l 90 0 l -44 0 l 394 957 m 242 347 l 539 347 l 461 847 l 242 347 z "},"Ậ":{"ha":788,"x_min":-44,"x_max":728,"o":"m 593 0 l 556 240 l 196 240 l 90 0 l -44 0 l 394 957 l 560 957 l 728 0 l 593 0 m 242 347 l 539 347 l 461 847 l 242 347 m 318 1054 l 267 1117 l 474 1269 l 557 1269 l 722 1117 l 665 1054 l 506 1167 l 318 1054 m 324 -103 q 383 -126 360 -103 q 406 -182 406 -149 q 378 -249 406 -222 q 310 -276 350 -276 q 250 -254 272 -276 q 228 -197 228 -232 q 256 -130 228 -157 q 324 -103 283 -103 z "},"Ầ":{"ha":788,"x_min":-44,"x_max":728,"o":"m 372 1208 l 319 1165 l 156 1342 l 238 1413 l 372 1208 m 306 994 l 254 1057 l 461 1210 l 544 1210 l 710 1057 l 653 994 l 493 1107 l 306 994 m 593 0 l 556 240 l 196 240 l 90 0 l -44 0 l 394 957 l 560 957 l 728 0 l 593 0 m 242 347 l 539 347 l 461 847 l 242 347 z "},"Ẩ":{"ha":788,"x_min":-44,"x_max":885,"o":"m 593 0 l 556 240 l 196 240 l 90 0 l -44 0 l 394 957 l 560 957 l 728 0 l 593 0 m 242 347 l 539 347 l 461 847 l 242 347 m 307 994 l 256 1057 l 463 1210 l 546 1210 l 711 1057 l 654 994 l 494 1107 l 307 994 m 665 1251 q 748 1273 719 1258 q 776 1322 776 1288 q 726 1361 776 1361 q 643 1339 683 1361 l 618 1415 q 749 1447 678 1447 q 849 1414 813 1447 q 885 1326 885 1381 q 851 1241 885 1271 q 757 1201 818 1211 l 747 1135 l 653 1135 l 665 1251 z "},"Ẫ":{"ha":788,"x_min":-44,"x_max":764,"o":"m 453 1317 q 408 1300 428 1317 q 365 1250 388 1283 l 293 1294 q 456 1414 367 1414 q 506 1403 486 1414 q 551 1374 525 1393 q 581 1353 569 1360 q 604 1347 592 1347 q 647 1363 626 1347 q 689 1411 667 1378 l 764 1367 q 689 1279 729 1308 q 607 1250 649 1250 q 552 1261 575 1250 q 504 1292 529 1272 q 476 1310 488 1304 q 453 1317 465 1317 m 494 1107 l 307 994 l 256 1057 l 463 1210 l 546 1210 l 711 1057 l 654 994 l 494 1107 m 394 957 l 560 957 l 728 0 l 593 0 l 556 240 l 196 240 l 90 0 l -44 0 l 394 957 m 242 347 l 539 347 l 461 847 l 242 347 z "},"Ȁ":{"ha":788,"x_min":-44,"x_max":728,"o":"m 593 0 l 556 240 l 196 240 l 90 0 l -44 0 l 394 957 l 560 957 l 728 0 l 593 0 m 242 347 l 539 347 l 461 847 l 242 347 m 361 1331 l 446 1090 l 364 1056 l 247 1274 l 361 1331 m 569 1331 l 642 1097 l 560 1063 l 456 1274 l 569 1331 z "},"Ä":{"ha":788,"x_min":-44,"x_max":735,"o":"m 593 0 l 556 240 l 196 240 l 90 0 l -44 0 l 394 957 l 560 957 l 728 0 l 593 0 m 242 347 l 539 347 l 461 847 l 242 347 m 358 1083 q 306 1103 326 1083 q 285 1154 285 1124 q 310 1216 285 1192 q 372 1240 335 1240 q 425 1220 404 1240 q 446 1169 446 1200 q 421 1108 446 1132 q 358 1083 396 1083 m 647 1083 q 594 1103 615 1083 q 574 1154 574 1124 q 599 1216 574 1192 q 661 1240 624 1240 q 714 1220 693 1240 q 735 1169 735 1200 q 710 1108 735 1132 q 647 1083 685 1083 z "},"Ǟ":{"ha":788,"x_min":-44,"x_max":728,"o":"m 593 0 l 556 240 l 196 240 l 90 0 l -44 0 l 394 957 l 560 957 l 728 0 l 593 0 m 242 347 l 539 347 l 461 847 l 242 347 m 339 1036 q 286 1056 307 1036 q 265 1107 265 1076 q 290 1169 265 1144 q 353 1193 315 1193 q 406 1173 385 1193 q 426 1122 426 1153 q 401 1060 426 1085 q 339 1036 376 1036 m 628 1036 q 575 1056 596 1036 q 554 1107 554 1076 q 579 1169 554 1144 q 642 1193 604 1193 q 694 1173 674 1193 q 715 1122 715 1153 q 690 1060 715 1085 q 628 1036 665 1036 m 694 1254 l 318 1254 l 331 1350 l 707 1350 l 694 1254 z "},"Ȧ":{"ha":788,"x_min":-44,"x_max":728,"o":"m 593 0 l 556 240 l 196 240 l 90 0 l -44 0 l 394 957 l 560 957 l 728 0 l 593 0 m 242 347 l 539 347 l 461 847 l 242 347 m 506 1085 q 446 1108 468 1085 q 424 1164 424 1131 q 451 1231 424 1204 q 519 1258 479 1258 q 579 1236 557 1258 q 601 1179 601 1214 q 574 1112 601 1139 q 506 1085 546 1085 z "},"Ạ":{"ha":788,"x_min":-44,"x_max":728,"o":"m 593 0 l 556 240 l 196 240 l 90 0 l -44 0 l 394 957 l 560 957 l 728 0 l 593 0 m 242 347 l 539 347 l 461 847 l 242 347 m 324 -103 q 383 -126 360 -103 q 406 -182 406 -149 q 378 -249 406 -222 q 310 -276 350 -276 q 250 -254 272 -276 q 228 -197 228 -232 q 256 -130 228 -157 q 324 -103 283 -103 z "},"Ǡ":{"ha":788,"x_min":-44,"x_max":728,"o":"m 593 0 l 556 240 l 196 240 l 90 0 l -44 0 l 394 957 l 560 957 l 728 0 l 593 0 m 242 347 l 539 347 l 461 847 l 242 347 m 488 1029 q 428 1052 450 1029 q 406 1108 406 1075 q 433 1176 406 1149 q 501 1203 461 1203 q 561 1181 539 1203 q 583 1124 583 1158 q 556 1056 583 1083 q 488 1029 528 1029 m 697 1256 l 321 1256 l 333 1351 l 710 1351 l 697 1256 z "},"À":{"ha":788,"x_min":-44,"x_max":728,"o":"m 593 0 l 556 240 l 196 240 l 90 0 l -44 0 l 394 957 l 560 957 l 728 0 l 593 0 m 242 347 l 539 347 l 461 847 l 242 347 m 408 1260 l 667 1115 l 626 1047 l 350 1153 l 408 1260 z "},"Ả":{"ha":788,"x_min":-44,"x_max":728,"o":"m 593 0 l 556 240 l 196 240 l 90 0 l -44 0 l 394 957 l 560 957 l 728 0 l 593 0 m 242 347 l 539 347 l 461 847 l 242 347 m 458 1176 q 541 1198 513 1183 q 569 1247 569 1213 q 519 1286 569 1286 q 436 1264 476 1286 l 411 1340 q 542 1372 471 1372 q 642 1339 606 1372 q 678 1251 678 1306 q 644 1166 678 1196 q 550 1126 611 1136 l 540 1060 l 446 1060 l 458 1176 z "},"Ȃ":{"ha":788,"x_min":-44,"x_max":728,"o":"m 593 0 l 556 240 l 196 240 l 90 0 l -44 0 l 394 957 l 560 957 l 728 0 l 593 0 m 242 347 l 539 347 l 461 847 l 242 347 m 286 1100 q 370 1233 307 1186 q 518 1281 433 1281 q 656 1229 604 1281 q 706 1092 708 1178 l 621 1081 q 513 1183 607 1183 q 369 1075 415 1183 l 286 1100 z "},"Ɑ":{"ha":939,"x_min":83,"x_max":881,"o":"m 769 167 q 767 135 767 142 q 777 97 767 111 q 814 74 788 83 l 778 -17 q 643 97 657 -1 q 399 -17 539 -17 q 235 27 307 -17 q 124 156 164 71 q 83 361 83 240 q 142 662 83 521 q 304 888 201 803 q 531 974 407 974 q 740 875 658 974 l 765 957 l 881 957 l 769 167 m 419 92 q 538 120 485 92 q 646 207 592 149 l 724 767 q 642 840 686 815 q 533 865 597 865 q 367 794 439 865 q 258 606 296 722 q 219 358 219 490 q 274 155 219 218 q 419 92 328 92 z "},"Ā":{"ha":788,"x_min":-44,"x_max":728,"o":"m 593 0 l 556 240 l 196 240 l 90 0 l -44 0 l 394 957 l 560 957 l 728 0 l 593 0 m 242 347 l 539 347 l 461 847 l 242 347 m 689 1101 l 313 1101 l 325 1197 l 701 1197 l 689 1101 z "},"Ą":{"ha":788,"x_min":-44,"x_max":728,"o":"m 676 0 q 519 -91 558 -49 q 479 -175 479 -133 q 497 -211 479 -199 q 544 -224 514 -224 q 632 -212 579 -224 l 611 -312 q 526 -321 569 -321 q 410 -284 453 -321 q 368 -190 368 -247 q 417 -71 368 -126 q 589 28 465 -15 l 556 240 l 196 240 l 90 0 l -44 0 l 394 957 l 560 957 l 728 0 l 676 0 m 242 347 l 539 347 l 461 847 l 242 347 z "},"Å":{"ha":788,"x_min":-44,"x_max":728,"o":"m 593 0 l 556 240 l 196 240 l 90 0 l -44 0 l 394 957 l 560 957 l 728 0 l 593 0 m 242 347 l 539 347 l 461 847 l 242 347 m 528 1336 q 631 1298 592 1336 q 671 1203 671 1260 q 621 1089 671 1136 q 499 1042 571 1042 q 395 1080 435 1042 q 356 1175 356 1118 q 406 1289 356 1242 q 528 1336 456 1336 m 525 1267 q 463 1240 485 1267 q 440 1176 440 1214 q 456 1128 440 1146 q 501 1111 472 1111 q 565 1139 542 1111 q 588 1203 588 1167 q 571 1250 588 1233 q 525 1267 554 1267 z "},"Ǻ":{"ha":788,"x_min":-44,"x_max":728,"o":"m 593 0 l 556 240 l 196 240 l 90 0 l -44 0 l 394 957 l 560 957 l 728 0 l 593 0 m 242 347 l 539 347 l 461 847 l 242 347 m 514 1308 q 617 1270 578 1308 q 657 1175 657 1232 q 607 1061 657 1108 q 485 1014 557 1014 q 381 1052 421 1014 q 342 1147 342 1090 q 392 1261 342 1214 q 514 1308 442 1308 m 511 1239 q 449 1213 471 1239 q 426 1149 426 1186 q 442 1101 426 1118 q 488 1083 458 1083 q 551 1111 528 1083 q 574 1175 574 1139 q 557 1222 574 1206 q 511 1239 540 1239 m 639 1524 l 681 1417 l 375 1311 l 349 1379 l 639 1524 z "},"Ⱥ":{"ha":788,"x_min":-44,"x_max":728,"o":"m 600 0 l 561 240 l 375 240 l 238 -97 l 175 -82 l 306 240 l 192 240 l 85 0 l -44 0 l 394 957 l 560 957 l 571 892 l 632 1042 l 694 1026 l 592 774 l 728 0 l 600 0 m 236 343 l 347 343 l 489 690 l 463 853 l 236 343 m 417 343 l 544 343 l 508 568 l 417 343 z "},"Ã":{"ha":788,"x_min":-44,"x_max":743,"o":"m 593 0 l 556 240 l 196 240 l 90 0 l -44 0 l 394 957 l 560 957 l 728 0 l 593 0 m 242 347 l 539 347 l 461 847 l 242 347 m 586 1086 q 531 1097 554 1086 q 483 1128 508 1108 q 456 1147 467 1140 q 432 1153 444 1153 q 387 1136 407 1153 q 344 1086 367 1119 l 272 1131 q 435 1250 346 1250 q 485 1240 465 1250 q 531 1210 504 1229 q 560 1190 549 1196 q 583 1183 571 1183 q 626 1199 606 1183 q 668 1247 646 1214 l 743 1203 q 668 1115 708 1144 q 586 1086 628 1086 z "},"Æ":{"ha":1122,"x_min":-68,"x_max":1076,"o":"m 1046 851 l 619 851 l 653 538 l 1004 538 l 990 432 l 665 432 l 700 106 l 1013 106 l 997 0 l 585 0 l 563 240 l 193 240 l 71 0 l -68 0 l 440 957 l 1076 957 l 1046 851 m 249 347 l 553 347 l 506 851 l 249 347 z "},"Ǽ":{"ha":1122,"x_min":-68,"x_max":1076,"o":"m 1046 851 l 619 851 l 653 538 l 1004 538 l 990 432 l 665 432 l 700 106 l 1013 106 l 997 0 l 585 0 l 563 240 l 193 240 l 71 0 l -68 0 l 440 957 l 1076 957 l 1046 851 m 249 347 l 553 347 l 506 851 l 249 347 m 885 1261 l 926 1154 l 621 1049 l 594 1117 l 885 1261 z "},"Ǣ":{"ha":1122,"x_min":-68,"x_max":1076,"o":"m 1046 851 l 619 851 l 653 538 l 1004 538 l 990 432 l 665 432 l 700 106 l 1013 106 l 997 0 l 585 0 l 563 240 l 193 240 l 71 0 l -68 0 l 440 957 l 1076 957 l 1046 851 m 249 347 l 553 347 l 506 851 l 249 347 m 947 1101 l 571 1101 l 583 1197 l 960 1197 l 947 1101 z "},"B":{"ha":836,"x_min":86,"x_max":785,"o":"m 571 506 q 710 444 657 490 q 764 306 764 399 q 667 83 764 167 q 350 0 571 0 l 86 0 l 221 957 l 485 957 q 703 903 621 957 q 785 743 785 850 q 724 586 785 647 q 571 506 663 525 m 336 853 l 294 551 l 435 551 q 590 599 528 551 q 651 739 651 646 q 608 828 651 803 q 489 853 564 853 l 336 853 m 356 106 q 567 159 507 106 q 628 308 628 213 q 439 450 628 450 l 281 450 l 232 106 l 356 106 z "},"Ḃ":{"ha":836,"x_min":86,"x_max":785,"o":"m 571 506 q 710 444 657 490 q 764 306 764 399 q 667 83 764 167 q 350 0 571 0 l 86 0 l 221 957 l 485 957 q 703 903 621 957 q 785 743 785 850 q 724 586 785 647 q 571 506 663 525 m 336 853 l 294 551 l 435 551 q 590 599 528 551 q 651 739 651 646 q 608 828 651 803 q 489 853 564 853 l 336 853 m 356 106 q 567 159 507 106 q 628 308 628 213 q 439 450 628 450 l 281 450 l 232 106 l 356 106 m 497 1085 q 438 1108 460 1085 q 415 1164 415 1131 q 443 1231 415 1204 q 511 1258 471 1258 q 571 1236 549 1258 q 593 1179 593 1214 q 565 1112 593 1139 q 497 1085 538 1085 z "},"Ḅ":{"ha":836,"x_min":86,"x_max":785,"o":"m 571 506 q 710 444 657 490 q 764 306 764 399 q 667 83 764 167 q 350 0 571 0 l 86 0 l 221 957 l 485 957 q 703 903 621 957 q 785 743 785 850 q 724 586 785 647 q 571 506 663 525 m 336 853 l 294 551 l 435 551 q 590 599 528 551 q 651 739 651 646 q 608 828 651 803 q 489 853 564 853 l 336 853 m 356 106 q 567 159 507 106 q 628 308 628 213 q 439 450 628 450 l 281 450 l 232 106 l 356 106 m 367 -103 q 426 -126 403 -103 q 449 -182 449 -149 q 421 -249 449 -222 q 353 -276 393 -276 q 293 -254 315 -276 q 271 -197 271 -232 q 299 -130 271 -157 q 367 -103 326 -103 z "},"Ꞵ":{"ha":836,"x_min":47,"x_max":785,"o":"m 575 504 q 765 310 765 471 q 717 144 765 214 q 585 37 669 74 q 394 0 500 0 q 221 29 306 0 l 178 -281 l 47 -281 l 221 957 l 485 957 q 703 903 621 957 q 785 742 785 849 q 725 586 785 647 q 575 504 665 525 m 394 106 q 566 160 503 106 q 629 308 629 214 q 439 450 629 450 l 368 450 l 396 551 l 435 551 q 590 597 529 551 q 651 738 651 643 q 608 828 651 803 q 489 853 564 853 l 336 853 l 235 126 q 394 106 318 106 z "},"Ɓ":{"ha":950,"x_min":72,"x_max":899,"o":"m 685 506 q 824 444 771 490 q 878 306 878 399 q 781 83 878 167 q 464 0 685 0 l 200 0 l 319 853 l 282 853 q 193 754 193 853 q 207 683 193 725 l 108 640 q 72 764 72 704 q 132 904 72 851 q 299 957 192 957 l 599 957 q 817 903 735 957 q 899 743 899 850 q 838 586 899 647 q 685 506 776 525 m 450 853 l 408 551 l 549 551 q 703 599 642 551 q 765 739 765 646 q 722 828 765 803 q 603 853 678 853 l 450 853 m 469 106 q 681 159 621 106 q 742 308 742 213 q 553 450 742 450 l 394 450 l 346 106 l 469 106 z "},"Ƀ":{"ha":853,"x_min":11,"x_max":801,"o":"m 588 506 q 727 444 674 490 q 781 306 781 399 q 684 83 781 167 q 367 0 588 0 l 103 0 l 136 233 l 11 233 l 26 331 l 150 331 l 238 957 l 501 957 q 719 903 638 957 q 801 743 801 850 q 740 586 801 647 q 588 506 679 525 m 353 853 l 311 551 l 451 551 q 606 599 544 551 q 668 739 668 646 q 624 828 668 803 q 506 853 581 853 l 353 853 m 372 106 q 584 159 524 106 q 644 308 644 213 q 456 450 644 450 l 297 450 l 281 331 l 499 331 l 483 233 l 267 233 l 249 106 l 372 106 z "},"Ƃ":{"ha":796,"x_min":86,"x_max":750,"o":"m 422 597 q 664 531 578 597 q 750 338 750 465 q 711 173 750 249 q 581 49 672 97 q 339 0 489 0 l 86 0 l 221 957 l 738 957 l 706 849 l 336 849 l 300 597 l 422 597 m 360 106 q 555 172 499 106 q 611 339 611 238 q 562 458 611 422 q 415 494 513 494 l 286 494 l 232 106 l 360 106 z "},"C":{"ha":771,"x_min":85,"x_max":804,"o":"m 547 974 q 690 949 628 974 q 804 875 753 924 l 729 801 q 644 850 686 835 q 553 865 601 865 q 362 788 436 865 q 255 596 288 711 q 222 361 222 481 q 279 159 222 224 q 433 94 336 94 q 544 116 496 94 q 649 176 593 138 l 707 88 q 425 -17 583 -17 q 176 85 268 -17 q 85 372 85 186 q 134 650 85 511 q 288 881 183 789 q 547 974 392 974 z "},"Ć":{"ha":771,"x_min":85,"x_max":804,"o":"m 547 974 q 690 949 628 974 q 804 875 753 924 l 729 801 q 644 850 686 835 q 553 865 601 865 q 362 788 436 865 q 255 596 288 711 q 222 361 222 481 q 279 159 222 224 q 433 94 336 94 q 544 116 496 94 q 649 176 593 138 l 707 88 q 425 -17 583 -17 q 176 85 268 -17 q 85 372 85 186 q 134 650 85 511 q 288 881 183 789 q 547 974 392 974 m 711 1261 l 753 1154 l 447 1049 l 421 1117 l 711 1261 z "},"Č":{"ha":771,"x_min":85,"x_max":822,"o":"m 547 974 q 690 949 628 974 q 804 875 753 924 l 729 801 q 644 850 686 835 q 553 865 601 865 q 362 788 436 865 q 255 596 288 711 q 222 361 222 481 q 279 159 222 224 q 433 94 336 94 q 544 116 496 94 q 649 176 593 138 l 707 88 q 425 -17 583 -17 q 176 85 268 -17 q 85 372 85 186 q 134 650 85 511 q 288 881 183 789 q 547 974 392 974 m 774 1263 l 822 1200 l 617 1047 l 533 1047 l 367 1200 l 426 1263 l 583 1150 l 774 1263 z "},"Ç":{"ha":771,"x_min":85,"x_max":804,"o":"m 553 865 q 362 788 436 865 q 255 596 288 711 q 222 361 222 481 q 279 159 222 224 q 433 94 336 94 q 544 116 496 94 q 649 176 593 138 l 707 88 q 467 -15 601 -3 l 456 -78 q 540 -114 511 -83 q 569 -190 569 -144 q 522 -293 569 -251 q 390 -335 474 -335 q 261 -297 311 -335 l 304 -229 q 342 -246 324 -240 q 390 -251 361 -251 q 444 -235 424 -251 q 465 -192 465 -219 q 441 -149 465 -161 q 351 -137 417 -137 l 382 -14 q 164 100 243 0 q 85 372 85 200 q 134 650 85 511 q 288 881 183 789 q 547 974 392 974 q 690 949 628 974 q 804 875 753 924 l 729 801 q 644 850 686 835 q 553 865 601 865 z "},"Ĉ":{"ha":771,"x_min":85,"x_max":807,"o":"m 547 974 q 690 949 628 974 q 804 875 753 924 l 729 801 q 644 850 686 835 q 553 865 601 865 q 362 788 436 865 q 255 596 288 711 q 222 361 222 481 q 279 159 222 224 q 433 94 336 94 q 544 116 496 94 q 649 176 593 138 l 707 88 q 425 -17 583 -17 q 176 85 268 -17 q 85 372 85 186 q 134 650 85 511 q 288 881 183 789 q 547 974 392 974 m 403 1054 l 351 1117 l 558 1269 l 642 1269 l 807 1117 l 750 1054 l 590 1167 l 403 1054 z "},"Ċ":{"ha":771,"x_min":85,"x_max":804,"o":"m 547 974 q 690 949 628 974 q 804 875 753 924 l 729 801 q 644 850 686 835 q 553 865 601 865 q 362 788 436 865 q 255 596 288 711 q 222 361 222 481 q 279 159 222 224 q 433 94 336 94 q 544 116 496 94 q 649 176 593 138 l 707 88 q 425 -17 583 -17 q 176 85 268 -17 q 85 372 85 186 q 134 650 85 511 q 288 881 183 789 q 547 974 392 974 m 590 1085 q 531 1108 553 1085 q 508 1164 508 1131 q 536 1231 508 1204 q 604 1258 564 1258 q 664 1236 642 1258 q 686 1179 686 1214 q 658 1112 686 1139 q 590 1085 631 1085 z "},"Ꭓ":{"ha":729,"x_min":-71,"x_max":776,"o":"m 776 957 l 446 425 l 646 -181 l 507 -181 l 360 332 l 79 -181 l -71 -181 l 294 426 l 114 957 l 254 957 l 381 514 l 628 957 l 776 957 z "},"Ƈ":{"ha":778,"x_min":85,"x_max":1072,"o":"m 917 1156 q 1072 1100 1006 1156 l 1015 1022 q 971 1046 990 1039 q 921 1053 951 1053 q 849 1026 876 1053 q 814 946 821 1000 l 804 875 l 739 811 q 650 851 699 836 q 556 865 601 865 q 363 788 438 865 q 256 596 289 711 q 222 361 222 481 q 279 159 222 224 q 433 94 336 94 q 543 116 496 94 q 649 178 590 138 l 707 88 q 425 -17 583 -17 q 176 85 268 -17 q 85 372 85 186 q 134 650 85 511 q 287 881 183 789 q 542 974 390 974 q 685 943 624 974 q 759 1101 699 1047 q 917 1156 819 1156 z "},"Ȼ":{"ha":771,"x_min":85,"x_max":804,"o":"m 729 801 q 650 849 692 831 l 349 108 q 433 94 386 94 q 544 116 496 94 q 649 176 593 138 l 707 88 q 425 -17 583 -17 q 306 1 358 -17 l 265 -97 l 203 -82 l 247 28 q 127 160 169 72 q 85 372 85 247 q 134 650 85 511 q 288 881 183 789 q 547 974 392 974 q 629 967 588 974 l 660 1042 l 722 1026 l 690 949 q 804 875 753 925 l 729 801 m 588 864 q 553 865 576 865 q 362 788 436 865 q 255 596 288 711 q 222 361 222 481 q 294 143 222 211 l 588 864 z "},"D":{"ha":888,"x_min":86,"x_max":835,"o":"m 417 957 q 721 878 607 957 q 835 594 835 800 q 782 297 835 432 q 613 81 729 163 q 317 0 497 0 l 86 0 l 221 957 l 417 957 m 336 851 l 232 104 l 336 104 q 549 176 467 104 q 666 360 631 249 q 701 597 701 471 q 665 758 701 703 q 572 833 629 814 q 436 851 514 851 l 336 851 z "},"Ǳ":{"ha":1569,"x_min":86,"x_max":1592,"o":"m 417 957 q 721 878 607 957 q 835 594 835 800 q 782 297 835 432 q 613 81 729 163 q 317 0 497 0 l 86 0 l 221 957 l 417 957 m 336 851 l 232 104 l 336 104 q 549 176 467 104 q 666 360 631 249 q 701 597 701 471 q 665 758 701 703 q 572 833 629 814 q 436 851 514 851 l 336 851 m 842 0 l 856 106 l 1431 846 l 1011 846 l 1026 957 l 1592 957 l 1578 850 l 1007 111 l 1472 113 l 1442 0 l 842 0 z "},"Ǆ":{"ha":1569,"x_min":86,"x_max":1592,"o":"m 417 957 q 721 878 607 957 q 835 594 835 800 q 782 297 835 432 q 613 81 729 163 q 317 0 497 0 l 86 0 l 221 957 l 417 957 m 336 851 l 232 104 l 336 104 q 549 176 467 104 q 666 360 631 249 q 701 597 701 471 q 665 758 701 703 q 572 833 629 814 q 436 851 514 851 l 336 851 m 842 0 l 856 106 l 1431 846 l 1011 846 l 1026 957 l 1592 957 l 1578 850 l 1007 111 l 1472 113 l 1442 0 l 842 0 m 1521 1263 l 1569 1200 l 1364 1047 l 1281 1047 l 1114 1200 l 1174 1263 l 1331 1150 l 1521 1263 z "},"Ɖ":{"ha":901,"x_min":40,"x_max":849,"o":"m 431 957 q 735 878 621 957 q 849 594 849 800 q 796 297 849 432 q 627 81 743 163 q 331 0 511 0 l 100 0 l 163 442 l 40 442 l 53 539 l 176 539 l 235 957 l 431 957 m 350 104 q 563 176 481 104 q 680 360 644 249 q 715 597 715 471 q 679 758 715 703 q 585 833 643 814 q 450 851 528 851 l 350 851 l 307 539 l 525 539 l 513 442 l 293 442 l 246 104 l 350 104 z "},"Ð":{"ha":901,"x_min":40,"x_max":849,"o":"m 431 957 q 735 878 621 957 q 849 594 849 800 q 796 297 849 432 q 627 81 743 163 q 331 0 511 0 l 100 0 l 163 442 l 40 442 l 53 539 l 176 539 l 235 957 l 431 957 m 350 104 q 563 176 481 104 q 680 360 644 249 q 715 597 715 471 q 679 758 715 703 q 585 833 643 814 q 450 851 528 851 l 350 851 l 307 539 l 525 539 l 513 442 l 293 442 l 246 104 l 350 104 z "},"Ď":{"ha":888,"x_min":86,"x_max":835,"o":"m 417 957 q 721 878 607 957 q 835 594 835 800 q 782 297 835 432 q 613 81 729 163 q 317 0 497 0 l 86 0 l 221 957 l 417 957 m 336 851 l 232 104 l 336 104 q 549 176 467 104 q 666 360 631 249 q 701 597 701 471 q 665 758 701 703 q 572 833 629 814 q 436 851 514 851 l 336 851 m 711 1263 l 760 1200 l 554 1047 l 471 1047 l 304 1200 l 364 1263 l 521 1150 l 711 1263 z "},"Ḓ":{"ha":888,"x_min":85,"x_max":835,"o":"m 417 957 q 721 878 607 957 q 835 594 835 800 q 782 297 835 432 q 613 81 729 163 q 317 0 497 0 l 86 0 l 221 957 l 417 957 m 336 851 l 232 104 l 336 104 q 549 176 467 104 q 666 360 631 249 q 701 597 701 471 q 665 758 701 703 q 572 833 629 814 q 436 851 514 851 l 336 851 m 136 -314 l 85 -251 l 292 -94 l 375 -94 l 540 -251 l 479 -314 l 322 -197 l 136 -314 z "},"Đ":{"ha":901,"x_min":40,"x_max":849,"o":"m 431 957 q 735 878 621 957 q 849 594 849 800 q 796 297 849 432 q 627 81 743 163 q 331 0 511 0 l 100 0 l 163 442 l 40 442 l 53 539 l 176 539 l 235 957 l 431 957 m 350 104 q 563 176 481 104 q 680 360 644 249 q 715 597 715 471 q 679 758 715 703 q 585 833 643 814 q 450 851 528 851 l 350 851 l 307 539 l 525 539 l 513 442 l 293 442 l 246 104 l 350 104 z "},"Ḋ":{"ha":888,"x_min":86,"x_max":835,"o":"m 417 957 q 721 878 607 957 q 835 594 835 800 q 782 297 835 432 q 613 81 729 163 q 317 0 497 0 l 86 0 l 221 957 l 417 957 m 336 851 l 232 104 l 336 104 q 549 176 467 104 q 666 360 631 249 q 701 597 701 471 q 665 758 701 703 q 572 833 629 814 q 436 851 514 851 l 336 851 m 528 1085 q 468 1108 490 1085 q 446 1164 446 1131 q 474 1231 446 1204 q 542 1258 501 1258 q 601 1236 579 1258 q 624 1179 624 1214 q 596 1112 624 1139 q 528 1085 568 1085 z "},"Ḍ":{"ha":888,"x_min":86,"x_max":835,"o":"m 417 957 q 721 878 607 957 q 835 594 835 800 q 782 297 835 432 q 613 81 729 163 q 317 0 497 0 l 86 0 l 221 957 l 417 957 m 336 851 l 232 104 l 336 104 q 549 176 467 104 q 666 360 631 249 q 701 597 701 471 q 665 758 701 703 q 572 833 629 814 q 436 851 514 851 l 336 851 m 331 -103 q 390 -126 367 -103 q 413 -182 413 -149 q 385 -249 413 -222 q 317 -276 357 -276 q 257 -254 279 -276 q 235 -197 235 -232 q 263 -130 235 -157 q 331 -103 290 -103 z "},"Ɗ":{"ha":1001,"x_min":72,"x_max":949,"o":"m 531 957 q 835 878 721 957 q 949 594 949 800 q 896 297 949 432 q 727 81 843 163 q 431 0 611 0 l 200 0 l 319 853 l 282 853 q 193 754 193 853 q 207 683 193 725 l 108 640 q 72 764 72 704 q 132 904 72 851 q 299 957 192 957 l 531 957 m 450 104 q 663 176 581 104 q 780 360 744 249 q 815 597 815 471 q 779 758 815 703 q 685 833 743 814 q 550 851 628 851 l 450 851 l 346 104 l 450 104 z "},"Ḏ":{"ha":888,"x_min":86,"x_max":835,"o":"m 417 957 q 721 878 607 957 q 835 594 835 800 q 782 297 835 432 q 613 81 729 163 q 317 0 497 0 l 86 0 l 221 957 l 417 957 m 336 851 l 232 104 l 336 104 q 549 176 467 104 q 666 360 631 249 q 701 597 701 471 q 665 758 701 703 q 572 833 629 814 q 436 851 514 851 l 336 851 m 147 -144 l 524 -144 l 511 -240 l 135 -240 l 147 -144 z "},"Ƌ":{"ha":799,"x_min":29,"x_max":744,"o":"m 610 0 l 349 0 q 117 65 204 0 q 29 276 29 131 q 138 513 29 428 q 435 597 246 597 l 564 597 l 599 849 l 218 849 l 232 957 l 744 957 l 610 0 m 494 106 l 549 494 l 425 494 q 232 438 296 494 q 168 275 168 382 q 214 144 168 183 q 361 106 260 106 l 494 106 z "},"ǲ":{"ha":1472,"x_min":86,"x_max":1479,"o":"m 417 957 q 721 878 607 957 q 835 594 835 800 q 782 297 835 432 q 613 81 729 163 q 317 0 497 0 l 86 0 l 221 957 l 417 957 m 336 851 l 232 104 l 336 104 q 549 176 467 104 q 666 360 631 249 q 701 597 701 471 q 665 758 701 703 q 572 833 629 814 q 436 851 514 851 l 336 851 m 1479 732 l 1467 635 l 1025 107 l 1396 107 l 1367 0 l 856 0 l 868 96 l 1308 624 l 975 624 l 990 732 l 1479 732 z "},"ǅ":{"ha":1472,"x_min":86,"x_max":1497,"o":"m 417 957 q 721 878 607 957 q 835 594 835 800 q 782 297 835 432 q 613 81 729 163 q 317 0 497 0 l 86 0 l 221 957 l 417 957 m 336 851 l 232 104 l 336 104 q 549 176 467 104 q 666 360 631 249 q 701 597 701 471 q 665 758 701 703 q 572 833 629 814 q 436 851 514 851 l 336 851 m 1479 732 l 1467 635 l 1025 107 l 1396 107 l 1367 0 l 856 0 l 868 96 l 1308 624 l 975 624 l 990 732 l 1479 732 m 1450 1090 l 1497 1028 l 1290 871 l 1207 871 l 1042 1028 l 1099 1090 l 1256 974 l 1450 1090 z "},"E":{"ha":735,"x_min":86,"x_max":733,"o":"m 733 957 l 704 851 l 336 851 l 292 539 l 611 539 l 597 433 l 278 433 l 232 106 l 625 106 l 610 0 l 86 0 l 221 957 l 733 957 z "},"É":{"ha":735,"x_min":86,"x_max":733,"o":"m 733 957 l 704 851 l 336 851 l 292 539 l 611 539 l 597 433 l 278 433 l 232 106 l 625 106 l 610 0 l 86 0 l 221 957 l 733 957 m 631 1261 l 672 1154 l 367 1049 l 340 1117 l 631 1261 z "},"Ĕ":{"ha":735,"x_min":86,"x_max":733,"o":"m 733 957 l 704 851 l 336 851 l 292 539 l 611 539 l 597 433 l 278 433 l 232 106 l 625 106 l 610 0 l 86 0 l 221 957 l 733 957 m 496 1053 q 359 1101 411 1053 q 310 1228 307 1150 l 392 1239 q 499 1150 411 1150 q 584 1176 547 1150 q 642 1244 621 1201 l 725 1219 q 643 1098 707 1143 q 496 1053 579 1053 z "},"Ě":{"ha":735,"x_min":86,"x_max":742,"o":"m 733 957 l 704 851 l 336 851 l 292 539 l 611 539 l 597 433 l 278 433 l 232 106 l 625 106 l 610 0 l 86 0 l 221 957 l 733 957 m 693 1263 l 742 1200 l 536 1047 l 453 1047 l 286 1200 l 346 1263 l 503 1150 l 693 1263 z "},"Ȩ":{"ha":735,"x_min":86,"x_max":733,"o":"m 336 851 l 292 539 l 611 539 l 597 433 l 278 433 l 232 106 l 625 106 l 610 0 l 389 0 l 376 -78 q 463 -113 435 -83 q 490 -189 490 -143 q 442 -291 490 -247 q 306 -335 393 -335 q 182 -297 232 -335 l 225 -232 q 310 -251 261 -251 q 365 -236 344 -251 q 386 -192 386 -221 q 362 -149 386 -161 q 272 -137 338 -137 l 306 0 l 86 0 l 221 957 l 733 957 l 704 851 l 336 851 z "},"Ê":{"ha":735,"x_min":86,"x_max":733,"o":"m 733 957 l 704 851 l 336 851 l 292 539 l 611 539 l 597 433 l 278 433 l 232 106 l 625 106 l 610 0 l 86 0 l 221 957 l 733 957 m 322 1054 l 271 1117 l 478 1269 l 561 1269 l 726 1117 l 669 1054 l 510 1167 l 322 1054 z "},"Ế":{"ha":735,"x_min":86,"x_max":890,"o":"m 819 1415 l 890 1340 l 682 1165 l 632 1214 l 819 1415 m 314 994 l 263 1057 l 469 1210 l 553 1210 l 718 1057 l 661 994 l 501 1107 l 314 994 m 733 957 l 704 851 l 336 851 l 292 539 l 611 539 l 597 433 l 278 433 l 232 106 l 625 106 l 610 0 l 86 0 l 221 957 l 733 957 z "},"Ệ":{"ha":735,"x_min":86,"x_max":733,"o":"m 733 957 l 704 851 l 336 851 l 292 539 l 611 539 l 597 433 l 278 433 l 232 106 l 625 106 l 610 0 l 86 0 l 221 957 l 733 957 m 322 1054 l 271 1117 l 478 1269 l 561 1269 l 726 1117 l 669 1054 l 510 1167 l 322 1054 m 331 -103 q 390 -126 367 -103 q 413 -182 413 -149 q 385 -249 413 -222 q 317 -276 357 -276 q 257 -254 279 -276 q 235 -197 235 -232 q 263 -130 235 -157 q 331 -103 290 -103 z "},"Ề":{"ha":735,"x_min":86,"x_max":733,"o":"m 242 1413 l 376 1208 l 324 1165 l 160 1342 l 242 1413 m 310 994 l 258 1057 l 465 1210 l 549 1210 l 714 1057 l 657 994 l 497 1107 l 310 994 m 733 957 l 704 851 l 336 851 l 292 539 l 611 539 l 597 433 l 278 433 l 232 106 l 625 106 l 610 0 l 86 0 l 221 957 l 733 957 z "},"Ể":{"ha":735,"x_min":86,"x_max":889,"o":"m 733 957 l 704 851 l 336 851 l 292 539 l 611 539 l 597 433 l 278 433 l 232 106 l 625 106 l 610 0 l 86 0 l 221 957 l 733 957 m 311 994 l 260 1057 l 467 1210 l 550 1210 l 715 1057 l 658 994 l 499 1107 l 311 994 m 669 1251 q 752 1273 724 1258 q 781 1322 781 1288 q 731 1361 781 1361 q 647 1339 688 1361 l 622 1415 q 753 1447 682 1447 q 853 1414 817 1447 q 889 1326 889 1381 q 856 1241 889 1271 q 761 1201 822 1211 l 751 1135 l 657 1135 l 669 1251 z "},"Ễ":{"ha":735,"x_min":86,"x_max":768,"o":"m 611 1250 q 556 1261 579 1250 q 508 1292 533 1272 q 481 1310 492 1304 q 457 1317 469 1317 q 412 1300 432 1317 q 369 1250 392 1283 l 297 1294 q 460 1414 371 1414 q 510 1403 490 1414 q 556 1374 529 1393 q 585 1353 574 1360 q 608 1347 596 1347 q 651 1363 631 1347 q 693 1411 671 1378 l 768 1367 q 693 1279 733 1308 q 611 1250 653 1250 m 311 994 l 260 1057 l 467 1210 l 550 1210 l 715 1057 l 658 994 l 499 1107 l 311 994 m 733 957 l 704 851 l 336 851 l 292 539 l 611 539 l 597 433 l 278 433 l 232 106 l 625 106 l 610 0 l 86 0 l 221 957 l 733 957 z "},"Ȅ":{"ha":735,"x_min":86,"x_max":733,"o":"m 733 957 l 704 851 l 336 851 l 292 539 l 611 539 l 597 433 l 278 433 l 232 106 l 625 106 l 610 0 l 86 0 l 221 957 l 733 957 m 365 1331 l 450 1090 l 368 1056 l 251 1274 l 365 1331 m 574 1331 l 646 1097 l 564 1063 l 460 1274 l 574 1331 z "},"Ë":{"ha":735,"x_min":86,"x_max":739,"o":"m 733 957 l 704 851 l 336 851 l 292 539 l 611 539 l 597 433 l 278 433 l 232 106 l 625 106 l 610 0 l 86 0 l 221 957 l 733 957 m 363 1083 q 310 1103 331 1083 q 289 1154 289 1124 q 314 1216 289 1192 q 376 1240 339 1240 q 429 1220 408 1240 q 450 1169 450 1200 q 425 1108 450 1132 q 363 1083 400 1083 m 651 1083 q 599 1103 619 1083 q 578 1154 578 1124 q 603 1216 578 1192 q 665 1240 628 1240 q 718 1220 697 1240 q 739 1169 739 1200 q 714 1108 739 1132 q 651 1083 689 1083 z "},"Ė":{"ha":735,"x_min":86,"x_max":733,"o":"m 733 957 l 704 851 l 336 851 l 292 539 l 611 539 l 597 433 l 278 433 l 232 106 l 625 106 l 610 0 l 86 0 l 221 957 l 733 957 m 510 1085 q 450 1108 472 1085 q 428 1164 428 1131 q 456 1231 428 1204 q 524 1258 483 1258 q 583 1236 561 1258 q 606 1179 606 1214 q 578 1112 606 1139 q 510 1085 550 1085 z "},"Ẹ":{"ha":735,"x_min":86,"x_max":733,"o":"m 733 957 l 704 851 l 336 851 l 292 539 l 611 539 l 597 433 l 278 433 l 232 106 l 625 106 l 610 0 l 86 0 l 221 957 l 733 957 m 331 -103 q 390 -126 367 -103 q 413 -182 413 -149 q 385 -249 413 -222 q 317 -276 357 -276 q 257 -254 279 -276 q 235 -197 235 -232 q 263 -130 235 -157 q 331 -103 290 -103 z "},"È":{"ha":735,"x_min":86,"x_max":733,"o":"m 733 957 l 704 851 l 336 851 l 292 539 l 611 539 l 597 433 l 278 433 l 232 106 l 625 106 l 610 0 l 86 0 l 221 957 l 733 957 m 413 1260 l 671 1115 l 631 1047 l 354 1153 l 413 1260 z "},"Ẻ":{"ha":735,"x_min":86,"x_max":733,"o":"m 733 957 l 704 851 l 336 851 l 292 539 l 611 539 l 597 433 l 278 433 l 232 106 l 625 106 l 610 0 l 86 0 l 221 957 l 733 957 m 463 1176 q 545 1198 517 1183 q 574 1247 574 1213 q 524 1286 574 1286 q 440 1264 481 1286 l 415 1340 q 546 1372 475 1372 q 646 1339 610 1372 q 682 1251 682 1306 q 649 1166 682 1196 q 554 1126 615 1136 l 544 1060 l 450 1060 l 463 1176 z "},"Ȇ":{"ha":735,"x_min":86,"x_max":733,"o":"m 733 957 l 704 851 l 336 851 l 292 539 l 611 539 l 597 433 l 278 433 l 232 106 l 625 106 l 610 0 l 86 0 l 221 957 l 733 957 m 290 1100 q 374 1233 311 1186 q 522 1281 438 1281 q 660 1229 608 1281 q 710 1092 713 1178 l 625 1081 q 517 1183 611 1183 q 374 1075 419 1183 l 290 1100 z "},"Ē":{"ha":735,"x_min":86,"x_max":733,"o":"m 733 957 l 704 851 l 336 851 l 292 539 l 611 539 l 597 433 l 278 433 l 232 106 l 625 106 l 610 0 l 86 0 l 221 957 l 733 957 m 693 1101 l 317 1101 l 329 1197 l 706 1197 l 693 1101 z "},"Ę":{"ha":735,"x_min":86,"x_max":733,"o":"m 336 851 l 292 539 l 611 539 l 597 433 l 278 433 l 232 106 l 625 106 l 610 0 l 557 0 q 399 -91 439 -49 q 360 -175 360 -133 q 377 -211 360 -199 q 425 -224 394 -224 q 513 -212 460 -224 l 492 -312 q 407 -321 450 -321 q 291 -284 333 -321 q 249 -190 249 -247 q 401 0 249 -74 l 86 0 l 221 957 l 733 957 l 704 851 l 336 851 z "},"Ɛ":{"ha":718,"x_min":46,"x_max":746,"o":"m 463 974 q 746 853 629 974 l 668 779 q 465 865 578 865 q 325 816 374 865 q 276 693 276 767 q 318 594 276 628 q 435 560 360 560 l 528 560 l 496 451 l 426 451 q 249 399 314 451 q 185 246 185 347 q 231 133 185 172 q 363 94 276 94 q 597 190 494 94 l 668 110 q 522 15 603 46 q 351 -17 440 -17 q 192 16 261 -17 q 84 108 122 49 q 46 244 46 168 q 117 428 46 356 q 300 514 188 501 q 185 578 228 531 q 142 700 142 626 q 183 842 142 779 q 299 939 225 904 q 463 974 372 974 z "},"Ǝ":{"ha":736,"x_min":24,"x_max":681,"o":"m 165 957 l 681 957 l 547 0 l 24 0 l 38 106 l 431 106 l 476 433 l 157 433 l 172 539 l 492 539 l 536 851 l 151 851 l 165 957 z "},"Ʃ":{"ha":694,"x_min":6,"x_max":722,"o":"m 722 957 l 707 849 l 271 849 l 499 508 l 490 422 l 169 108 l 603 108 l 588 0 l 6 0 l 19 108 l 378 472 l 126 849 l 140 957 l 722 957 z "},"Ɇ":{"ha":735,"x_min":86,"x_max":733,"o":"m 704 851 l 624 851 l 496 539 l 611 539 l 597 433 l 453 433 l 319 106 l 625 106 l 610 0 l 276 0 l 238 -97 l 175 -82 l 208 0 l 86 0 l 221 957 l 597 957 l 632 1042 l 694 1026 l 667 957 l 733 957 l 704 851 m 428 539 l 554 851 l 336 851 l 292 539 l 428 539 m 251 106 l 385 433 l 278 433 l 232 106 l 251 106 z "},"Ẽ":{"ha":735,"x_min":86,"x_max":747,"o":"m 733 957 l 704 851 l 336 851 l 292 539 l 611 539 l 597 433 l 278 433 l 232 106 l 625 106 l 610 0 l 86 0 l 221 957 l 733 957 m 590 1086 q 535 1097 558 1086 q 488 1128 513 1108 q 460 1147 471 1140 q 436 1153 449 1153 q 391 1136 411 1153 q 349 1086 371 1119 l 276 1131 q 439 1250 350 1250 q 489 1240 469 1250 q 535 1210 508 1229 q 564 1190 553 1196 q 588 1183 575 1183 q 630 1199 610 1183 q 672 1247 650 1214 l 747 1203 q 672 1115 713 1144 q 590 1086 632 1086 z "},"Ʒ":{"ha":714,"x_min":-18,"x_max":701,"o":"m 688 850 l 358 551 q 572 488 501 550 q 643 315 643 426 q 594 140 643 215 q 460 24 546 65 q 265 -17 374 -17 q 97 15 165 -17 q -18 111 29 47 l 64 181 q 149 113 103 133 q 265 92 196 92 q 440 151 375 92 q 506 314 506 211 q 460 424 506 392 q 314 456 414 456 l 189 456 l 190 457 l 203 550 l 528 849 l 128 849 l 143 957 l 701 957 l 688 850 z "},"Ǯ":{"ha":714,"x_min":-18,"x_max":701,"o":"m 688 850 l 358 551 q 572 488 501 550 q 643 315 643 426 q 594 140 643 215 q 460 24 546 65 q 265 -17 374 -17 q 97 15 165 -17 q -18 111 29 47 l 64 181 q 149 113 103 133 q 265 92 196 92 q 440 151 375 92 q 506 314 506 211 q 460 424 506 392 q 314 456 414 456 l 189 456 l 190 457 l 203 550 l 528 849 l 128 849 l 143 957 l 701 957 l 688 850 m 633 1263 l 682 1200 l 476 1047 l 393 1047 l 226 1200 l 286 1263 l 443 1150 l 633 1263 z "},"Ƹ":{"ha":715,"x_min":46,"x_max":736,"o":"m 721 849 l 308 849 l 558 549 l 547 456 l 544 457 l 546 456 l 429 456 q 247 398 313 456 q 181 242 181 340 q 223 131 181 169 q 349 92 265 92 q 481 114 425 92 q 592 183 536 136 l 661 106 q 520 14 597 44 q 340 -17 443 -17 q 125 53 204 -17 q 46 240 46 124 q 92 404 46 333 q 220 513 138 475 q 410 551 303 551 l 419 551 l 164 850 l 178 957 l 736 957 l 721 849 z "},"F":{"ha":674,"x_min":86,"x_max":724,"o":"m 724 957 l 694 851 l 336 851 l 290 525 l 600 525 l 586 421 l 276 421 l 217 0 l 86 0 l 221 957 l 724 957 z "},"Ḟ":{"ha":674,"x_min":86,"x_max":724,"o":"m 724 957 l 694 851 l 336 851 l 290 525 l 600 525 l 586 421 l 276 421 l 217 0 l 86 0 l 221 957 l 724 957 m 500 1085 q 440 1108 463 1085 q 418 1164 418 1131 q 446 1231 418 1204 q 514 1258 474 1258 q 574 1236 551 1258 q 596 1179 596 1214 q 568 1112 596 1139 q 500 1085 540 1085 z "},"Ƒ":{"ha":674,"x_min":-182,"x_max":724,"o":"m 336 851 l 290 525 l 600 525 l 586 421 l 276 421 l 217 0 l 206 -83 q 129 -243 190 -190 q -28 -296 68 -296 q -182 -240 -115 -296 l -125 -160 q -81 -183 -100 -176 q -31 -190 -61 -190 q 75 -83 58 -190 l 86 0 l 221 957 l 724 957 l 694 851 l 336 851 z "},"G":{"ha":868,"x_min":83,"x_max":843,"o":"m 563 974 q 719 946 651 974 q 843 864 786 918 l 761 793 q 668 849 713 832 q 564 865 624 865 q 370 787 447 865 q 257 588 293 708 q 221 343 221 468 q 275 152 221 213 q 438 92 329 92 q 619 139 538 92 l 661 424 l 494 424 l 494 531 l 806 531 l 743 75 q 593 6 671 29 q 419 -17 515 -17 q 173 80 263 -17 q 83 360 83 176 q 135 648 83 507 q 296 881 188 789 q 563 974 404 974 z "},"Ǵ":{"ha":868,"x_min":83,"x_max":843,"o":"m 563 974 q 719 946 651 974 q 843 864 786 918 l 761 793 q 668 849 713 832 q 564 865 624 865 q 370 787 447 865 q 257 588 293 708 q 221 343 221 468 q 275 152 221 213 q 438 92 329 92 q 619 139 538 92 l 661 424 l 494 424 l 494 531 l 806 531 l 743 75 q 593 6 671 29 q 419 -17 515 -17 q 173 80 263 -17 q 83 360 83 176 q 135 648 83 507 q 296 881 188 789 q 563 974 404 974 m 721 1261 l 763 1154 l 457 1049 l 431 1117 l 721 1261 z "},"Ɣ":{"ha":764,"x_min":90,"x_max":839,"o":"m 422 94 q 463 -24 450 26 q 475 -124 475 -74 q 426 -251 475 -206 q 293 -296 378 -296 q 182 -260 221 -296 q 143 -165 143 -224 q 172 -56 143 -114 q 267 96 200 1 l 90 957 l 226 957 l 354 188 l 703 957 l 839 957 l 422 94 m 356 -126 q 332 13 356 -72 q 281 -84 299 -43 q 263 -156 263 -125 q 299 -194 263 -194 q 341 -176 326 -194 q 356 -126 356 -157 z "},"Ğ":{"ha":868,"x_min":83,"x_max":843,"o":"m 563 974 q 719 946 651 974 q 843 864 786 918 l 761 793 q 668 849 713 832 q 564 865 624 865 q 370 787 447 865 q 257 588 293 708 q 221 343 221 468 q 275 152 221 213 q 438 92 329 92 q 619 139 538 92 l 661 424 l 494 424 l 494 531 l 806 531 l 743 75 q 593 6 671 29 q 419 -17 515 -17 q 173 80 263 -17 q 83 360 83 176 q 135 648 83 507 q 296 881 188 789 q 563 974 404 974 m 586 1053 q 449 1101 501 1053 q 400 1228 397 1150 l 482 1239 q 589 1150 501 1150 q 674 1176 638 1150 q 732 1244 711 1201 l 815 1219 q 733 1098 797 1143 q 586 1053 669 1053 z "},"Ǧ":{"ha":868,"x_min":83,"x_max":843,"o":"m 563 974 q 719 946 651 974 q 843 864 786 918 l 761 793 q 668 849 713 832 q 564 865 624 865 q 370 787 447 865 q 257 588 293 708 q 221 343 221 468 q 275 152 221 213 q 438 92 329 92 q 619 139 538 92 l 661 424 l 494 424 l 494 531 l 806 531 l 743 75 q 593 6 671 29 q 419 -17 515 -17 q 173 80 263 -17 q 83 360 83 176 q 135 648 83 507 q 296 881 188 789 q 563 974 404 974 m 783 1263 l 832 1200 l 626 1047 l 543 1047 l 376 1200 l 436 1263 l 593 1150 l 783 1263 z "},"Ĝ":{"ha":868,"x_min":83,"x_max":843,"o":"m 563 974 q 719 946 651 974 q 843 864 786 918 l 761 793 q 668 849 713 832 q 564 865 624 865 q 370 787 447 865 q 257 588 293 708 q 221 343 221 468 q 275 152 221 213 q 438 92 329 92 q 619 139 538 92 l 661 424 l 494 424 l 494 531 l 806 531 l 743 75 q 593 6 671 29 q 419 -17 515 -17 q 173 80 263 -17 q 83 360 83 176 q 135 648 83 507 q 296 881 188 789 q 563 974 404 974 m 413 1054 l 361 1117 l 568 1269 l 651 1269 l 817 1117 l 760 1054 l 600 1167 l 413 1054 z "},"Ģ":{"ha":868,"x_min":83,"x_max":843,"o":"m 563 974 q 719 946 651 974 q 843 864 786 918 l 761 793 q 668 849 713 832 q 564 865 624 865 q 370 787 447 865 q 257 588 293 708 q 221 343 221 468 q 275 152 221 213 q 438 92 329 92 q 619 139 538 92 l 661 424 l 494 424 l 494 531 l 806 531 l 743 75 q 593 6 671 29 q 419 -17 515 -17 q 173 80 263 -17 q 83 360 83 176 q 135 648 83 507 q 296 881 188 789 q 563 974 404 974 m 406 -107 q 458 -129 439 -107 q 478 -179 478 -151 q 467 -226 478 -203 q 428 -297 457 -250 l 356 -411 l 281 -411 l 347 -247 q 321 -189 321 -221 q 346 -131 321 -154 q 406 -107 371 -107 z "},"Ġ":{"ha":868,"x_min":83,"x_max":843,"o":"m 563 974 q 719 946 651 974 q 843 864 786 918 l 761 793 q 668 849 713 832 q 564 865 624 865 q 370 787 447 865 q 257 588 293 708 q 221 343 221 468 q 275 152 221 213 q 438 92 329 92 q 619 139 538 92 l 661 424 l 494 424 l 494 531 l 806 531 l 743 75 q 593 6 671 29 q 419 -17 515 -17 q 173 80 263 -17 q 83 360 83 176 q 135 648 83 507 q 296 881 188 789 q 563 974 404 974 m 600 1085 q 540 1108 563 1085 q 518 1164 518 1131 q 546 1231 518 1204 q 614 1258 574 1258 q 674 1236 651 1258 q 696 1179 696 1214 q 668 1112 696 1139 q 600 1085 640 1085 z "},"Ɠ":{"ha":818,"x_min":83,"x_max":1113,"o":"m 958 1156 q 1113 1100 1046 1156 l 1056 1022 q 1011 1046 1031 1039 q 961 1053 992 1053 q 889 1026 917 1053 q 854 946 861 1000 l 843 864 l 772 803 q 564 865 674 865 q 370 787 447 865 q 257 588 293 708 q 221 343 221 468 q 275 152 221 213 q 438 92 329 92 q 619 139 538 92 l 661 424 l 494 424 l 494 531 l 806 531 l 743 75 q 593 6 671 29 q 419 -17 515 -17 q 173 80 263 -17 q 83 360 83 176 q 135 648 83 507 q 296 881 188 789 q 563 974 404 974 q 725 936 661 974 l 725 943 q 800 1101 739 1046 q 958 1156 861 1156 z "},"Ɂ":{"ha":647,"x_min":85,"x_max":667,"o":"m 221 443 l 321 471 q 475 559 424 500 q 526 715 526 618 q 489 826 526 788 q 379 865 451 865 q 263 842 319 865 q 149 775 207 819 l 85 858 q 390 974 222 974 q 592 905 517 974 q 667 725 667 836 q 376 388 667 457 l 342 379 l 289 0 l 158 0 l 221 443 z "},"Ǥ":{"ha":890,"x_min":83,"x_max":881,"o":"m 865 235 l 765 235 l 743 75 q 593 6 671 29 q 419 -17 515 -17 q 173 80 263 -17 q 83 360 83 176 q 135 648 83 507 q 296 881 188 789 q 563 974 404 974 q 719 946 651 974 q 843 864 786 918 l 761 793 q 668 849 713 832 q 564 865 624 865 q 370 787 447 865 q 257 588 293 708 q 221 343 221 468 q 275 152 221 213 q 438 92 329 92 q 619 139 538 92 l 633 235 l 475 235 l 490 343 l 650 343 l 661 424 l 494 424 l 494 531 l 806 531 l 779 343 l 881 343 l 865 235 z "},"Ȝ":{"ha":693,"x_min":21,"x_max":653,"o":"m 392 974 q 585 911 517 974 q 653 747 653 849 q 596 586 653 649 q 435 497 539 524 q 569 440 515 489 q 622 306 622 390 q 456 17 622 129 q 26 -142 289 -96 l 21 -35 q 360 94 238 14 q 482 304 482 174 q 437 405 482 372 q 297 438 392 438 l 204 438 l 236 546 l 308 546 q 457 599 397 546 q 517 740 517 651 q 381 865 517 865 q 265 843 321 865 q 146 778 208 821 l 83 858 q 232 945 157 917 q 392 974 307 974 z "},"H":{"ha":936,"x_min":86,"x_max":882,"o":"m 217 0 l 86 0 l 221 957 l 351 957 l 294 557 l 694 557 l 751 957 l 882 957 l 747 0 l 617 0 l 679 449 l 279 449 l 217 0 z "},"Ħ":{"ha":947,"x_min":90,"x_max":960,"o":"m 960 801 l 946 706 l 851 706 l 751 0 l 621 0 l 683 449 l 283 449 l 221 0 l 90 0 l 190 706 l 96 706 l 110 801 l 203 801 l 225 957 l 356 957 l 333 801 l 733 801 l 756 957 l 886 957 l 864 801 l 960 801 m 699 557 l 719 706 l 319 706 l 299 557 l 699 557 z "},"Ȟ":{"ha":936,"x_min":86,"x_max":882,"o":"m 217 0 l 86 0 l 221 957 l 351 957 l 294 557 l 694 557 l 751 957 l 882 957 l 747 0 l 617 0 l 679 449 l 279 449 l 217 0 m 763 1263 l 811 1200 l 606 1047 l 522 1047 l 356 1200 l 415 1263 l 572 1150 l 763 1263 z "},"Ĥ":{"ha":936,"x_min":86,"x_max":882,"o":"m 217 0 l 86 0 l 221 957 l 351 957 l 294 557 l 694 557 l 751 957 l 882 957 l 747 0 l 617 0 l 679 449 l 279 449 l 217 0 m 392 1054 l 340 1117 l 547 1269 l 631 1269 l 796 1117 l 739 1054 l 579 1167 l 392 1054 z "},"Ḥ":{"ha":936,"x_min":86,"x_max":882,"o":"m 217 0 l 86 0 l 221 957 l 351 957 l 294 557 l 694 557 l 751 957 l 882 957 l 747 0 l 617 0 l 679 449 l 279 449 l 217 0 m 410 -103 q 469 -126 446 -103 q 492 -182 492 -149 q 464 -249 492 -222 q 396 -276 436 -276 q 336 -254 358 -276 q 314 -197 314 -232 q 342 -130 314 -157 q 410 -103 369 -103 z "},"Ɦ":{"ha":1050,"x_min":72,"x_max":996,"o":"m 996 957 l 861 0 l 731 0 l 793 449 l 393 449 l 331 0 l 200 0 l 319 853 l 282 853 q 193 754 193 853 q 207 683 193 725 l 108 640 q 72 764 72 704 q 132 904 72 851 q 299 957 192 957 l 465 957 l 408 557 l 808 557 l 865 957 l 996 957 z "},"Ɥ":{"ha":843,"x_min":83,"x_max":789,"o":"m 789 957 l 654 0 l 524 0 l 578 382 q 456 320 513 339 q 329 301 400 301 q 150 366 217 301 q 83 540 83 431 q 88 593 83 567 l 139 957 l 269 957 l 218 594 q 215 550 215 579 q 254 447 215 479 q 368 414 293 414 q 594 500 493 414 l 658 957 l 789 957 z "},"Ƕ":{"ha":1332,"x_min":86,"x_max":1250,"o":"m 875 -17 q 703 44 758 -17 q 647 193 647 104 q 650 233 647 206 l 679 449 l 279 449 l 217 0 l 86 0 l 221 957 l 351 957 l 294 557 l 694 557 l 751 957 l 882 957 l 781 233 q 778 194 778 206 q 879 86 778 86 q 1124 574 1124 86 q 1117 732 1124 664 l 1239 732 q 1250 551 1250 635 q 1162 142 1250 301 q 875 -17 1074 -17 z "},"I":{"ha":406,"x_min":86,"x_max":351,"o":"m 351 957 l 217 0 l 86 0 l 221 957 l 351 957 z "},"Ĳ":{"ha":822,"x_min":86,"x_max":775,"o":"m 351 957 l 217 0 l 86 0 l 221 957 l 351 957 m 658 129 q 569 -82 639 -12 q 369 -192 499 -151 l 343 -93 q 447 -38 410 -68 q 502 34 483 -8 q 529 143 521 76 l 644 957 l 775 957 l 658 129 z "},"Í":{"ha":406,"x_min":86,"x_max":476,"o":"m 351 957 l 217 0 l 86 0 l 221 957 l 351 957 m 435 1261 l 476 1154 l 171 1049 l 144 1117 l 435 1261 z "},"Ĭ":{"ha":406,"x_min":86,"x_max":529,"o":"m 351 957 l 217 0 l 86 0 l 221 957 l 351 957 m 300 1053 q 163 1101 215 1053 q 114 1228 111 1150 l 196 1239 q 303 1150 215 1150 q 388 1176 351 1150 q 446 1244 425 1201 l 529 1219 q 447 1098 511 1143 q 300 1053 383 1053 z "},"Ǐ":{"ha":406,"x_min":86,"x_max":546,"o":"m 351 957 l 217 0 l 86 0 l 221 957 l 351 957 m 497 1263 l 546 1200 l 340 1047 l 257 1047 l 90 1200 l 150 1263 l 307 1150 l 497 1263 z "},"Î":{"ha":406,"x_min":75,"x_max":531,"o":"m 351 957 l 217 0 l 86 0 l 221 957 l 351 957 m 126 1054 l 75 1117 l 282 1269 l 365 1269 l 531 1117 l 474 1054 l 314 1167 l 126 1054 z "},"Ȉ":{"ha":406,"x_min":56,"x_max":450,"o":"m 351 957 l 217 0 l 86 0 l 221 957 l 351 957 m 169 1331 l 254 1090 l 172 1056 l 56 1274 l 169 1331 m 378 1331 l 450 1097 l 368 1063 l 264 1274 l 378 1331 z "},"Ï":{"ha":406,"x_min":86,"x_max":543,"o":"m 351 957 l 217 0 l 86 0 l 221 957 l 351 957 m 167 1083 q 114 1103 135 1083 q 93 1154 93 1124 q 118 1216 93 1192 q 181 1240 143 1240 q 233 1220 213 1240 q 254 1169 254 1200 q 229 1108 254 1132 q 167 1083 204 1083 m 456 1083 q 403 1103 424 1083 q 382 1154 382 1124 q 407 1216 382 1192 q 469 1240 432 1240 q 522 1220 501 1240 q 543 1169 543 1200 q 518 1108 543 1132 q 456 1083 493 1083 z "},"Ḯ":{"ha":406,"x_min":79,"x_max":529,"o":"m 351 957 l 217 0 l 86 0 l 221 957 l 351 957 m 446 1410 l 517 1335 l 308 1160 l 258 1208 l 446 1410 m 153 1038 q 100 1058 121 1038 q 79 1108 79 1078 q 104 1170 79 1146 q 167 1194 129 1194 q 219 1174 199 1194 q 240 1124 240 1154 q 215 1062 240 1086 q 153 1038 190 1038 m 442 1038 q 389 1058 410 1038 q 368 1108 368 1078 q 393 1170 368 1146 q 456 1194 418 1194 q 508 1174 488 1194 q 529 1124 529 1154 q 504 1062 529 1086 q 442 1038 479 1038 z "},"İ":{"ha":406,"x_min":86,"x_max":410,"o":"m 351 957 l 217 0 l 86 0 l 221 957 l 351 957 m 314 1085 q 254 1108 276 1085 q 232 1164 232 1131 q 260 1231 232 1204 q 328 1258 288 1258 q 388 1236 365 1258 q 410 1179 410 1214 q 382 1112 410 1139 q 314 1085 354 1085 z "},"Ị":{"ha":406,"x_min":36,"x_max":351,"o":"m 351 957 l 217 0 l 86 0 l 221 957 l 351 957 m 132 -103 q 191 -126 168 -103 q 214 -182 214 -149 q 186 -249 214 -222 q 118 -276 158 -276 q 58 -254 81 -276 q 36 -197 36 -232 q 64 -130 36 -157 q 132 -103 92 -103 z "},"Ì":{"ha":406,"x_min":86,"x_max":475,"o":"m 351 957 l 217 0 l 86 0 l 221 957 l 351 957 m 217 1260 l 475 1115 l 435 1047 l 158 1153 l 217 1260 z "},"Ỉ":{"ha":406,"x_min":86,"x_max":486,"o":"m 351 957 l 217 0 l 86 0 l 221 957 l 351 957 m 267 1176 q 349 1198 321 1183 q 378 1247 378 1213 q 328 1286 378 1286 q 244 1264 285 1286 l 219 1340 q 350 1372 279 1372 q 450 1339 414 1372 q 486 1251 486 1306 q 453 1166 486 1196 q 358 1126 419 1136 l 349 1060 l 254 1060 l 267 1176 z "},"Ȋ":{"ha":406,"x_min":86,"x_max":514,"o":"m 351 957 l 217 0 l 86 0 l 221 957 l 351 957 m 94 1100 q 178 1233 115 1186 q 326 1281 242 1281 q 465 1229 413 1281 q 514 1092 517 1178 l 429 1081 q 321 1183 415 1183 q 178 1075 224 1183 l 94 1100 z "},"Ī":{"ha":406,"x_min":86,"x_max":510,"o":"m 351 957 l 217 0 l 86 0 l 221 957 l 351 957 m 497 1101 l 121 1101 l 133 1197 l 510 1197 l 497 1101 z "},"Į":{"ha":406,"x_min":-119,"x_max":351,"o":"m 351 957 l 217 0 l 189 0 q 31 -91 71 -49 q -8 -175 -8 -133 q 9 -211 -8 -199 q 57 -224 26 -224 q 144 -212 92 -224 l 124 -312 q 39 -321 82 -321 q -77 -284 -35 -321 q -119 -190 -119 -247 q -74 -74 -119 -128 q 89 24 -28 -19 l 221 957 l 351 957 z "},"Ɩ":{"ha":492,"x_min":97,"x_max":444,"o":"m 444 33 q 283 -17 374 -17 q 147 28 196 -17 q 97 157 97 72 q 100 203 97 186 l 111 279 l 208 957 l 339 957 l 242 279 l 229 188 q 226 158 226 165 q 294 89 226 89 q 349 97 326 89 q 401 121 372 104 l 444 33 z "},"Ɨ":{"ha":435,"x_min":33,"x_max":439,"o":"m 439 550 l 424 447 l 296 447 l 233 0 l 103 0 l 165 447 l 33 447 l 49 550 l 181 550 l 238 957 l 368 957 l 311 550 l 439 550 z "},"Ĩ":{"ha":406,"x_min":81,"x_max":551,"o":"m 351 957 l 217 0 l 86 0 l 221 957 l 351 957 m 394 1086 q 340 1097 363 1086 q 292 1128 317 1108 q 264 1147 275 1140 q 240 1153 253 1153 q 195 1136 215 1153 q 153 1086 175 1119 l 81 1131 q 243 1250 154 1250 q 293 1240 274 1250 q 339 1210 313 1229 q 368 1190 357 1196 q 392 1183 379 1183 q 434 1199 414 1183 q 476 1247 454 1214 l 551 1203 q 476 1115 517 1144 q 394 1086 436 1086 z "},"J":{"ha":417,"x_min":-62,"x_max":369,"o":"m 253 129 q 163 -82 233 -12 q -36 -192 93 -151 l -62 -93 q 41 -38 4 -68 q 97 34 78 -8 q 124 143 115 76 l 239 957 l 369 957 l 253 129 z "},"Ĵ":{"ha":417,"x_min":-62,"x_max":549,"o":"m 253 129 q 163 -82 233 -12 q -36 -192 93 -151 l -62 -93 q 41 -38 4 -68 q 97 34 78 -8 q 124 143 115 76 l 239 957 l 369 957 l 253 129 m 144 1054 l 93 1117 l 300 1269 l 383 1269 l 549 1117 l 492 1054 l 332 1167 l 144 1054 z "},"Ʝ":{"ha":456,"x_min":-179,"x_max":417,"o":"m 381 -136 q 250 -92 314 -108 q 160 -245 224 -194 q -7 -296 97 -296 q -134 -258 -89 -296 q -179 -154 -179 -219 q -116 -28 -179 -75 q 44 18 -53 18 q 139 14 104 18 l 269 957 l 400 957 l 264 -12 q 417 -68 342 -31 l 381 -136 m -4 -208 q 85 -175 56 -208 q 126 -67 114 -142 q 43 -62 93 -62 q -43 -87 -12 -62 q -74 -149 -74 -111 q -4 -208 -74 -208 z "},"Ɉ":{"ha":435,"x_min":-57,"x_max":444,"o":"m 429 422 l 300 422 l 258 129 q 169 -82 239 -12 q -31 -192 99 -151 l -57 -93 q 47 -38 10 -68 q 102 34 83 -8 q 129 143 121 76 l 168 422 l 39 422 l 54 531 l 185 531 l 244 957 l 375 957 l 315 531 l 444 531 l 429 422 z "},"K":{"ha":810,"x_min":86,"x_max":869,"o":"m 86 0 l 221 957 l 353 957 l 218 0 l 86 0 m 603 0 l 296 511 l 715 957 l 869 957 l 443 507 l 758 0 l 603 0 z "},"Ǩ":{"ha":810,"x_min":86,"x_max":869,"o":"m 86 0 l 221 957 l 353 957 l 218 0 l 86 0 m 603 0 l 296 511 l 715 957 l 869 957 l 443 507 l 758 0 l 603 0 m 746 1263 l 794 1200 l 589 1047 l 506 1047 l 339 1200 l 399 1263 l 556 1150 l 746 1263 z "},"Ķ":{"ha":810,"x_min":86,"x_max":869,"o":"m 86 0 l 221 957 l 353 957 l 218 0 l 86 0 m 603 0 l 296 511 l 715 957 l 869 957 l 443 507 l 758 0 l 603 0 m 367 -107 q 419 -129 400 -107 q 439 -179 439 -151 q 428 -226 439 -203 q 389 -297 418 -250 l 317 -411 l 242 -411 l 308 -247 q 282 -189 282 -221 q 307 -131 282 -154 q 367 -107 332 -107 z "},"Ƙ":{"ha":864,"x_min":86,"x_max":940,"o":"m 296 511 l 589 850 q 693 947 649 919 q 800 974 738 974 q 878 958 846 974 q 940 913 910 943 l 874 842 q 837 861 851 856 q 803 867 822 867 q 749 850 772 867 q 681 783 725 833 l 443 511 l 758 0 l 600 0 l 296 511 m 86 0 l 221 957 l 353 957 l 218 0 l 86 0 z "},"L":{"ha":683,"x_min":86,"x_max":622,"o":"m 351 957 l 233 115 l 622 115 l 592 0 l 86 0 l 221 957 l 351 957 z "},"Ǉ":{"ha":1074,"x_min":86,"x_max":1026,"o":"m 351 957 l 233 115 l 622 115 l 592 0 l 86 0 l 221 957 l 351 957 m 910 129 q 820 -82 890 -12 q 621 -192 750 -151 l 594 -93 q 698 -38 661 -68 q 753 34 735 -8 q 781 143 772 76 l 896 957 l 1026 957 l 910 129 z "},"Ĺ":{"ha":683,"x_min":86,"x_max":622,"o":"m 351 957 l 233 115 l 622 115 l 592 0 l 86 0 l 221 957 l 351 957 m 435 1261 l 476 1154 l 171 1049 l 144 1117 l 435 1261 z "},"Ƚ":{"ha":693,"x_min":35,"x_max":632,"o":"m 243 115 l 632 115 l 601 0 l 96 0 l 160 450 l 35 450 l 50 558 l 175 558 l 231 957 l 361 957 l 306 558 l 440 558 l 425 450 l 290 450 l 243 115 z "},"Ɬ":{"ha":761,"x_min":36,"x_max":700,"o":"m 700 115 l 669 0 l 164 0 l 214 360 q 81 402 125 364 q 36 508 36 440 q 84 622 36 579 q 206 665 132 665 q 257 660 239 665 l 299 957 l 429 957 l 358 453 q 474 463 397 454 l 518 468 l 525 383 q 346 363 411 365 l 311 115 l 700 115 m 228 453 l 244 575 q 210 579 229 579 q 160 561 178 579 q 142 510 142 543 q 226 453 142 453 l 228 453 z "},"Ľ":{"ha":683,"x_min":86,"x_max":622,"o":"m 351 957 l 233 115 l 622 115 l 592 0 l 86 0 l 221 957 l 351 957 m 453 971 l 567 957 l 467 701 l 394 713 l 453 971 z "},"Ḽ":{"ha":683,"x_min":75,"x_max":622,"o":"m 351 957 l 233 115 l 622 115 l 592 0 l 86 0 l 221 957 l 351 957 m 126 -314 l 75 -251 l 282 -94 l 365 -94 l 531 -251 l 469 -314 l 313 -197 l 126 -314 z "},"Ļ":{"ha":683,"x_min":86,"x_max":622,"o":"m 351 957 l 233 115 l 622 115 l 592 0 l 86 0 l 221 957 l 351 957 m 324 -107 q 376 -129 357 -107 q 396 -179 396 -151 q 385 -226 396 -203 q 346 -297 375 -250 l 274 -411 l 199 -411 l 265 -247 q 239 -189 239 -221 q 264 -131 239 -154 q 324 -107 289 -107 z "},"Ŀ":{"ha":683,"x_min":86,"x_max":646,"o":"m 351 957 l 233 115 l 622 115 l 592 0 l 86 0 l 221 957 l 351 957 m 550 451 q 490 474 513 451 q 468 531 468 497 q 496 598 468 571 q 564 625 524 625 q 624 603 601 625 q 646 546 646 581 q 618 478 646 506 q 550 451 590 451 z "},"Ḷ":{"ha":683,"x_min":86,"x_max":622,"o":"m 351 957 l 233 115 l 622 115 l 592 0 l 86 0 l 221 957 l 351 957 m 321 -103 q 380 -126 357 -103 q 403 -182 403 -149 q 375 -249 403 -222 q 307 -276 347 -276 q 247 -254 269 -276 q 225 -197 225 -232 q 253 -130 225 -157 q 321 -103 281 -103 z "},"ǈ":{"ha":1050,"x_min":86,"x_max":1035,"o":"m 351 957 l 233 115 l 622 115 l 592 0 l 86 0 l 221 957 l 351 957 m 564 -201 q 656 -149 622 -175 q 713 -79 690 -124 q 747 40 736 -35 l 844 732 l 971 732 l 874 40 q 827 -122 860 -61 q 742 -219 794 -182 q 600 -296 690 -257 l 564 -201 m 939 910 q 879 933 901 910 q 857 989 857 956 q 885 1056 857 1029 q 953 1083 913 1083 q 1013 1061 990 1083 q 1035 1004 1035 1039 q 1007 937 1035 964 q 939 910 979 910 z "},"Ł":{"ha":697,"x_min":31,"x_max":636,"o":"m 247 115 l 636 115 l 606 0 l 100 0 l 150 353 l 72 308 l 31 392 l 167 469 l 235 957 l 365 957 l 308 551 l 551 692 l 593 608 l 292 435 l 247 115 z "},"M":{"ha":1072,"x_min":35,"x_max":990,"o":"m 935 0 l 808 0 l 836 436 q 865 821 850 681 l 563 108 l 438 108 l 322 819 q 249 418 306 681 l 160 0 l 35 0 l 249 957 l 414 957 l 522 264 l 806 957 l 990 957 l 935 0 z "},"Ḿ":{"ha":1072,"x_min":35,"x_max":990,"o":"m 935 0 l 808 0 l 836 436 q 865 821 850 681 l 563 108 l 438 108 l 322 819 q 249 418 306 681 l 160 0 l 35 0 l 249 957 l 414 957 l 522 264 l 806 957 l 990 957 l 935 0 m 758 1261 l 800 1154 l 494 1049 l 468 1117 l 758 1261 z "},"Ṁ":{"ha":1072,"x_min":35,"x_max":990,"o":"m 935 0 l 808 0 l 836 436 q 865 821 850 681 l 563 108 l 438 108 l 322 819 q 249 418 306 681 l 160 0 l 35 0 l 249 957 l 414 957 l 522 264 l 806 957 l 990 957 l 935 0 m 638 1085 q 578 1108 600 1085 q 556 1164 556 1131 q 583 1231 556 1204 q 651 1258 611 1258 q 711 1236 689 1258 q 733 1179 733 1214 q 706 1112 733 1139 q 638 1085 678 1085 z "},"Ɯ":{"ha":1282,"x_min":106,"x_max":1228,"o":"m 1228 957 l 1093 0 l 981 0 l 985 103 q 873 13 931 42 q 751 -17 815 -17 q 630 20 678 -17 q 563 121 582 57 q 437 17 500 50 q 306 -17 374 -17 q 158 45 210 -17 q 106 208 106 107 q 110 267 106 236 l 207 957 l 338 957 l 239 261 q 235 211 235 235 q 260 122 235 153 q 333 92 285 92 q 442 122 394 92 q 550 225 489 153 l 554 267 l 651 957 l 783 957 l 685 261 q 681 211 681 235 q 706 122 681 153 q 779 92 731 92 q 887 122 839 92 q 994 224 935 151 l 1097 957 l 1228 957 z "},"N":{"ha":940,"x_min":86,"x_max":886,"o":"m 751 0 l 581 0 l 307 843 q 271 435 306 678 l 210 0 l 86 0 l 221 957 l 393 957 l 668 113 q 673 278 668 207 q 689 439 678 350 l 763 957 l 886 957 l 751 0 z "},"Ǌ":{"ha":1357,"x_min":86,"x_max":1310,"o":"m 751 0 l 581 0 l 307 843 q 271 435 306 678 l 210 0 l 86 0 l 221 957 l 393 957 l 668 113 q 673 278 668 207 q 689 439 678 350 l 763 957 l 886 957 l 751 0 m 1193 129 q 1103 -82 1174 -12 q 904 -192 1033 -151 l 878 -93 q 981 -38 944 -68 q 1037 34 1018 -8 q 1064 143 1056 76 l 1179 957 l 1310 957 l 1193 129 z "},"Ń":{"ha":940,"x_min":86,"x_max":886,"o":"m 751 0 l 581 0 l 307 843 q 271 435 306 678 l 210 0 l 86 0 l 221 957 l 393 957 l 668 113 q 673 278 668 207 q 689 439 678 350 l 763 957 l 886 957 l 751 0 m 718 1261 l 760 1154 l 454 1049 l 428 1117 l 718 1261 z "},"Ň":{"ha":940,"x_min":86,"x_max":886,"o":"m 751 0 l 581 0 l 307 843 q 271 435 306 678 l 210 0 l 86 0 l 221 957 l 393 957 l 668 113 q 673 278 668 207 q 689 439 678 350 l 763 957 l 886 957 l 751 0 m 781 1263 l 829 1200 l 624 1047 l 540 1047 l 374 1200 l 433 1263 l 590 1150 l 781 1263 z "},"Ṋ":{"ha":940,"x_min":86,"x_max":886,"o":"m 751 0 l 581 0 l 307 843 q 271 435 306 678 l 210 0 l 86 0 l 221 957 l 393 957 l 668 113 q 673 278 668 207 q 689 439 678 350 l 763 957 l 886 957 l 751 0 m 208 -314 l 157 -251 l 364 -94 l 447 -94 l 613 -251 l 551 -314 l 394 -197 l 208 -314 z "},"Ņ":{"ha":940,"x_min":86,"x_max":886,"o":"m 751 0 l 581 0 l 307 843 q 271 435 306 678 l 210 0 l 86 0 l 221 957 l 393 957 l 668 113 q 673 278 668 207 q 689 439 678 350 l 763 957 l 886 957 l 751 0 m 406 -107 q 458 -129 439 -107 q 478 -179 478 -151 q 467 -226 478 -203 q 428 -297 457 -250 l 356 -411 l 281 -411 l 347 -247 q 321 -189 321 -221 q 346 -131 321 -154 q 406 -107 371 -107 z "},"Ṅ":{"ha":940,"x_min":86,"x_max":886,"o":"m 751 0 l 581 0 l 307 843 q 271 435 306 678 l 210 0 l 86 0 l 221 957 l 393 957 l 668 113 q 673 278 668 207 q 689 439 678 350 l 763 957 l 886 957 l 751 0 m 597 1085 q 538 1108 560 1085 q 515 1164 515 1131 q 543 1231 515 1204 q 611 1258 571 1258 q 671 1236 649 1258 q 693 1179 693 1214 q 665 1112 693 1139 q 597 1085 638 1085 z "},"Ṇ":{"ha":940,"x_min":86,"x_max":886,"o":"m 751 0 l 581 0 l 307 843 q 271 435 306 678 l 210 0 l 86 0 l 221 957 l 393 957 l 668 113 q 673 278 668 207 q 689 439 678 350 l 763 957 l 886 957 l 751 0 m 403 -103 q 462 -126 439 -103 q 485 -182 485 -149 q 457 -249 485 -222 q 389 -276 429 -276 q 329 -254 351 -276 q 307 -197 307 -232 q 335 -130 307 -157 q 403 -103 363 -103 z "},"Ǹ":{"ha":940,"x_min":86,"x_max":886,"o":"m 751 0 l 581 0 l 307 843 q 271 435 306 678 l 210 0 l 86 0 l 221 957 l 393 957 l 668 113 q 673 278 668 207 q 689 439 678 350 l 763 957 l 886 957 l 751 0 m 500 1260 l 758 1115 l 718 1047 l 442 1153 l 500 1260 z "},"Ŋ":{"ha":940,"x_min":86,"x_max":886,"o":"m 886 957 l 751 0 l 740 -83 q 664 -243 725 -190 q 507 -296 603 -296 q 353 -240 419 -296 l 410 -160 q 454 -183 435 -176 q 504 -190 474 -190 q 610 -83 593 -190 l 621 0 l 581 0 l 307 843 q 271 435 306 678 l 210 0 l 86 0 l 221 957 l 393 957 l 668 113 q 673 278 668 207 q 689 439 678 350 l 763 957 l 886 957 z "},"Ɲ":{"ha":940,"x_min":-182,"x_max":886,"o":"m 886 957 l 751 0 l 581 0 l 307 843 q 271 435 306 678 l 210 0 l 199 -83 q 123 -242 183 -189 q -28 -296 63 -296 q -182 -240 -115 -296 l -125 -162 q -81 -186 -100 -179 q -31 -193 -61 -193 q 41 -166 14 -193 q 75 -83 68 -139 l 86 0 l 221 957 l 393 957 l 668 113 q 673 278 668 207 q 689 439 678 350 l 763 957 l 886 957 z "},"ǋ":{"ha":1328,"x_min":86,"x_max":1313,"o":"m 751 0 l 581 0 l 307 843 q 271 435 306 678 l 210 0 l 86 0 l 221 957 l 393 957 l 668 113 q 673 278 668 207 q 689 439 678 350 l 763 957 l 886 957 l 751 0 m 842 -201 q 934 -149 900 -175 q 991 -79 968 -124 q 1025 40 1014 -35 l 1122 732 l 1249 732 l 1151 40 q 1105 -122 1138 -61 q 1020 -219 1072 -182 q 878 -296 968 -257 l 842 -201 m 1217 910 q 1157 933 1179 910 q 1135 989 1135 956 q 1163 1056 1135 1029 q 1231 1083 1190 1083 q 1290 1061 1268 1083 q 1313 1004 1313 1039 q 1285 937 1313 964 q 1217 910 1257 910 z "},"Ƞ":{"ha":919,"x_min":86,"x_max":846,"o":"m 617 974 q 787 912 728 974 q 846 750 846 850 q 842 700 846 725 l 704 -281 l 574 -281 l 708 682 q 713 738 713 714 q 683 834 713 803 q 589 865 654 865 q 454 833 515 865 q 321 735 393 800 l 217 0 l 86 0 l 221 957 l 333 957 l 329 849 q 465 942 396 910 q 617 974 535 974 z "},"Ñ":{"ha":940,"x_min":86,"x_max":886,"o":"m 751 0 l 581 0 l 307 843 q 271 435 306 678 l 210 0 l 86 0 l 221 957 l 393 957 l 668 113 q 673 278 668 207 q 689 439 678 350 l 763 957 l 886 957 l 751 0 m 678 1086 q 623 1097 646 1086 q 575 1128 600 1108 q 547 1147 558 1140 q 524 1153 536 1153 q 478 1136 499 1153 q 436 1086 458 1119 l 364 1131 q 526 1250 438 1250 q 576 1240 557 1250 q 622 1210 596 1229 q 651 1190 640 1196 q 675 1183 663 1183 q 717 1199 697 1183 q 760 1247 738 1214 l 835 1203 q 760 1115 800 1144 q 678 1086 719 1086 z "},"O":{"ha":953,"x_min":85,"x_max":900,"o":"m 558 974 q 808 872 717 974 q 900 585 900 771 q 852 306 900 444 q 699 76 804 168 q 428 -17 593 -17 q 177 83 269 -17 q 85 368 85 183 q 133 644 85 506 q 287 878 181 783 q 558 974 393 974 m 553 865 q 358 786 432 865 q 252 592 283 707 q 221 364 221 478 q 432 92 221 92 q 628 172 554 92 q 733 366 703 251 q 764 594 764 481 q 553 865 764 865 z "},"Ȣ":{"ha":897,"x_min":64,"x_max":844,"o":"m 815 754 q 764 619 804 672 q 650 535 724 565 q 770 451 728 506 q 813 319 813 396 q 762 152 813 229 q 617 29 711 75 q 400 -17 524 -17 q 217 19 293 -17 q 103 115 142 54 q 64 253 64 176 q 126 427 64 353 q 296 538 188 501 q 192 710 192 590 q 196 763 192 736 l 224 957 l 354 957 l 326 761 q 321 711 321 725 q 475 585 321 585 q 624 636 572 585 q 686 769 675 688 l 713 957 l 844 957 l 815 754 m 404 92 q 603 151 532 92 q 675 315 675 211 q 624 435 675 393 q 469 476 574 476 q 272 417 344 476 q 200 256 200 358 q 404 92 200 92 z "},"Ó":{"ha":953,"x_min":85,"x_max":900,"o":"m 558 974 q 808 872 717 974 q 900 585 900 771 q 852 306 900 444 q 699 76 804 168 q 428 -17 593 -17 q 177 83 269 -17 q 85 368 85 183 q 133 644 85 506 q 287 878 181 783 q 558 974 393 974 m 553 865 q 358 786 432 865 q 252 592 283 707 q 221 364 221 478 q 432 92 221 92 q 628 172 554 92 q 733 366 703 251 q 764 594 764 481 q 553 865 764 865 m 714 1261 l 756 1154 l 450 1049 l 424 1117 l 714 1261 z "},"Ŏ":{"ha":953,"x_min":85,"x_max":900,"o":"m 558 974 q 808 872 717 974 q 900 585 900 771 q 852 306 900 444 q 699 76 804 168 q 428 -17 593 -17 q 177 83 269 -17 q 85 368 85 183 q 133 644 85 506 q 287 878 181 783 q 558 974 393 974 m 553 865 q 358 786 432 865 q 252 592 283 707 q 221 364 221 478 q 432 92 221 92 q 628 172 554 92 q 733 366 703 251 q 764 594 764 481 q 553 865 764 865 m 579 1053 q 442 1101 494 1053 q 393 1228 390 1150 l 475 1239 q 582 1150 494 1150 q 667 1176 631 1150 q 725 1244 704 1201 l 808 1219 q 726 1098 790 1143 q 579 1053 663 1053 z "},"Ǒ":{"ha":953,"x_min":85,"x_max":900,"o":"m 558 974 q 808 872 717 974 q 900 585 900 771 q 852 306 900 444 q 699 76 804 168 q 428 -17 593 -17 q 177 83 269 -17 q 85 368 85 183 q 133 644 85 506 q 287 878 181 783 q 558 974 393 974 m 553 865 q 358 786 432 865 q 252 592 283 707 q 221 364 221 478 q 432 92 221 92 q 628 172 554 92 q 733 366 703 251 q 764 594 764 481 q 553 865 764 865 m 776 1263 l 825 1200 l 619 1047 l 536 1047 l 369 1200 l 429 1263 l 586 1150 l 776 1263 z "},"Ɵ":{"ha":953,"x_min":85,"x_max":900,"o":"m 558 974 q 808 872 717 974 q 900 585 900 771 q 852 306 900 444 q 699 76 804 168 q 428 -17 593 -17 q 177 83 269 -17 q 85 368 85 183 q 133 644 85 506 q 287 878 181 783 q 558 974 393 974 m 553 865 q 342 772 419 865 q 235 536 265 678 l 767 536 q 768 594 768 557 q 713 800 768 735 q 553 865 658 865 m 432 92 q 649 191 571 92 q 754 439 726 290 l 219 439 q 217 364 217 386 q 432 92 217 92 z "},"Ô":{"ha":953,"x_min":85,"x_max":900,"o":"m 558 974 q 808 872 717 974 q 900 585 900 771 q 852 306 900 444 q 699 76 804 168 q 428 -17 593 -17 q 177 83 269 -17 q 85 368 85 183 q 133 644 85 506 q 287 878 181 783 q 558 974 393 974 m 553 865 q 358 786 432 865 q 252 592 283 707 q 221 364 221 478 q 432 92 221 92 q 628 172 554 92 q 733 366 703 251 q 764 594 764 481 q 553 865 764 865 m 406 1054 l 354 1117 l 561 1269 l 644 1269 l 810 1117 l 753 1054 l 593 1167 l 406 1054 z "},"Ố":{"ha":953,"x_min":85,"x_max":974,"o":"m 903 1415 l 974 1340 l 765 1165 l 715 1214 l 903 1415 m 397 994 l 346 1057 l 553 1210 l 636 1210 l 801 1057 l 744 994 l 585 1107 l 397 994 m 558 974 q 808 872 717 974 q 900 585 900 771 q 852 306 900 444 q 699 76 804 168 q 428 -17 593 -17 q 177 83 269 -17 q 85 368 85 183 q 133 644 85 506 q 287 878 181 783 q 558 974 393 974 m 553 865 q 358 786 432 865 q 252 592 283 707 q 221 364 221 478 q 432 92 221 92 q 628 172 554 92 q 733 366 703 251 q 764 594 764 481 q 553 865 764 865 z "},"Ộ":{"ha":953,"x_min":85,"x_max":900,"o":"m 558 974 q 808 872 717 974 q 900 585 900 771 q 852 306 900 444 q 699 76 804 168 q 428 -17 593 -17 q 177 83 269 -17 q 85 368 85 183 q 133 644 85 506 q 287 878 181 783 q 558 974 393 974 m 553 865 q 358 786 432 865 q 252 592 283 707 q 221 364 221 478 q 432 92 221 92 q 628 172 554 92 q 733 366 703 251 q 764 594 764 481 q 553 865 764 865 m 406 1054 l 354 1117 l 561 1269 l 644 1269 l 810 1117 l 753 1054 l 593 1167 l 406 1054 m 403 -103 q 462 -126 439 -103 q 485 -182 485 -149 q 457 -249 485 -222 q 389 -276 429 -276 q 329 -254 351 -276 q 307 -197 307 -232 q 335 -130 307 -157 q 403 -103 363 -103 z "},"Ồ":{"ha":953,"x_min":85,"x_max":900,"o":"m 325 1413 l 460 1208 l 407 1165 l 243 1342 l 325 1413 m 393 994 l 342 1057 l 549 1210 l 632 1210 l 797 1057 l 740 994 l 581 1107 l 393 994 m 558 974 q 808 872 717 974 q 900 585 900 771 q 852 306 900 444 q 699 76 804 168 q 428 -17 593 -17 q 177 83 269 -17 q 85 368 85 183 q 133 644 85 506 q 287 878 181 783 q 558 974 393 974 m 553 865 q 358 786 432 865 q 252 592 283 707 q 221 364 221 478 q 432 92 221 92 q 628 172 554 92 q 733 366 703 251 q 764 594 764 481 q 553 865 764 865 z "},"Ổ":{"ha":953,"x_min":85,"x_max":972,"o":"m 558 974 q 808 872 717 974 q 900 585 900 771 q 852 306 900 444 q 699 76 804 168 q 428 -17 593 -17 q 177 83 269 -17 q 85 368 85 183 q 133 644 85 506 q 287 878 181 783 q 558 974 393 974 m 553 865 q 358 786 432 865 q 252 592 283 707 q 221 364 221 478 q 432 92 221 92 q 628 172 554 92 q 733 366 703 251 q 764 594 764 481 q 553 865 764 865 m 394 994 l 343 1057 l 550 1210 l 633 1210 l 799 1057 l 742 994 l 582 1107 l 394 994 m 753 1251 q 835 1273 807 1258 q 864 1322 864 1288 q 814 1361 864 1361 q 731 1339 771 1361 l 706 1415 q 836 1447 765 1447 q 936 1414 900 1447 q 972 1326 972 1381 q 939 1241 972 1271 q 844 1201 906 1211 l 835 1135 l 740 1135 l 753 1251 z "},"Ỗ":{"ha":953,"x_min":85,"x_max":900,"o":"m 694 1250 q 640 1261 663 1250 q 592 1292 617 1272 q 564 1310 575 1304 q 540 1317 553 1317 q 495 1300 515 1317 q 453 1250 475 1283 l 381 1294 q 543 1414 454 1414 q 593 1403 574 1414 q 639 1374 613 1393 q 668 1353 657 1360 q 692 1347 679 1347 q 734 1363 714 1347 q 776 1411 754 1378 l 851 1367 q 776 1279 817 1308 q 694 1250 736 1250 m 394 994 l 343 1057 l 550 1210 l 633 1210 l 799 1057 l 742 994 l 582 1107 l 394 994 m 558 974 q 808 872 717 974 q 900 585 900 771 q 852 306 900 444 q 699 76 804 168 q 428 -17 593 -17 q 177 83 269 -17 q 85 368 85 183 q 133 644 85 506 q 287 878 181 783 q 558 974 393 974 m 553 865 q 358 786 432 865 q 252 592 283 707 q 221 364 221 478 q 432 92 221 92 q 628 172 554 92 q 733 366 703 251 q 764 594 764 481 q 553 865 764 865 z "},"Ȍ":{"ha":953,"x_min":85,"x_max":900,"o":"m 558 974 q 808 872 717 974 q 900 585 900 771 q 852 306 900 444 q 699 76 804 168 q 428 -17 593 -17 q 177 83 269 -17 q 85 368 85 183 q 133 644 85 506 q 287 878 181 783 q 558 974 393 974 m 553 865 q 358 786 432 865 q 252 592 283 707 q 221 364 221 478 q 432 92 221 92 q 628 172 554 92 q 733 366 703 251 q 764 594 764 481 q 553 865 764 865 m 449 1331 l 533 1090 l 451 1056 l 335 1274 l 449 1331 m 657 1331 l 729 1097 l 647 1063 l 543 1274 l 657 1331 z "},"Ö":{"ha":953,"x_min":85,"x_max":900,"o":"m 558 974 q 808 872 717 974 q 900 585 900 771 q 852 306 900 444 q 699 76 804 168 q 428 -17 593 -17 q 177 83 269 -17 q 85 368 85 183 q 133 644 85 506 q 287 878 181 783 q 558 974 393 974 m 553 865 q 358 786 432 865 q 252 592 283 707 q 221 364 221 478 q 432 92 221 92 q 628 172 554 92 q 733 366 703 251 q 764 594 764 481 q 553 865 764 865 m 446 1083 q 393 1103 414 1083 q 372 1154 372 1124 q 397 1216 372 1192 q 460 1240 422 1240 q 513 1220 492 1240 q 533 1169 533 1200 q 508 1108 533 1132 q 446 1083 483 1083 m 735 1083 q 682 1103 703 1083 q 661 1154 661 1124 q 686 1216 661 1192 q 749 1240 711 1240 q 801 1220 781 1240 q 822 1169 822 1200 q 797 1108 822 1132 q 735 1083 772 1083 z "},"Ȫ":{"ha":953,"x_min":85,"x_max":900,"o":"m 558 974 q 808 872 717 974 q 900 585 900 771 q 852 306 900 444 q 699 76 804 168 q 428 -17 593 -17 q 177 83 269 -17 q 85 368 85 183 q 133 644 85 506 q 287 878 181 783 q 558 974 393 974 m 553 865 q 358 786 432 865 q 252 592 283 707 q 221 364 221 478 q 432 92 221 92 q 628 172 554 92 q 733 366 703 251 q 764 594 764 481 q 553 865 764 865 m 426 1036 q 374 1056 394 1036 q 353 1107 353 1076 q 378 1169 353 1144 q 440 1193 403 1193 q 493 1173 472 1193 q 514 1122 514 1153 q 489 1060 514 1085 q 426 1036 464 1036 m 715 1036 q 663 1056 683 1036 q 642 1107 642 1076 q 667 1169 642 1144 q 729 1193 692 1193 q 782 1173 761 1193 q 803 1122 803 1153 q 778 1060 803 1085 q 715 1036 753 1036 m 782 1254 l 406 1254 l 418 1350 l 794 1350 l 782 1254 z "},"Ȯ":{"ha":953,"x_min":85,"x_max":900,"o":"m 558 974 q 808 872 717 974 q 900 585 900 771 q 852 306 900 444 q 699 76 804 168 q 428 -17 593 -17 q 177 83 269 -17 q 85 368 85 183 q 133 644 85 506 q 287 878 181 783 q 558 974 393 974 m 553 865 q 358 786 432 865 q 252 592 283 707 q 221 364 221 478 q 432 92 221 92 q 628 172 554 92 q 733 366 703 251 q 764 594 764 481 q 553 865 764 865 m 593 1085 q 533 1108 556 1085 q 511 1164 511 1131 q 539 1231 511 1204 q 607 1258 567 1258 q 667 1236 644 1258 q 689 1179 689 1214 q 661 1112 689 1139 q 593 1085 633 1085 z "},"Ȱ":{"ha":953,"x_min":85,"x_max":900,"o":"m 558 974 q 808 872 717 974 q 900 585 900 771 q 852 306 900 444 q 699 76 804 168 q 428 -17 593 -17 q 177 83 269 -17 q 85 368 85 183 q 133 644 85 506 q 287 878 181 783 q 558 974 393 974 m 553 865 q 358 786 432 865 q 252 592 283 707 q 221 364 221 478 q 432 92 221 92 q 628 172 554 92 q 733 366 703 251 q 764 594 764 481 q 553 865 764 865 m 575 1029 q 515 1052 538 1029 q 493 1108 493 1075 q 521 1176 493 1149 q 589 1203 549 1203 q 649 1181 626 1203 q 671 1124 671 1158 q 643 1056 671 1083 q 575 1029 615 1029 m 785 1256 l 408 1256 l 421 1351 l 797 1351 l 785 1256 z "},"Ọ":{"ha":953,"x_min":85,"x_max":900,"o":"m 558 974 q 808 872 717 974 q 900 585 900 771 q 852 306 900 444 q 699 76 804 168 q 428 -17 593 -17 q 177 83 269 -17 q 85 368 85 183 q 133 644 85 506 q 287 878 181 783 q 558 974 393 974 m 553 865 q 358 786 432 865 q 252 592 283 707 q 221 364 221 478 q 432 92 221 92 q 628 172 554 92 q 733 366 703 251 q 764 594 764 481 q 553 865 764 865 m 403 -103 q 462 -126 439 -103 q 485 -182 485 -149 q 457 -249 485 -222 q 389 -276 429 -276 q 329 -254 351 -276 q 307 -197 307 -232 q 335 -130 307 -157 q 403 -103 363 -103 z "},"Ò":{"ha":953,"x_min":85,"x_max":900,"o":"m 558 974 q 808 872 717 974 q 900 585 900 771 q 852 306 900 444 q 699 76 804 168 q 428 -17 593 -17 q 177 83 269 -17 q 85 368 85 183 q 133 644 85 506 q 287 878 181 783 q 558 974 393 974 m 553 865 q 358 786 432 865 q 252 592 283 707 q 221 364 221 478 q 432 92 221 92 q 628 172 554 92 q 733 366 703 251 q 764 594 764 481 q 553 865 764 865 m 496 1260 l 754 1115 l 714 1047 l 438 1153 l 496 1260 z "},"Ỏ":{"ha":953,"x_min":85,"x_max":900,"o":"m 558 974 q 808 872 717 974 q 900 585 900 771 q 852 306 900 444 q 699 76 804 168 q 428 -17 593 -17 q 177 83 269 -17 q 85 368 85 183 q 133 644 85 506 q 287 878 181 783 q 558 974 393 974 m 553 865 q 358 786 432 865 q 252 592 283 707 q 221 364 221 478 q 432 92 221 92 q 628 172 554 92 q 733 366 703 251 q 764 594 764 481 q 553 865 764 865 m 546 1176 q 628 1198 600 1183 q 657 1247 657 1213 q 607 1286 657 1286 q 524 1264 564 1286 l 499 1340 q 629 1372 558 1372 q 729 1339 693 1372 q 765 1251 765 1306 q 732 1166 765 1196 q 638 1126 699 1136 l 628 1060 l 533 1060 l 546 1176 z "},"Ơ":{"ha":961,"x_min":85,"x_max":992,"o":"m 992 993 q 955 876 992 921 q 849 815 918 831 q 900 585 900 724 q 852 306 900 444 q 699 76 804 168 q 428 -17 593 -17 q 177 83 269 -17 q 85 368 85 183 q 133 644 85 506 q 287 878 181 783 q 558 974 393 974 q 794 888 706 974 q 888 996 888 896 q 879 1056 888 1019 l 979 1071 q 992 993 992 1036 m 432 92 q 628 172 554 92 q 733 366 703 251 q 764 594 764 481 q 553 865 764 865 q 358 786 432 865 q 252 592 283 707 q 221 364 221 478 q 432 92 221 92 z "},"Ớ":{"ha":961,"x_min":85,"x_max":992,"o":"m 756 1154 l 450 1049 l 424 1117 l 714 1261 l 756 1154 m 992 993 q 955 876 992 921 q 849 815 918 831 q 900 585 900 724 q 852 306 900 444 q 699 76 804 168 q 428 -17 593 -17 q 177 83 269 -17 q 85 368 85 183 q 133 644 85 506 q 287 878 181 783 q 558 974 393 974 q 794 888 706 974 q 888 996 888 896 q 879 1056 888 1019 l 979 1071 q 992 993 992 1036 m 432 92 q 628 172 554 92 q 733 366 703 251 q 764 594 764 481 q 553 865 764 865 q 358 786 432 865 q 252 592 283 707 q 221 364 221 478 q 432 92 221 92 z "},"Ợ":{"ha":961,"x_min":85,"x_max":992,"o":"m 992 993 q 955 876 992 921 q 849 815 918 831 q 900 585 900 724 q 852 306 900 444 q 699 76 804 168 q 428 -17 593 -17 q 177 83 269 -17 q 85 368 85 183 q 133 644 85 506 q 287 878 181 783 q 558 974 393 974 q 794 888 706 974 q 888 996 888 896 q 879 1056 888 1019 l 979 1071 q 992 993 992 1036 m 432 92 q 628 172 554 92 q 733 366 703 251 q 764 594 764 481 q 553 865 764 865 q 358 786 432 865 q 252 592 283 707 q 221 364 221 478 q 432 92 221 92 m 403 -103 q 463 -126 440 -103 q 485 -182 485 -149 q 457 -249 485 -222 q 389 -276 429 -276 q 330 -254 353 -276 q 307 -197 307 -232 q 335 -130 307 -157 q 403 -103 363 -103 z "},"Ờ":{"ha":961,"x_min":85,"x_max":992,"o":"m 754 1115 l 714 1047 l 438 1153 l 496 1260 l 754 1115 m 992 993 q 955 876 992 921 q 849 815 918 831 q 900 585 900 724 q 852 306 900 444 q 699 76 804 168 q 428 -17 593 -17 q 177 83 269 -17 q 85 368 85 183 q 133 644 85 506 q 287 878 181 783 q 558 974 393 974 q 794 888 706 974 q 888 996 888 896 q 879 1056 888 1019 l 979 1071 q 992 993 992 1036 m 432 92 q 628 172 554 92 q 733 366 703 251 q 764 594 764 481 q 553 865 764 865 q 358 786 432 865 q 252 592 283 707 q 221 364 221 478 q 432 92 221 92 z "},"Ở":{"ha":961,"x_min":85,"x_max":992,"o":"m 607 1286 q 524 1264 564 1286 l 499 1340 q 629 1372 558 1372 q 729 1339 693 1372 q 765 1251 765 1306 q 732 1166 765 1196 q 638 1126 699 1136 l 628 1060 l 533 1060 l 546 1176 q 628 1198 600 1183 q 657 1247 657 1213 q 607 1286 657 1286 m 992 993 q 955 876 992 921 q 849 815 918 831 q 900 585 900 724 q 852 306 900 444 q 699 76 804 168 q 428 -17 593 -17 q 177 83 269 -17 q 85 368 85 183 q 133 644 85 506 q 287 878 181 783 q 558 974 393 974 q 794 888 706 974 q 888 996 888 896 q 879 1056 888 1019 l 979 1071 q 992 993 992 1036 m 432 92 q 628 172 554 92 q 733 366 703 251 q 764 594 764 481 q 553 865 764 865 q 358 786 432 865 q 252 592 283 707 q 221 364 221 478 q 432 92 221 92 z "},"Ỡ":{"ha":961,"x_min":85,"x_max":992,"o":"m 519 1153 q 474 1136 494 1153 q 432 1086 454 1119 l 360 1131 q 522 1250 433 1250 q 572 1240 553 1250 q 618 1210 592 1229 q 647 1190 636 1196 q 671 1183 658 1183 q 713 1199 693 1183 q 756 1247 733 1214 l 831 1203 q 756 1115 796 1144 q 674 1086 715 1086 q 619 1097 642 1086 q 571 1128 596 1108 q 543 1147 554 1140 q 519 1153 532 1153 m 992 993 q 955 876 992 921 q 849 815 918 831 q 900 585 900 724 q 852 306 900 444 q 699 76 804 168 q 428 -17 593 -17 q 177 83 269 -17 q 85 368 85 183 q 133 644 85 506 q 287 878 181 783 q 558 974 393 974 q 794 888 706 974 q 888 996 888 896 q 879 1056 888 1019 l 979 1071 q 992 993 992 1036 m 432 92 q 628 172 554 92 q 733 366 703 251 q 764 594 764 481 q 553 865 764 865 q 358 786 432 865 q 252 592 283 707 q 221 364 221 478 q 432 92 221 92 z "},"Ő":{"ha":953,"x_min":85,"x_max":900,"o":"m 558 974 q 808 872 717 974 q 900 585 900 771 q 852 306 900 444 q 699 76 804 168 q 428 -17 593 -17 q 177 83 269 -17 q 85 368 85 183 q 133 644 85 506 q 287 878 181 783 q 558 974 393 974 m 553 865 q 358 786 432 865 q 252 592 283 707 q 221 364 221 478 q 432 92 221 92 q 628 172 554 92 q 733 366 703 251 q 764 594 764 481 q 553 865 764 865 m 571 1331 l 671 1274 l 511 1063 l 433 1097 l 571 1331 m 779 1331 l 881 1274 l 706 1056 l 629 1090 l 779 1331 z "},"Ƣ":{"ha":1274,"x_min":85,"x_max":1193,"o":"m 993 976 q 1143 929 1093 976 q 1193 796 1193 882 q 1190 750 1193 767 l 1046 -281 l 915 -281 l 1061 754 q 1064 792 1064 782 q 1044 853 1064 833 q 981 874 1025 874 q 838 833 907 874 q 900 585 900 736 q 852 306 900 444 q 699 76 804 168 q 428 -17 593 -17 q 177 83 269 -17 q 85 368 85 183 q 133 644 85 506 q 287 878 181 783 q 558 974 393 974 q 775 904 689 974 q 993 976 882 976 m 432 92 q 628 172 554 92 q 733 366 703 251 q 764 594 764 481 q 553 865 764 865 q 358 786 432 865 q 252 592 283 707 q 221 364 221 478 q 432 92 221 92 z "},"Ȏ":{"ha":953,"x_min":85,"x_max":900,"o":"m 558 974 q 808 872 717 974 q 900 585 900 771 q 852 306 900 444 q 699 76 804 168 q 428 -17 593 -17 q 177 83 269 -17 q 85 368 85 183 q 133 644 85 506 q 287 878 181 783 q 558 974 393 974 m 553 865 q 358 786 432 865 q 252 592 283 707 q 221 364 221 478 q 432 92 221 92 q 628 172 554 92 q 733 366 703 251 q 764 594 764 481 q 553 865 764 865 m 374 1100 q 458 1233 394 1186 q 606 1281 521 1281 q 744 1229 692 1281 q 793 1092 796 1178 l 708 1081 q 600 1183 694 1183 q 457 1075 503 1183 l 374 1100 z "},"Ō":{"ha":953,"x_min":85,"x_max":900,"o":"m 558 974 q 808 872 717 974 q 900 585 900 771 q 852 306 900 444 q 699 76 804 168 q 428 -17 593 -17 q 177 83 269 -17 q 85 368 85 183 q 133 644 85 506 q 287 878 181 783 q 558 974 393 974 m 553 865 q 358 786 432 865 q 252 592 283 707 q 221 364 221 478 q 432 92 221 92 q 628 172 554 92 q 733 366 703 251 q 764 594 764 481 q 553 865 764 865 m 776 1101 l 400 1101 l 413 1197 l 789 1197 l 776 1101 z "},"Ṓ":{"ha":953,"x_min":85,"x_max":900,"o":"m 558 974 q 808 872 717 974 q 900 585 900 771 q 852 306 900 444 q 699 76 804 168 q 428 -17 593 -17 q 177 83 269 -17 q 85 368 85 183 q 133 644 85 506 q 287 878 181 783 q 558 974 393 974 m 553 865 q 358 786 432 865 q 252 592 283 707 q 221 364 221 478 q 432 92 221 92 q 628 172 554 92 q 733 366 703 251 q 764 594 764 481 q 553 865 764 865 m 769 1054 l 393 1054 l 406 1150 l 782 1150 l 769 1054 m 726 1426 l 768 1319 l 463 1214 l 436 1282 l 726 1426 z "},"Ṑ":{"ha":953,"x_min":85,"x_max":900,"o":"m 558 974 q 808 872 717 974 q 900 585 900 771 q 852 306 900 444 q 699 76 804 168 q 428 -17 593 -17 q 177 83 269 -17 q 85 368 85 183 q 133 644 85 506 q 287 878 181 783 q 558 974 393 974 m 553 865 q 358 786 432 865 q 252 592 283 707 q 221 364 221 478 q 432 92 221 92 q 628 172 554 92 q 733 366 703 251 q 764 594 764 481 q 553 865 764 865 m 769 1054 l 393 1054 l 406 1150 l 782 1150 l 769 1054 m 514 1425 l 772 1281 l 732 1213 l 456 1318 l 514 1425 z "},"Ꞷ":{"ha":1164,"x_min":86,"x_max":1097,"o":"m 322 -17 q 86 279 86 -17 q 139 624 86 443 q 278 957 192 804 l 406 957 q 266 616 319 807 q 213 271 213 425 q 242 132 213 172 q 336 92 271 92 q 497 256 475 92 l 539 553 l 667 553 l 624 247 q 621 204 621 232 q 733 90 621 90 q 917 253 865 90 q 969 632 969 415 q 959 800 969 725 q 928 957 949 875 l 1051 957 q 1097 628 1097 801 q 1014 167 1097 350 q 736 -17 931 -17 q 547 146 568 -17 q 459 24 513 64 q 322 -17 406 -17 z "},"Ǫ":{"ha":953,"x_min":85,"x_max":900,"o":"m 547 -1 q 393 -92 432 -50 q 354 -175 354 -135 q 372 -211 354 -199 q 419 -224 389 -224 q 507 -212 454 -224 l 486 -312 q 401 -321 444 -321 q 285 -284 328 -321 q 243 -190 243 -247 q 371 -12 243 -82 q 160 103 236 4 q 85 368 85 201 q 133 644 85 506 q 287 878 181 783 q 558 974 393 974 q 808 872 717 974 q 900 585 900 771 q 864 341 900 463 q 749 125 828 219 q 547 -1 669 31 m 221 364 q 432 92 221 92 q 628 172 554 92 q 733 366 703 251 q 764 594 764 481 q 553 865 764 865 q 358 786 432 865 q 252 592 283 707 q 221 364 221 478 z "},"Ǭ":{"ha":953,"x_min":85,"x_max":900,"o":"m 789 1197 l 776 1101 l 400 1101 l 413 1197 l 789 1197 m 547 -1 q 393 -92 432 -50 q 354 -175 354 -135 q 372 -211 354 -199 q 419 -224 389 -224 q 507 -212 454 -224 l 486 -312 q 401 -321 444 -321 q 285 -284 328 -321 q 243 -190 243 -247 q 371 -12 243 -82 q 160 103 236 4 q 85 368 85 201 q 133 644 85 506 q 287 878 181 783 q 558 974 393 974 q 808 872 717 974 q 900 585 900 771 q 864 341 900 463 q 749 125 828 219 q 547 -1 669 31 m 221 364 q 432 92 221 92 q 628 172 554 92 q 733 366 703 251 q 764 594 764 481 q 553 865 764 865 q 358 786 432 865 q 252 592 283 707 q 221 364 221 478 z "},"Ɔ":{"ha":769,"x_min":-14,"x_max":715,"o":"m 393 974 q 628 873 542 974 q 715 588 715 772 q 660 288 715 426 q 498 67 604 150 q 247 -17 392 -17 q 97 13 158 -17 q -14 93 36 43 l 58 171 q 147 114 106 133 q 247 94 189 94 q 433 167 358 94 q 544 353 508 240 q 579 588 579 467 q 526 799 579 733 q 382 865 474 865 q 274 848 326 865 q 167 793 222 831 l 106 882 q 239 951 172 929 q 393 974 306 974 z "},"Ø":{"ha":953,"x_min":85,"x_max":900,"o":"m 749 924 q 861 791 822 876 q 900 585 900 706 q 852 306 900 444 q 699 76 804 168 q 428 -17 593 -17 q 335 -7 375 -17 l 261 -176 l 154 -147 l 235 35 q 124 165 163 81 q 85 368 85 250 q 133 644 85 506 q 287 878 181 783 q 558 974 393 974 q 649 964 610 974 l 725 1138 l 832 1108 l 749 924 m 553 865 q 358 785 432 865 q 252 589 283 706 q 221 354 221 472 q 293 133 221 194 l 614 860 q 553 865 588 865 m 432 92 q 628 172 554 92 q 733 370 703 253 q 764 608 764 488 q 689 826 764 768 l 369 97 q 432 92 396 92 z "},"Ǿ":{"ha":953,"x_min":85,"x_max":900,"o":"m 749 924 q 861 791 822 876 q 900 585 900 706 q 852 306 900 444 q 699 76 804 168 q 428 -17 593 -17 q 335 -7 375 -17 l 261 -176 l 154 -147 l 235 35 q 124 165 163 81 q 85 368 85 250 q 133 644 85 506 q 287 878 181 783 q 558 974 393 974 q 649 964 610 974 l 725 1138 l 832 1108 l 749 924 m 553 865 q 358 785 432 865 q 252 589 283 706 q 221 354 221 472 q 293 133 221 194 l 614 860 q 553 865 588 865 m 432 92 q 628 172 554 92 q 733 370 703 253 q 764 608 764 488 q 689 826 764 768 l 369 97 q 432 92 396 92 m 707 1282 l 749 1175 l 443 1069 l 417 1138 l 707 1282 z "},"Õ":{"ha":953,"x_min":85,"x_max":900,"o":"m 558 974 q 808 872 717 974 q 900 585 900 771 q 852 306 900 444 q 699 76 804 168 q 428 -17 593 -17 q 177 83 269 -17 q 85 368 85 183 q 133 644 85 506 q 287 878 181 783 q 558 974 393 974 m 553 865 q 358 786 432 865 q 252 592 283 707 q 221 364 221 478 q 432 92 221 92 q 628 172 554 92 q 733 366 703 251 q 764 594 764 481 q 553 865 764 865 m 674 1086 q 619 1097 642 1086 q 571 1128 596 1108 q 543 1147 554 1140 q 519 1153 532 1153 q 474 1136 494 1153 q 432 1086 454 1119 l 360 1131 q 522 1250 433 1250 q 572 1240 553 1250 q 618 1210 592 1229 q 647 1190 636 1196 q 671 1183 658 1183 q 713 1199 693 1183 q 756 1247 733 1214 l 831 1203 q 756 1115 796 1144 q 674 1086 715 1086 z "},"Ṍ":{"ha":953,"x_min":85,"x_max":900,"o":"m 558 974 q 808 872 717 974 q 900 585 900 771 q 852 306 900 444 q 699 76 804 168 q 428 -17 593 -17 q 177 83 269 -17 q 85 368 85 183 q 133 644 85 506 q 287 878 181 783 q 558 974 393 974 m 553 865 q 358 786 432 865 q 252 592 283 707 q 221 364 221 478 q 432 92 221 92 q 628 172 554 92 q 733 366 703 251 q 764 594 764 481 q 553 865 764 865 m 675 1053 q 620 1064 643 1053 q 572 1094 597 1075 q 544 1113 556 1107 q 521 1119 533 1119 q 476 1103 496 1119 q 433 1053 456 1086 l 361 1097 q 524 1217 435 1217 q 574 1206 554 1217 q 619 1176 593 1196 q 649 1156 638 1163 q 672 1150 660 1150 q 715 1165 694 1150 q 757 1214 735 1181 l 832 1169 q 757 1082 797 1111 q 675 1053 717 1053 m 739 1465 l 781 1358 l 475 1253 l 449 1321 l 739 1465 z "},"Ȭ":{"ha":953,"x_min":85,"x_max":900,"o":"m 788 1265 l 411 1265 l 424 1361 l 800 1361 l 788 1265 m 663 1053 q 608 1064 631 1053 q 560 1094 585 1075 q 532 1113 543 1107 q 508 1119 521 1119 q 463 1103 483 1119 q 421 1053 443 1086 l 349 1097 q 511 1217 422 1217 q 561 1206 542 1217 q 607 1176 581 1196 q 636 1156 625 1163 q 660 1150 647 1150 q 702 1165 682 1150 q 744 1214 722 1181 l 819 1169 q 744 1082 785 1111 q 663 1053 704 1053 m 558 974 q 808 872 717 974 q 900 585 900 771 q 852 306 900 444 q 699 76 804 168 q 428 -17 593 -17 q 177 83 269 -17 q 85 368 85 183 q 133 644 85 506 q 287 878 181 783 q 558 974 393 974 m 553 865 q 358 786 432 865 q 252 592 283 707 q 221 364 221 478 q 432 92 221 92 q 628 172 554 92 q 733 366 703 251 q 764 594 764 481 q 553 865 764 865 z "},"Œ":{"ha":1233,"x_min":85,"x_max":1232,"o":"m 1203 851 l 785 851 q 871 578 871 757 q 869 539 871 553 l 1110 539 l 1096 433 l 857 433 q 797 253 839 338 q 685 106 754 168 l 1124 106 l 1108 0 l 515 0 q 410 -17 464 -17 q 239 28 313 -17 q 125 158 165 72 q 85 367 85 244 q 133 642 85 501 q 283 878 181 782 q 538 974 385 974 q 646 956 597 974 l 643 957 l 1232 957 l 1203 851 m 418 92 q 604 173 533 92 q 706 373 675 254 q 736 610 736 492 q 685 803 736 740 q 539 865 633 865 q 354 783 425 865 q 252 583 283 701 q 221 354 221 465 q 273 155 221 218 q 418 92 325 92 z "},"P":{"ha":799,"x_min":86,"x_max":800,"o":"m 467 957 q 713 894 626 957 q 800 704 800 831 q 759 529 800 608 q 626 401 718 450 q 389 351 533 351 l 265 351 l 217 0 l 86 0 l 221 957 l 467 957 m 392 456 q 601 526 540 456 q 661 704 661 596 q 609 819 661 785 q 457 854 557 854 l 336 854 l 281 456 l 392 456 z "},"Ṕ":{"ha":799,"x_min":86,"x_max":800,"o":"m 467 957 q 713 894 626 957 q 800 704 800 831 q 759 529 800 608 q 626 401 718 450 q 389 351 533 351 l 265 351 l 217 0 l 86 0 l 221 957 l 467 957 m 392 456 q 601 526 540 456 q 661 704 661 596 q 609 819 661 785 q 457 854 557 854 l 336 854 l 281 456 l 392 456 m 632 1261 l 674 1154 l 368 1049 l 342 1117 l 632 1261 z "},"Ṗ":{"ha":799,"x_min":86,"x_max":800,"o":"m 467 957 q 713 894 626 957 q 800 704 800 831 q 759 529 800 608 q 626 401 718 450 q 389 351 533 351 l 265 351 l 217 0 l 86 0 l 221 957 l 467 957 m 392 456 q 601 526 540 456 q 661 704 661 596 q 609 819 661 785 q 457 854 557 854 l 336 854 l 281 456 l 392 456 m 511 1085 q 451 1108 474 1085 q 429 1164 429 1131 q 457 1231 429 1204 q 525 1258 485 1258 q 585 1236 563 1258 q 607 1179 607 1214 q 579 1112 607 1139 q 511 1085 551 1085 z "},"Ƥ":{"ha":911,"x_min":72,"x_max":913,"o":"m 579 957 q 826 894 739 957 q 913 704 913 831 q 872 529 913 608 q 738 401 831 450 q 501 351 646 351 l 378 351 l 329 0 l 199 0 l 318 853 l 282 853 q 193 754 193 853 q 207 683 193 725 l 108 640 q 72 764 72 704 q 132 904 72 851 q 299 957 192 957 l 579 957 m 504 456 q 713 526 653 456 q 774 704 774 596 q 722 819 774 785 q 569 854 669 854 l 449 854 l 393 456 l 504 456 z "},"Þ":{"ha":799,"x_min":86,"x_max":776,"o":"m 443 793 q 690 729 603 793 q 776 535 776 665 q 737 362 776 443 q 605 228 697 281 q 364 176 513 176 l 242 176 l 217 0 l 86 0 l 221 957 l 351 957 l 328 793 l 443 793 m 367 281 q 575 353 513 281 q 638 535 638 425 q 586 655 638 619 q 435 690 535 690 l 314 690 l 256 281 l 367 281 z "},"Q":{"ha":949,"x_min":85,"x_max":900,"o":"m 900 585 q 872 373 900 479 q 783 180 844 267 q 628 51 722 93 q 755 26 699 50 q 864 -36 811 3 l 767 -143 q 674 -66 719 -93 q 572 -28 629 -39 q 428 -17 515 -17 q 177 83 269 -17 q 85 368 85 183 q 133 644 85 506 q 287 878 181 783 q 558 974 393 974 q 808 872 717 974 q 900 585 900 771 m 221 354 q 276 155 221 218 q 432 92 332 92 q 628 172 554 92 q 733 370 703 253 q 764 608 764 488 q 710 802 764 739 q 553 865 656 865 q 358 785 432 865 q 252 589 283 706 q 221 354 221 472 z "},"Ɋ":{"ha":924,"x_min":82,"x_max":933,"o":"m 933 -246 q 772 -296 863 -296 q 635 -251 685 -296 q 586 -122 586 -207 q 589 -76 586 -93 l 600 0 l 610 71 q 393 -17 521 -17 q 167 79 253 -17 q 82 353 82 175 q 137 649 82 506 q 292 883 192 792 q 525 974 393 974 q 728 885 649 974 l 750 957 l 865 957 l 731 0 l 718 -92 q 715 -121 715 -114 q 783 -190 715 -190 q 838 -183 815 -190 q 890 -158 861 -175 l 933 -246 m 411 92 q 524 113 472 92 q 625 179 575 135 l 710 786 q 631 845 674 825 q 529 865 588 865 q 358 786 429 865 q 253 587 288 707 q 218 346 218 467 q 411 92 218 92 z "},"R":{"ha":832,"x_min":86,"x_max":794,"o":"m 794 719 q 737 542 794 622 q 553 425 679 461 l 746 0 l 601 0 l 425 406 l 274 406 l 217 0 l 86 0 l 221 957 l 467 957 q 794 719 794 957 m 288 507 l 428 507 q 603 569 550 507 q 657 718 657 632 q 610 823 657 792 q 460 854 563 854 l 336 854 l 288 507 z "},"Ŕ":{"ha":832,"x_min":86,"x_max":794,"o":"m 794 719 q 737 542 794 622 q 553 425 679 461 l 746 0 l 601 0 l 425 406 l 274 406 l 217 0 l 86 0 l 221 957 l 467 957 q 794 719 794 957 m 288 507 l 428 507 q 603 569 550 507 q 657 718 657 632 q 610 823 657 792 q 460 854 563 854 l 336 854 l 288 507 m 643 1261 l 685 1154 l 379 1049 l 353 1117 l 643 1261 z "},"Ř":{"ha":832,"x_min":86,"x_max":794,"o":"m 794 719 q 737 542 794 622 q 553 425 679 461 l 746 0 l 601 0 l 425 406 l 274 406 l 217 0 l 86 0 l 221 957 l 467 957 q 794 719 794 957 m 288 507 l 428 507 q 603 569 550 507 q 657 718 657 632 q 610 823 657 792 q 460 854 563 854 l 336 854 l 288 507 m 706 1263 l 754 1200 l 549 1047 l 465 1047 l 299 1200 l 358 1263 l 515 1150 l 706 1263 z "},"Ŗ":{"ha":832,"x_min":86,"x_max":794,"o":"m 794 719 q 737 542 794 622 q 553 425 679 461 l 746 0 l 601 0 l 425 406 l 274 406 l 217 0 l 86 0 l 221 957 l 467 957 q 794 719 794 957 m 288 507 l 428 507 q 603 569 550 507 q 657 718 657 632 q 610 823 657 792 q 460 854 563 854 l 336 854 l 288 507 m 358 -107 q 411 -129 392 -107 q 431 -179 431 -151 q 420 -226 431 -203 q 381 -297 410 -250 l 308 -411 l 233 -411 l 300 -247 q 274 -189 274 -221 q 299 -131 274 -154 q 358 -107 324 -107 z "},"Ȑ":{"ha":832,"x_min":86,"x_max":794,"o":"m 794 719 q 737 542 794 622 q 553 425 679 461 l 746 0 l 601 0 l 425 406 l 274 406 l 217 0 l 86 0 l 221 957 l 467 957 q 794 719 794 957 m 288 507 l 428 507 q 603 569 550 507 q 657 718 657 632 q 610 823 657 792 q 460 854 563 854 l 336 854 l 288 507 m 378 1331 l 463 1090 l 381 1056 l 264 1274 l 378 1331 m 586 1331 l 658 1097 l 576 1063 l 472 1274 l 586 1331 z "},"Ṛ":{"ha":832,"x_min":86,"x_max":794,"o":"m 794 719 q 737 542 794 622 q 553 425 679 461 l 746 0 l 601 0 l 425 406 l 274 406 l 217 0 l 86 0 l 221 957 l 467 957 q 794 719 794 957 m 288 507 l 428 507 q 603 569 550 507 q 657 718 657 632 q 610 823 657 792 q 460 854 563 854 l 336 854 l 288 507 m 356 -103 q 415 -126 392 -103 q 438 -182 438 -149 q 410 -249 438 -222 q 342 -276 382 -276 q 282 -254 304 -276 q 260 -197 260 -232 q 288 -130 260 -157 q 356 -103 315 -103 z "},"Ȓ":{"ha":832,"x_min":86,"x_max":794,"o":"m 794 719 q 737 542 794 622 q 553 425 679 461 l 746 0 l 601 0 l 425 406 l 274 406 l 217 0 l 86 0 l 221 957 l 467 957 q 794 719 794 957 m 288 507 l 428 507 q 603 569 550 507 q 657 718 657 632 q 610 823 657 792 q 460 854 563 854 l 336 854 l 288 507 m 303 1100 q 387 1233 324 1186 q 535 1281 450 1281 q 673 1229 621 1281 q 722 1092 725 1178 l 638 1081 q 529 1183 624 1183 q 386 1075 432 1183 l 303 1100 z "},"Ɍ":{"ha":850,"x_min":35,"x_max":813,"o":"m 813 719 q 755 542 813 622 q 571 425 697 461 l 764 0 l 619 0 l 443 406 l 292 406 l 235 0 l 104 0 l 161 406 l 35 406 l 49 507 l 175 507 l 239 957 l 485 957 q 813 719 813 957 m 446 507 q 622 569 568 507 q 675 718 675 632 q 628 823 675 792 q 478 854 581 854 l 354 854 l 306 507 l 446 507 z "},"Ɽ":{"ha":832,"x_min":72,"x_max":794,"o":"m 794 719 q 737 542 794 622 q 553 425 679 461 l 746 0 l 601 0 l 425 406 l 274 406 l 217 0 l 204 -92 q 201 -121 201 -114 q 269 -190 201 -190 q 324 -183 301 -190 q 376 -158 347 -175 l 419 -246 q 258 -296 349 -296 q 122 -251 171 -296 q 72 -122 72 -207 q 75 -76 72 -93 l 86 0 l 221 957 l 467 957 q 794 719 794 957 m 288 507 l 428 507 q 603 569 550 507 q 657 718 657 632 q 610 823 657 792 q 460 854 563 854 l 336 854 l 288 507 z "},"S":{"ha":749,"x_min":-1,"x_max":732,"o":"m 450 974 q 608 944 540 974 q 732 858 676 915 l 650 782 q 558 846 606 826 q 450 865 510 865 q 310 824 365 865 q 254 710 254 782 q 292 621 254 654 q 433 553 329 588 q 618 458 553 515 q 683 290 683 401 q 642 142 683 213 q 517 28 601 72 q 308 -17 433 -17 q -1 111 111 -17 l 82 189 q 182 116 126 140 q 311 92 238 92 q 483 144 418 92 q 547 283 547 196 q 509 380 547 344 q 371 450 471 415 q 181 551 240 496 q 121 703 121 606 q 160 831 121 768 q 273 933 199 893 q 450 974 347 974 z "},"Ś":{"ha":749,"x_min":-1,"x_max":732,"o":"m 450 974 q 608 944 540 974 q 732 858 676 915 l 650 782 q 558 846 606 826 q 450 865 510 865 q 310 824 365 865 q 254 710 254 782 q 292 621 254 654 q 433 553 329 588 q 618 458 553 515 q 683 290 683 401 q 642 142 683 213 q 517 28 601 72 q 308 -17 433 -17 q -1 111 111 -17 l 82 189 q 182 116 126 140 q 311 92 238 92 q 483 144 418 92 q 547 283 547 196 q 509 380 547 344 q 371 450 471 415 q 181 551 240 496 q 121 703 121 606 q 160 831 121 768 q 273 933 199 893 q 450 974 347 974 m 611 1261 l 653 1154 l 347 1049 l 321 1117 l 611 1261 z "},"Ꞌ":{"ha":301,"x_min":117,"x_max":306,"o":"m 117 482 l 164 957 l 306 957 l 215 482 l 117 482 z "},"Š":{"ha":749,"x_min":-1,"x_max":732,"o":"m 450 974 q 608 944 540 974 q 732 858 676 915 l 650 782 q 558 846 606 826 q 450 865 510 865 q 310 824 365 865 q 254 710 254 782 q 292 621 254 654 q 433 553 329 588 q 618 458 553 515 q 683 290 683 401 q 642 142 683 213 q 517 28 601 72 q 308 -17 433 -17 q -1 111 111 -17 l 82 189 q 182 116 126 140 q 311 92 238 92 q 483 144 418 92 q 547 283 547 196 q 509 380 547 344 q 371 450 471 415 q 181 551 240 496 q 121 703 121 606 q 160 831 121 768 q 273 933 199 893 q 450 974 347 974 m 674 1263 l 722 1200 l 517 1047 l 433 1047 l 267 1200 l 326 1263 l 483 1150 l 674 1263 z "},"Ş":{"ha":749,"x_min":-1,"x_max":732,"o":"m 433 553 q 618 458 553 515 q 683 290 683 401 q 648 151 683 217 q 539 39 613 85 q 356 -15 465 -7 l 344 -78 q 429 -114 400 -83 q 458 -190 458 -144 q 410 -293 458 -251 q 279 -335 363 -335 q 150 -297 200 -335 l 193 -229 q 231 -246 213 -240 q 279 -251 250 -251 q 333 -235 313 -251 q 354 -192 354 -219 q 330 -149 354 -161 q 240 -137 306 -137 l 269 -15 q -1 111 97 -3 l 82 189 q 182 116 126 140 q 311 92 238 92 q 483 144 418 92 q 547 283 547 196 q 509 380 547 344 q 371 450 471 415 q 181 551 240 496 q 121 703 121 606 q 160 831 121 768 q 273 933 199 893 q 450 974 347 974 q 608 944 540 974 q 732 858 676 915 l 650 782 q 558 846 606 826 q 450 865 510 865 q 310 824 365 865 q 254 710 254 782 q 292 621 254 654 q 433 553 329 588 z "},"Ŝ":{"ha":749,"x_min":-1,"x_max":732,"o":"m 450 974 q 608 944 540 974 q 732 858 676 915 l 650 782 q 558 846 606 826 q 450 865 510 865 q 310 824 365 865 q 254 710 254 782 q 292 621 254 654 q 433 553 329 588 q 618 458 553 515 q 683 290 683 401 q 642 142 683 213 q 517 28 601 72 q 308 -17 433 -17 q -1 111 111 -17 l 82 189 q 182 116 126 140 q 311 92 238 92 q 483 144 418 92 q 547 283 547 196 q 509 380 547 344 q 371 450 471 415 q 181 551 240 496 q 121 703 121 606 q 160 831 121 768 q 273 933 199 893 q 450 974 347 974 m 303 1054 l 251 1117 l 458 1269 l 542 1269 l 707 1117 l 650 1054 l 490 1167 l 303 1054 z "},"Ș":{"ha":749,"x_min":-1,"x_max":732,"o":"m 450 974 q 608 944 540 974 q 732 858 676 915 l 650 782 q 558 846 606 826 q 450 865 510 865 q 310 824 365 865 q 254 710 254 782 q 292 621 254 654 q 433 553 329 588 q 618 458 553 515 q 683 290 683 401 q 642 142 683 213 q 517 28 601 72 q 308 -17 433 -17 q -1 111 111 -17 l 82 189 q 182 116 126 140 q 311 92 238 92 q 483 144 418 92 q 547 283 547 196 q 509 380 547 344 q 371 450 471 415 q 181 551 240 496 q 121 703 121 606 q 160 831 121 768 q 273 933 199 893 q 450 974 347 974 m 300 -107 q 353 -129 333 -107 q 372 -179 372 -151 q 362 -226 372 -203 q 322 -297 351 -250 l 250 -411 l 175 -411 l 242 -247 q 215 -189 215 -221 q 240 -131 215 -154 q 300 -107 265 -107 z "},"Ṡ":{"ha":749,"x_min":-1,"x_max":732,"o":"m 450 974 q 608 944 540 974 q 732 858 676 915 l 650 782 q 558 846 606 826 q 450 865 510 865 q 310 824 365 865 q 254 710 254 782 q 292 621 254 654 q 433 553 329 588 q 618 458 553 515 q 683 290 683 401 q 642 142 683 213 q 517 28 601 72 q 308 -17 433 -17 q -1 111 111 -17 l 82 189 q 182 116 126 140 q 311 92 238 92 q 483 144 418 92 q 547 283 547 196 q 509 380 547 344 q 371 450 471 415 q 181 551 240 496 q 121 703 121 606 q 160 831 121 768 q 273 933 199 893 q 450 974 347 974 m 490 1085 q 431 1108 453 1085 q 408 1164 408 1131 q 436 1231 408 1204 q 504 1258 464 1258 q 564 1236 542 1258 q 586 1179 586 1214 q 558 1112 586 1139 q 490 1085 531 1085 z "},"Ṣ":{"ha":749,"x_min":-1,"x_max":732,"o":"m 450 974 q 608 944 540 974 q 732 858 676 915 l 650 782 q 558 846 606 826 q 450 865 510 865 q 310 824 365 865 q 254 710 254 782 q 292 621 254 654 q 433 553 329 588 q 618 458 553 515 q 683 290 683 401 q 642 142 683 213 q 517 28 601 72 q 308 -17 433 -17 q -1 111 111 -17 l 82 189 q 182 116 126 140 q 311 92 238 92 q 483 144 418 92 q 547 283 547 196 q 509 380 547 344 q 371 450 471 415 q 181 551 240 496 q 121 703 121 606 q 160 831 121 768 q 273 933 199 893 q 450 974 347 974 m 297 -103 q 356 -126 333 -103 q 379 -182 379 -149 q 351 -249 379 -222 q 283 -276 324 -276 q 224 -254 246 -276 q 201 -197 201 -232 q 229 -130 201 -157 q 297 -103 257 -103 z "},"ẞ":{"ha":901,"x_min":86,"x_max":849,"o":"m 513 974 q 849 872 675 974 l 842 785 l 568 539 q 763 465 696 525 q 829 304 829 406 q 785 135 829 208 q 661 23 740 63 q 481 -17 582 -17 q 321 17 378 -17 l 369 108 q 476 92 410 92 q 635 150 578 92 q 693 301 693 208 q 627 416 693 381 q 431 451 561 451 l 440 556 l 724 821 q 513 865 619 865 q 376 817 426 865 q 311 675 325 768 l 217 0 l 86 0 l 182 683 q 288 899 201 824 q 513 974 374 974 z "},"Ə":{"ha":893,"x_min":68,"x_max":843,"o":"m 514 974 q 757 882 671 974 q 843 611 843 790 q 791 300 843 443 q 635 70 739 157 q 385 -17 532 -17 q 151 77 233 -17 q 68 344 68 171 q 75 448 68 386 q 90 540 82 510 l 704 540 q 710 625 710 581 q 658 808 710 751 q 504 865 606 865 q 242 772 371 865 l 182 858 q 514 974 331 974 m 388 89 q 688 426 621 89 l 200 426 q 193 329 193 367 q 388 89 193 89 z "},"T":{"ha":710,"x_min":86,"x_max":781,"o":"m 781 957 l 750 844 l 486 844 l 368 0 l 238 0 l 356 844 l 86 844 l 103 957 l 781 957 z "},"Ŧ":{"ha":710,"x_min":86,"x_max":781,"o":"m 750 844 l 486 844 l 443 540 l 611 540 l 599 443 l 431 443 l 368 0 l 238 0 l 300 443 l 132 443 l 144 540 l 313 540 l 356 844 l 86 844 l 103 957 l 781 957 l 750 844 z "},"Ť":{"ha":710,"x_min":86,"x_max":781,"o":"m 781 957 l 750 844 l 486 844 l 368 0 l 238 0 l 356 844 l 86 844 l 103 957 l 781 957 m 647 1263 l 696 1200 l 490 1047 l 407 1047 l 240 1200 l 300 1263 l 457 1150 l 647 1263 z "},"Ţ":{"ha":710,"x_min":86,"x_max":781,"o":"m 781 957 l 750 844 l 486 844 l 368 0 l 356 -78 q 442 -112 414 -83 q 469 -183 469 -142 q 422 -290 469 -244 q 285 -335 375 -335 q 214 -324 246 -335 q 161 -297 182 -314 l 204 -229 q 282 -251 238 -251 q 341 -235 317 -251 q 365 -189 365 -218 q 340 -149 365 -161 q 251 -137 315 -137 l 285 0 l 238 0 l 356 844 l 86 844 l 103 957 l 781 957 z "},"Ṱ":{"ha":710,"x_min":40,"x_max":781,"o":"m 781 957 l 750 844 l 486 844 l 368 0 l 238 0 l 356 844 l 86 844 l 103 957 l 781 957 m 92 -314 l 40 -251 l 247 -94 l 331 -94 l 496 -251 l 435 -314 l 278 -197 l 92 -314 z "},"Ț":{"ha":710,"x_min":86,"x_max":781,"o":"m 781 957 l 750 844 l 486 844 l 368 0 l 238 0 l 356 844 l 86 844 l 103 957 l 781 957 m 289 -107 q 342 -129 322 -107 q 361 -179 361 -151 q 351 -226 361 -203 q 311 -297 340 -250 l 239 -411 l 164 -411 l 231 -247 q 204 -189 204 -221 q 229 -131 204 -154 q 289 -107 254 -107 z "},"Ⱦ":{"ha":710,"x_min":86,"x_max":781,"o":"m 750 844 l 611 844 l 436 493 l 367 0 l 239 0 l 258 139 l 140 -97 l 88 -75 l 283 317 l 357 844 l 86 844 l 103 957 l 604 957 l 646 1042 l 699 1019 l 668 957 l 781 957 l 750 844 m 461 671 l 547 844 l 485 844 l 461 671 z "},"Ṫ":{"ha":710,"x_min":86,"x_max":781,"o":"m 781 957 l 750 844 l 486 844 l 368 0 l 238 0 l 356 844 l 86 844 l 103 957 l 781 957 m 464 1085 q 404 1108 426 1085 q 382 1164 382 1131 q 410 1231 382 1204 q 478 1258 438 1258 q 538 1236 515 1258 q 560 1179 560 1214 q 532 1112 560 1139 q 464 1085 504 1085 z "},"Ṭ":{"ha":710,"x_min":86,"x_max":781,"o":"m 781 957 l 750 844 l 486 844 l 368 0 l 238 0 l 356 844 l 86 844 l 103 957 l 781 957 m 286 -103 q 345 -126 322 -103 q 368 -182 368 -149 q 340 -249 368 -222 q 272 -276 313 -276 q 213 -254 235 -276 q 190 -197 190 -232 q 218 -130 190 -157 q 286 -103 246 -103 z "},"Ƭ":{"ha":763,"x_min":72,"x_max":833,"o":"m 803 844 l 539 844 l 421 0 l 290 0 l 408 844 l 282 844 q 215 821 238 844 q 193 754 193 797 q 207 683 193 725 l 108 640 q 72 764 72 704 q 131 904 72 851 q 292 957 189 957 l 833 957 l 803 844 z "},"Ṯ":{"ha":710,"x_min":86,"x_max":781,"o":"m 781 957 l 750 844 l 486 844 l 368 0 l 238 0 l 356 844 l 86 844 l 103 957 l 781 957 m 103 -144 l 479 -144 l 467 -240 l 90 -240 l 103 -144 z "},"Ƽ":{"ha":701,"x_min":0,"x_max":692,"o":"m 265 -17 q 0 104 103 -17 l 82 174 q 268 88 151 88 q 407 131 354 88 q 483 239 460 175 q 506 365 506 303 q 367 507 506 507 q 296 499 328 507 q 219 474 264 492 l 114 475 l 182 957 l 692 957 l 661 857 l 289 857 l 249 567 q 407 606 321 606 q 574 541 513 606 q 636 363 636 476 q 599 188 636 275 q 478 42 561 100 q 265 -17 394 -17 z "},"Ƅ":{"ha":789,"x_min":86,"x_max":751,"o":"m 424 606 q 665 537 579 606 q 751 335 751 468 q 711 170 751 246 q 578 47 671 94 q 339 0 486 0 l 86 0 l 189 728 l 101 786 q 236 957 174 851 l 351 957 l 303 606 l 424 606 m 360 106 q 556 171 499 106 q 613 335 613 236 q 563 464 613 425 q 417 503 514 503 l 288 503 l 232 106 l 360 106 z "},"Ƨ":{"ha":738,"x_min":35,"x_max":726,"o":"m 461 974 q 654 916 582 974 q 726 758 726 858 q 649 569 726 638 q 411 451 572 500 q 265 392 317 422 q 191 324 213 363 q 169 225 169 285 q 217 126 169 160 q 338 92 264 92 q 603 189 472 92 l 667 104 q 329 -17 526 -17 q 172 14 239 -17 q 70 99 106 44 q 35 224 35 154 q 113 428 35 350 q 353 553 190 506 q 489 602 439 578 q 565 663 539 626 q 592 754 592 699 q 453 865 592 865 q 333 844 389 865 q 215 781 276 824 l 151 865 q 297 947 224 921 q 461 974 371 974 z "},"Ʈ":{"ha":710,"x_min":86,"x_max":781,"o":"m 356 -92 q 353 -121 353 -114 q 421 -190 353 -190 q 476 -183 453 -190 q 528 -158 499 -175 l 571 -246 q 410 -296 500 -296 q 273 -251 322 -296 q 224 -122 224 -207 q 226 -76 224 -93 l 238 0 l 356 844 l 86 844 l 103 957 l 781 957 l 750 844 l 486 844 l 368 0 l 356 -92 z "},"U":{"ha":911,"x_min":111,"x_max":871,"o":"m 779 303 q 660 70 758 157 q 406 -17 561 -17 q 188 56 264 -17 q 111 253 111 129 q 115 311 111 282 l 207 957 l 338 957 l 247 313 q 243 254 243 282 q 284 134 243 174 q 411 94 325 94 q 650 321 618 94 l 740 957 l 871 957 l 779 303 z "},"Ú":{"ha":911,"x_min":111,"x_max":871,"o":"m 779 303 q 660 70 758 157 q 406 -17 561 -17 q 188 56 264 -17 q 111 253 111 129 q 115 311 111 282 l 207 957 l 338 957 l 247 313 q 243 254 243 282 q 284 134 243 174 q 411 94 325 94 q 650 321 618 94 l 740 957 l 871 957 l 779 303 m 688 1261 l 729 1154 l 424 1049 l 397 1117 l 688 1261 z "},"Ʉ":{"ha":951,"x_min":96,"x_max":964,"o":"m 950 706 l 856 706 l 799 303 q 679 70 778 157 q 425 -17 581 -17 q 207 56 283 -17 q 131 253 131 129 q 135 311 131 282 l 190 706 l 96 706 l 110 801 l 204 801 l 226 957 l 357 957 l 335 801 l 738 801 l 760 957 l 890 957 l 868 801 l 964 801 l 950 706 m 724 706 l 322 706 l 267 313 q 263 254 263 282 q 303 134 263 174 q 431 94 344 94 q 669 321 638 94 l 724 706 z "},"Ŭ":{"ha":911,"x_min":111,"x_max":871,"o":"m 779 303 q 660 70 758 157 q 406 -17 561 -17 q 188 56 264 -17 q 111 253 111 129 q 115 311 111 282 l 207 957 l 338 957 l 247 313 q 243 254 243 282 q 284 134 243 174 q 411 94 325 94 q 650 321 618 94 l 740 957 l 871 957 l 779 303 m 553 1053 q 416 1101 468 1053 q 367 1228 364 1150 l 449 1239 q 556 1150 468 1150 q 641 1176 604 1150 q 699 1244 678 1201 l 782 1219 q 700 1098 764 1143 q 553 1053 636 1053 z "},"Ǔ":{"ha":911,"x_min":111,"x_max":871,"o":"m 779 303 q 660 70 758 157 q 406 -17 561 -17 q 188 56 264 -17 q 111 253 111 129 q 115 311 111 282 l 207 957 l 338 957 l 247 313 q 243 254 243 282 q 284 134 243 174 q 411 94 325 94 q 650 321 618 94 l 740 957 l 871 957 l 779 303 m 750 1263 l 799 1200 l 593 1047 l 510 1047 l 343 1200 l 403 1263 l 560 1150 l 750 1263 z "},"Û":{"ha":911,"x_min":111,"x_max":871,"o":"m 779 303 q 660 70 758 157 q 406 -17 561 -17 q 188 56 264 -17 q 111 253 111 129 q 115 311 111 282 l 207 957 l 338 957 l 247 313 q 243 254 243 282 q 284 134 243 174 q 411 94 325 94 q 650 321 618 94 l 740 957 l 871 957 l 779 303 m 379 1054 l 328 1117 l 535 1269 l 618 1269 l 783 1117 l 726 1054 l 567 1167 l 379 1054 z "},"Ȕ":{"ha":911,"x_min":111,"x_max":871,"o":"m 779 303 q 660 70 758 157 q 406 -17 561 -17 q 188 56 264 -17 q 111 253 111 129 q 115 311 111 282 l 207 957 l 338 957 l 247 313 q 243 254 243 282 q 284 134 243 174 q 411 94 325 94 q 650 321 618 94 l 740 957 l 871 957 l 779 303 m 422 1331 l 507 1090 l 425 1056 l 308 1274 l 422 1331 m 631 1331 l 703 1097 l 621 1063 l 517 1274 l 631 1331 z "},"Ü":{"ha":911,"x_min":111,"x_max":871,"o":"m 779 303 q 660 70 758 157 q 406 -17 561 -17 q 188 56 264 -17 q 111 253 111 129 q 115 311 111 282 l 207 957 l 338 957 l 247 313 q 243 254 243 282 q 284 134 243 174 q 411 94 325 94 q 650 321 618 94 l 740 957 l 871 957 l 779 303 m 419 1083 q 367 1103 388 1083 q 346 1154 346 1124 q 371 1216 346 1192 q 433 1240 396 1240 q 486 1220 465 1240 q 507 1169 507 1200 q 482 1108 507 1132 q 419 1083 457 1083 m 708 1083 q 656 1103 676 1083 q 635 1154 635 1124 q 660 1216 635 1192 q 722 1240 685 1240 q 775 1220 754 1240 q 796 1169 796 1200 q 771 1108 796 1132 q 708 1083 746 1083 z "},"Ǘ":{"ha":911,"x_min":111,"x_max":871,"o":"m 779 303 q 660 70 758 157 q 406 -17 561 -17 q 188 56 264 -17 q 111 253 111 129 q 115 311 111 282 l 207 957 l 338 957 l 247 313 q 243 254 243 282 q 284 134 243 174 q 411 94 325 94 q 650 321 618 94 l 740 957 l 871 957 l 779 303 m 699 1410 l 769 1335 l 561 1160 l 511 1208 l 699 1410 m 406 1038 q 353 1058 374 1038 q 332 1108 332 1078 q 357 1170 332 1146 q 419 1194 382 1194 q 472 1174 451 1194 q 493 1124 493 1154 q 468 1062 493 1086 q 406 1038 443 1038 m 694 1038 q 642 1058 663 1038 q 621 1108 621 1078 q 646 1170 621 1146 q 708 1194 671 1194 q 761 1174 740 1194 q 782 1124 782 1154 q 757 1062 782 1086 q 694 1038 732 1038 z "},"Ǚ":{"ha":911,"x_min":111,"x_max":871,"o":"m 779 303 q 660 70 758 157 q 406 -17 561 -17 q 188 56 264 -17 q 111 253 111 129 q 115 311 111 282 l 207 957 l 338 957 l 247 313 q 243 254 243 282 q 284 134 243 174 q 411 94 325 94 q 650 321 618 94 l 740 957 l 871 957 l 779 303 m 760 1418 l 808 1356 l 603 1203 l 519 1203 l 353 1356 l 413 1418 l 569 1306 l 760 1418 m 406 1038 q 353 1058 374 1038 q 332 1108 332 1078 q 357 1170 332 1146 q 419 1194 382 1194 q 472 1174 451 1194 q 493 1124 493 1154 q 468 1062 493 1086 q 406 1038 443 1038 m 694 1038 q 642 1058 663 1038 q 621 1108 621 1078 q 646 1170 621 1146 q 708 1194 671 1194 q 761 1174 740 1194 q 782 1124 782 1154 q 757 1062 782 1086 q 694 1038 732 1038 z "},"Ǜ":{"ha":911,"x_min":111,"x_max":871,"o":"m 779 303 q 660 70 758 157 q 406 -17 561 -17 q 188 56 264 -17 q 111 253 111 129 q 115 311 111 282 l 207 957 l 338 957 l 247 313 q 243 254 243 282 q 284 134 243 174 q 411 94 325 94 q 650 321 618 94 l 740 957 l 871 957 l 779 303 m 479 1407 l 614 1203 l 561 1160 l 397 1336 l 479 1407 m 406 1038 q 353 1058 374 1038 q 332 1108 332 1078 q 357 1170 332 1146 q 419 1194 382 1194 q 472 1174 451 1194 q 493 1124 493 1154 q 468 1062 493 1086 q 406 1038 443 1038 m 694 1038 q 642 1058 663 1038 q 621 1108 621 1078 q 646 1170 621 1146 q 708 1194 671 1194 q 761 1174 740 1194 q 782 1124 782 1154 q 757 1062 782 1086 q 694 1038 732 1038 z "},"Ǖ":{"ha":911,"x_min":111,"x_max":871,"o":"m 779 303 q 660 70 758 157 q 406 -17 561 -17 q 188 56 264 -17 q 111 253 111 129 q 115 311 111 282 l 207 957 l 338 957 l 247 313 q 243 254 243 282 q 284 134 243 174 q 411 94 325 94 q 650 321 618 94 l 740 957 l 871 957 l 779 303 m 400 1036 q 347 1056 368 1036 q 326 1107 326 1076 q 351 1169 326 1144 q 414 1193 376 1193 q 467 1173 446 1193 q 488 1122 488 1153 q 463 1060 488 1085 q 400 1036 438 1036 m 689 1036 q 636 1056 657 1036 q 615 1107 615 1076 q 640 1169 615 1144 q 703 1193 665 1193 q 756 1173 735 1193 q 776 1122 776 1153 q 751 1060 776 1085 q 689 1036 726 1036 m 756 1254 l 379 1254 l 392 1350 l 768 1350 l 756 1254 z "},"Ụ":{"ha":911,"x_min":111,"x_max":871,"o":"m 779 303 q 660 70 758 157 q 406 -17 561 -17 q 188 56 264 -17 q 111 253 111 129 q 115 311 111 282 l 207 957 l 338 957 l 247 313 q 243 254 243 282 q 284 134 243 174 q 411 94 325 94 q 650 321 618 94 l 740 957 l 871 957 l 779 303 m 386 -103 q 445 -126 422 -103 q 468 -182 468 -149 q 440 -249 468 -222 q 372 -276 413 -276 q 313 -254 335 -276 q 290 -197 290 -232 q 318 -130 290 -157 q 386 -103 346 -103 z "},"Ù":{"ha":911,"x_min":111,"x_max":871,"o":"m 779 303 q 660 70 758 157 q 406 -17 561 -17 q 188 56 264 -17 q 111 253 111 129 q 115 311 111 282 l 207 957 l 338 957 l 247 313 q 243 254 243 282 q 284 134 243 174 q 411 94 325 94 q 650 321 618 94 l 740 957 l 871 957 l 779 303 m 469 1260 l 728 1115 l 688 1047 l 411 1153 l 469 1260 z "},"Ủ":{"ha":911,"x_min":111,"x_max":871,"o":"m 779 303 q 660 70 758 157 q 406 -17 561 -17 q 188 56 264 -17 q 111 253 111 129 q 115 311 111 282 l 207 957 l 338 957 l 247 313 q 243 254 243 282 q 284 134 243 174 q 411 94 325 94 q 650 321 618 94 l 740 957 l 871 957 l 779 303 m 519 1176 q 602 1198 574 1183 q 631 1247 631 1213 q 581 1286 631 1286 q 497 1264 538 1286 l 472 1340 q 603 1372 532 1372 q 703 1339 667 1372 q 739 1251 739 1306 q 706 1166 739 1196 q 611 1126 672 1136 l 601 1060 l 507 1060 l 519 1176 z "},"Ư":{"ha":925,"x_min":111,"x_max":1039,"o":"m 1039 993 q 990 862 1039 908 q 850 810 942 815 l 779 303 q 660 70 758 157 q 406 -17 561 -17 q 188 56 264 -17 q 111 253 111 129 q 115 311 111 282 l 207 957 l 338 957 l 247 313 q 243 254 243 282 q 284 134 243 174 q 411 94 325 94 q 650 321 618 94 l 740 957 l 871 957 l 861 890 q 935 996 935 906 q 926 1056 935 1019 l 1026 1071 q 1039 993 1039 1036 z "},"Ứ":{"ha":925,"x_min":111,"x_max":1039,"o":"m 729 1154 l 424 1049 l 397 1117 l 688 1261 l 729 1154 m 1039 993 q 990 862 1039 908 q 850 810 942 815 l 779 303 q 660 70 758 157 q 406 -17 561 -17 q 188 56 264 -17 q 111 253 111 129 q 115 311 111 282 l 207 957 l 338 957 l 247 313 q 243 254 243 282 q 284 134 243 174 q 411 94 325 94 q 650 321 618 94 l 740 957 l 871 957 l 861 890 q 935 996 935 906 q 926 1056 935 1019 l 1026 1071 q 1039 993 1039 1036 z "},"Ự":{"ha":925,"x_min":111,"x_max":1039,"o":"m 1039 993 q 990 862 1039 908 q 850 810 942 815 l 779 303 q 660 70 758 157 q 406 -17 561 -17 q 188 56 264 -17 q 111 253 111 129 q 115 311 111 282 l 207 957 l 338 957 l 247 313 q 243 254 243 282 q 284 134 243 174 q 411 94 325 94 q 650 321 618 94 l 740 957 l 871 957 l 861 890 q 935 996 935 906 q 926 1056 935 1019 l 1026 1071 q 1039 993 1039 1036 m 386 -103 q 446 -126 424 -103 q 468 -182 468 -149 q 440 -249 468 -222 q 372 -276 413 -276 q 313 -254 336 -276 q 290 -197 290 -232 q 318 -130 290 -157 q 386 -103 346 -103 z "},"Ừ":{"ha":925,"x_min":111,"x_max":1039,"o":"m 728 1115 l 688 1047 l 411 1153 l 469 1260 l 728 1115 m 1039 993 q 990 862 1039 908 q 850 810 942 815 l 779 303 q 660 70 758 157 q 406 -17 561 -17 q 188 56 264 -17 q 111 253 111 129 q 115 311 111 282 l 207 957 l 338 957 l 247 313 q 243 254 243 282 q 284 134 243 174 q 411 94 325 94 q 650 321 618 94 l 740 957 l 871 957 l 861 890 q 935 996 935 906 q 926 1056 935 1019 l 1026 1071 q 1039 993 1039 1036 z "},"Ử":{"ha":925,"x_min":111,"x_max":1039,"o":"m 581 1286 q 497 1264 538 1286 l 472 1340 q 603 1372 532 1372 q 703 1339 667 1372 q 739 1251 739 1306 q 706 1166 739 1196 q 611 1126 672 1136 l 601 1060 l 507 1060 l 519 1176 q 602 1198 574 1183 q 631 1247 631 1213 q 581 1286 631 1286 m 1039 993 q 990 862 1039 908 q 850 810 942 815 l 779 303 q 660 70 758 157 q 406 -17 561 -17 q 188 56 264 -17 q 111 253 111 129 q 115 311 111 282 l 207 957 l 338 957 l 247 313 q 243 254 243 282 q 284 134 243 174 q 411 94 325 94 q 650 321 618 94 l 740 957 l 871 957 l 861 890 q 935 996 935 906 q 926 1056 935 1019 l 1026 1071 q 1039 993 1039 1036 z "},"Ữ":{"ha":925,"x_min":111,"x_max":1039,"o":"m 493 1153 q 448 1136 468 1153 q 406 1086 428 1119 l 333 1131 q 496 1250 407 1250 q 546 1240 526 1250 q 592 1210 565 1229 q 621 1190 610 1196 q 644 1183 632 1183 q 687 1199 667 1183 q 729 1247 707 1214 l 804 1203 q 729 1115 769 1144 q 647 1086 689 1086 q 592 1097 615 1086 q 544 1128 569 1108 q 517 1147 528 1140 q 493 1153 506 1153 m 1039 993 q 990 862 1039 908 q 850 810 942 815 l 779 303 q 660 70 758 157 q 406 -17 561 -17 q 188 56 264 -17 q 111 253 111 129 q 115 311 111 282 l 207 957 l 338 957 l 247 313 q 243 254 243 282 q 284 134 243 174 q 411 94 325 94 q 650 321 618 94 l 740 957 l 871 957 l 861 890 q 935 996 935 906 q 926 1056 935 1019 l 1026 1071 q 1039 993 1039 1036 z "},"Ű":{"ha":911,"x_min":111,"x_max":871,"o":"m 779 303 q 660 70 758 157 q 406 -17 561 -17 q 188 56 264 -17 q 111 253 111 129 q 115 311 111 282 l 207 957 l 338 957 l 247 313 q 243 254 243 282 q 284 134 243 174 q 411 94 325 94 q 650 321 618 94 l 740 957 l 871 957 l 779 303 m 544 1331 l 644 1274 l 485 1063 l 407 1097 l 544 1331 m 753 1331 l 854 1274 l 679 1056 l 603 1090 l 753 1331 z "},"Ȗ":{"ha":911,"x_min":111,"x_max":871,"o":"m 779 303 q 660 70 758 157 q 406 -17 561 -17 q 188 56 264 -17 q 111 253 111 129 q 115 311 111 282 l 207 957 l 338 957 l 247 313 q 243 254 243 282 q 284 134 243 174 q 411 94 325 94 q 650 321 618 94 l 740 957 l 871 957 l 779 303 m 347 1100 q 431 1233 368 1186 q 579 1281 494 1281 q 717 1229 665 1281 q 767 1092 769 1178 l 682 1081 q 574 1183 668 1183 q 431 1075 476 1183 l 347 1100 z "},"Ū":{"ha":911,"x_min":111,"x_max":871,"o":"m 779 303 q 660 70 758 157 q 406 -17 561 -17 q 188 56 264 -17 q 111 253 111 129 q 115 311 111 282 l 207 957 l 338 957 l 247 313 q 243 254 243 282 q 284 134 243 174 q 411 94 325 94 q 650 321 618 94 l 740 957 l 871 957 l 779 303 m 750 1101 l 374 1101 l 386 1197 l 763 1197 l 750 1101 z "},"Ų":{"ha":911,"x_min":111,"x_max":871,"o":"m 871 957 l 779 303 q 695 104 764 185 q 515 -4 626 24 q 387 -81 421 -44 q 353 -158 353 -118 q 431 -225 353 -225 q 515 -215 468 -225 l 503 -312 q 415 -322 454 -322 q 289 -283 336 -322 q 242 -182 242 -243 q 375 -15 242 -75 q 179 65 247 -7 q 111 253 111 138 q 115 311 111 282 l 207 957 l 338 957 l 247 313 q 243 254 243 282 q 284 134 243 174 q 411 94 325 94 q 650 321 618 94 l 740 957 l 871 957 z "},"Ʊ":{"ha":951,"x_min":81,"x_max":929,"o":"m 429 -17 q 174 82 267 -17 q 81 349 81 181 q 142 633 81 510 q 329 851 203 757 l 175 851 l 189 957 l 468 957 l 454 846 q 218 344 218 674 q 274 156 218 221 q 433 92 329 92 q 610 153 538 92 q 720 318 683 215 q 757 544 757 421 q 728 722 757 650 q 640 851 699 793 l 653 957 l 929 957 l 915 846 l 767 846 q 860 723 825 796 q 894 540 894 650 q 836 260 894 388 q 672 58 778 132 q 429 -17 567 -17 z "},"Ů":{"ha":911,"x_min":111,"x_max":871,"o":"m 779 303 q 660 70 758 157 q 406 -17 561 -17 q 188 56 264 -17 q 111 253 111 129 q 115 311 111 282 l 207 957 l 338 957 l 247 313 q 243 254 243 282 q 284 134 243 174 q 411 94 325 94 q 650 321 618 94 l 740 957 l 871 957 l 779 303 m 589 1336 q 692 1298 653 1336 q 732 1203 732 1260 q 682 1089 732 1136 q 560 1042 632 1042 q 456 1080 496 1042 q 417 1175 417 1118 q 467 1289 417 1242 q 589 1336 517 1336 m 586 1267 q 524 1240 546 1267 q 501 1176 501 1214 q 517 1128 501 1146 q 563 1111 533 1111 q 626 1139 603 1111 q 649 1203 649 1167 q 632 1250 649 1233 q 586 1267 615 1267 z "},"Ũ":{"ha":911,"x_min":111,"x_max":871,"o":"m 779 303 q 660 70 758 157 q 406 -17 561 -17 q 188 56 264 -17 q 111 253 111 129 q 115 311 111 282 l 207 957 l 338 957 l 247 313 q 243 254 243 282 q 284 134 243 174 q 411 94 325 94 q 650 321 618 94 l 740 957 l 871 957 l 779 303 m 647 1086 q 592 1097 615 1086 q 544 1128 569 1108 q 517 1147 528 1140 q 493 1153 506 1153 q 448 1136 468 1153 q 406 1086 428 1119 l 333 1131 q 496 1250 407 1250 q 546 1240 526 1250 q 592 1210 565 1229 q 621 1190 610 1196 q 644 1183 632 1183 q 687 1199 667 1183 q 729 1247 707 1214 l 804 1203 q 729 1115 769 1144 q 647 1086 689 1086 z "},"Ṹ":{"ha":911,"x_min":111,"x_max":871,"o":"m 779 303 q 660 70 758 157 q 406 -17 561 -17 q 188 56 264 -17 q 111 253 111 129 q 115 311 111 282 l 207 957 l 338 957 l 247 313 q 243 254 243 282 q 284 134 243 174 q 411 94 325 94 q 650 321 618 94 l 740 957 l 871 957 l 779 303 m 649 1053 q 594 1064 617 1053 q 546 1094 571 1075 q 518 1113 529 1107 q 494 1119 507 1119 q 449 1103 469 1119 q 407 1053 429 1086 l 335 1097 q 497 1217 408 1217 q 547 1206 528 1217 q 593 1176 567 1196 q 622 1156 611 1163 q 646 1150 633 1150 q 688 1165 668 1150 q 731 1214 708 1181 l 806 1169 q 731 1082 771 1111 q 649 1053 690 1053 m 713 1465 l 754 1358 l 449 1253 l 422 1321 l 713 1465 z "},"V":{"ha":764,"x_min":90,"x_max":839,"o":"m 839 957 l 401 0 l 261 0 l 90 957 l 226 957 l 349 143 l 703 957 l 839 957 z "},"Ʋ":{"ha":890,"x_min":110,"x_max":850,"o":"m 703 974 q 811 935 772 974 q 850 828 850 897 q 847 790 850 818 l 794 414 q 718 183 775 281 q 574 35 661 86 q 381 -17 488 -17 q 181 56 253 -17 q 110 244 110 128 q 114 297 110 271 l 207 957 l 338 957 l 244 296 q 240 246 240 269 q 278 133 240 172 q 386 94 315 94 q 570 180 499 94 q 665 432 642 265 l 717 806 q 718 824 718 813 q 708 856 718 846 q 679 867 699 867 q 625 857 657 867 l 599 950 q 703 974 646 974 z "},"Ʌ":{"ha":788,"x_min":-44,"x_max":728,"o":"m 560 957 l 728 0 l 593 0 l 461 847 l 90 0 l -44 0 l 394 957 l 560 957 z "},"W":{"ha":1139,"x_min":119,"x_max":1188,"o":"m 1188 957 l 860 0 l 692 0 l 631 801 l 342 0 l 178 0 l 119 957 l 244 957 l 278 115 l 579 957 l 721 957 l 789 115 l 1067 957 l 1188 957 z "},"Ẃ":{"ha":1139,"x_min":119,"x_max":1188,"o":"m 1188 957 l 860 0 l 692 0 l 631 801 l 342 0 l 178 0 l 119 957 l 244 957 l 278 115 l 579 957 l 721 957 l 789 115 l 1067 957 l 1188 957 m 801 1261 l 843 1154 l 538 1049 l 511 1117 l 801 1261 z "},"Ŵ":{"ha":1139,"x_min":119,"x_max":1188,"o":"m 1188 957 l 860 0 l 692 0 l 631 801 l 342 0 l 178 0 l 119 957 l 244 957 l 278 115 l 579 957 l 721 957 l 789 115 l 1067 957 l 1188 957 m 493 1054 l 442 1117 l 649 1269 l 732 1269 l 897 1117 l 840 1054 l 681 1167 l 493 1054 z "},"Ẅ":{"ha":1139,"x_min":119,"x_max":1188,"o":"m 1188 957 l 860 0 l 692 0 l 631 801 l 342 0 l 178 0 l 119 957 l 244 957 l 278 115 l 579 957 l 721 957 l 789 115 l 1067 957 l 1188 957 m 533 1083 q 481 1103 501 1083 q 460 1154 460 1124 q 485 1216 460 1192 q 547 1240 510 1240 q 600 1220 579 1240 q 621 1169 621 1200 q 596 1108 621 1132 q 533 1083 571 1083 m 822 1083 q 769 1103 790 1083 q 749 1154 749 1124 q 774 1216 749 1192 q 836 1240 799 1240 q 889 1220 868 1240 q 910 1169 910 1200 q 885 1108 910 1132 q 822 1083 860 1083 z "},"Ẁ":{"ha":1139,"x_min":119,"x_max":1188,"o":"m 1188 957 l 860 0 l 692 0 l 631 801 l 342 0 l 178 0 l 119 957 l 244 957 l 278 115 l 579 957 l 721 957 l 789 115 l 1067 957 l 1188 957 m 583 1260 l 842 1115 l 801 1047 l 525 1153 l 583 1260 z "},"Ⱳ":{"ha":1197,"x_min":119,"x_max":1344,"o":"m 342 0 l 631 801 l 692 0 l 860 0 l 1113 789 q 1149 852 1126 833 q 1204 871 1171 871 q 1288 840 1244 871 l 1344 914 q 1200 974 1285 974 q 1076 938 1124 974 q 1001 814 1028 901 l 789 115 l 721 957 l 579 957 l 278 117 l 244 957 l 119 957 l 178 0 l 342 0 z "},"Ƿ":{"ha":799,"x_min":86,"x_max":806,"o":"m 568 974 q 738 912 671 974 q 806 742 806 850 q 696 493 806 588 q 386 325 586 399 l 256 279 l 217 0 l 86 0 l 221 957 l 351 957 l 342 889 q 568 974 443 974 m 390 436 q 593 560 518 486 q 668 738 668 635 q 543 865 668 865 q 326 776 421 865 l 271 389 l 390 436 z "},"X":{"ha":742,"x_min":-46,"x_max":788,"o":"m 788 957 l 465 515 l 683 0 l 540 0 l 382 422 l 100 0 l -46 0 l 313 510 l 115 957 l 258 957 l 396 597 l 643 957 l 788 957 z "},"Y":{"ha":756,"x_min":90,"x_max":833,"o":"m 833 957 l 444 368 l 393 0 l 260 0 l 313 367 l 90 957 l 228 957 l 392 483 l 690 957 l 833 957 z "},"Ý":{"ha":756,"x_min":90,"x_max":833,"o":"m 833 957 l 444 368 l 393 0 l 260 0 l 313 367 l 90 957 l 228 957 l 392 483 l 690 957 l 833 957 m 614 1261 l 656 1154 l 350 1049 l 324 1117 l 614 1261 z "},"Ŷ":{"ha":756,"x_min":90,"x_max":833,"o":"m 833 957 l 444 368 l 393 0 l 260 0 l 313 367 l 90 957 l 228 957 l 392 483 l 690 957 l 833 957 m 306 1054 l 254 1117 l 461 1269 l 544 1269 l 710 1117 l 653 1054 l 493 1167 l 306 1054 z "},"Ÿ":{"ha":756,"x_min":90,"x_max":833,"o":"m 833 957 l 444 368 l 393 0 l 260 0 l 313 367 l 90 957 l 228 957 l 392 483 l 690 957 l 833 957 m 346 1083 q 293 1103 314 1083 q 272 1154 272 1124 q 297 1216 272 1192 q 360 1240 322 1240 q 413 1220 392 1240 q 433 1169 433 1200 q 408 1108 433 1132 q 346 1083 383 1083 m 635 1083 q 582 1103 603 1083 q 561 1154 561 1124 q 586 1216 561 1192 q 649 1240 611 1240 q 701 1220 681 1240 q 722 1169 722 1200 q 697 1108 722 1132 q 635 1083 672 1083 z "},"Ỵ":{"ha":756,"x_min":90,"x_max":833,"o":"m 833 957 l 444 368 l 393 0 l 260 0 l 313 367 l 90 957 l 228 957 l 392 483 l 690 957 l 833 957 m 308 -103 q 367 -126 344 -103 q 390 -182 390 -149 q 363 -249 390 -222 q 294 -276 335 -276 q 235 -254 257 -276 q 213 -197 213 -232 q 240 -130 213 -157 q 308 -103 268 -103 z "},"Ỳ":{"ha":756,"x_min":90,"x_max":833,"o":"m 833 957 l 444 368 l 393 0 l 260 0 l 313 367 l 90 957 l 228 957 l 392 483 l 690 957 l 833 957 m 396 1260 l 654 1115 l 614 1047 l 338 1153 l 396 1260 z "},"Ƴ":{"ha":808,"x_min":90,"x_max":954,"o":"m 313 367 l 90 957 l 229 957 l 393 483 l 599 831 q 692 943 647 913 q 807 974 736 974 q 954 914 894 974 l 897 842 q 814 871 856 871 q 760 853 782 871 q 708 789 738 835 l 444 368 l 392 0 l 260 0 l 313 367 z "},"Ỷ":{"ha":756,"x_min":90,"x_max":833,"o":"m 833 957 l 444 368 l 393 0 l 260 0 l 313 367 l 90 957 l 228 957 l 392 483 l 690 957 l 833 957 m 446 1176 q 528 1198 500 1183 q 557 1247 557 1213 q 507 1286 557 1286 q 424 1264 464 1286 l 399 1340 q 529 1372 458 1372 q 629 1339 593 1372 q 665 1251 665 1306 q 632 1166 665 1196 q 538 1126 599 1136 l 528 1060 l 433 1060 l 446 1176 z "},"Ȳ":{"ha":756,"x_min":90,"x_max":833,"o":"m 833 957 l 444 368 l 393 0 l 260 0 l 313 367 l 90 957 l 228 957 l 392 483 l 690 957 l 833 957 m 676 1101 l 300 1101 l 313 1197 l 689 1197 l 676 1101 z "},"Ʀ":{"ha":832,"x_min":86,"x_max":771,"o":"m 771 553 q 713 373 771 454 q 529 256 656 292 l 722 -169 l 578 -169 l 401 236 l 250 236 l 217 0 l 86 0 l 221 957 l 351 957 l 328 788 l 443 788 q 771 553 771 788 m 264 338 l 404 338 q 580 401 526 338 q 633 553 633 464 q 587 655 633 625 q 436 685 540 685 l 313 685 l 264 338 z "},"Ɏ":{"ha":756,"x_min":65,"x_max":833,"o":"m 756 839 l 817 839 l 803 743 l 692 743 l 444 368 l 393 0 l 260 0 l 313 367 l 171 743 l 65 743 l 79 839 l 135 839 l 90 957 l 228 957 l 268 839 l 615 839 l 690 957 l 833 957 l 756 839 m 392 483 l 556 743 l 301 743 l 392 483 z "},"Ỹ":{"ha":756,"x_min":90,"x_max":833,"o":"m 833 957 l 444 368 l 393 0 l 260 0 l 313 367 l 90 957 l 228 957 l 392 483 l 690 957 l 833 957 m 574 1086 q 519 1097 542 1086 q 471 1128 496 1108 q 443 1147 454 1140 q 419 1153 432 1153 q 374 1136 394 1153 q 332 1086 354 1119 l 260 1131 q 422 1250 333 1250 q 472 1240 453 1250 q 518 1210 492 1229 q 547 1190 536 1196 q 571 1183 558 1183 q 613 1199 593 1183 q 656 1247 633 1214 l 731 1203 q 656 1115 696 1144 q 574 1086 615 1086 z "},"Z":{"ha":717,"x_min":-11,"x_max":739,"o":"m -11 0 l 3 106 l 578 846 l 158 846 l 174 957 l 739 957 l 725 850 l 154 111 l 619 113 l 589 0 l -11 0 z "},"Ź":{"ha":717,"x_min":-11,"x_max":739,"o":"m -11 0 l 3 106 l 578 846 l 158 846 l 174 957 l 739 957 l 725 850 l 154 111 l 619 113 l 589 0 l -11 0 m 606 1261 l 647 1154 l 342 1049 l 315 1117 l 606 1261 z "},"Ž":{"ha":717,"x_min":-11,"x_max":739,"o":"m -11 0 l 3 106 l 578 846 l 158 846 l 174 957 l 739 957 l 725 850 l 154 111 l 619 113 l 589 0 l -11 0 m 668 1263 l 717 1200 l 511 1047 l 428 1047 l 261 1200 l 321 1263 l 478 1150 l 668 1263 z "},"Ż":{"ha":717,"x_min":-11,"x_max":739,"o":"m -11 0 l 3 106 l 578 846 l 158 846 l 174 957 l 739 957 l 725 850 l 154 111 l 619 113 l 589 0 l -11 0 m 485 1085 q 425 1108 447 1085 q 403 1164 403 1131 q 431 1231 403 1204 q 499 1258 458 1258 q 558 1236 536 1258 q 581 1179 581 1214 q 553 1112 581 1139 q 485 1085 525 1085 z "},"Ẓ":{"ha":717,"x_min":-11,"x_max":739,"o":"m -11 0 l 3 106 l 578 846 l 158 846 l 174 957 l 739 957 l 725 850 l 154 111 l 619 113 l 589 0 l -11 0 m 271 -103 q 330 -126 307 -103 q 353 -182 353 -149 q 325 -249 353 -222 q 257 -276 297 -276 q 197 -254 219 -276 q 175 -197 175 -232 q 203 -130 175 -157 q 271 -103 231 -103 z "},"Ȥ":{"ha":717,"x_min":-11,"x_max":739,"o":"m 725 850 l 154 111 l 613 113 l 596 0 l 583 -83 q 508 -243 567 -190 q 354 -296 449 -296 q 200 -240 267 -296 l 257 -161 q 301 -185 282 -178 q 351 -192 321 -192 q 456 -83 439 -192 l 468 0 l -11 0 l 3 106 l 578 846 l 158 846 l 174 957 l 739 957 l 725 850 z "},"Ƶ":{"ha":717,"x_min":-11,"x_max":739,"o":"m 739 957 l 725 850 l 479 533 l 610 533 l 592 431 l 400 431 l 151 111 l 619 113 l 589 0 l -11 0 l 3 106 l 257 431 l 124 431 l 142 533 l 336 533 l 581 846 l 158 846 l 174 957 l 739 957 z "},"ʙ":{"ha":746,"x_min":81,"x_max":689,"o":"m 689 572 q 518 396 689 435 q 638 352 597 389 q 679 251 679 315 q 588 61 679 122 q 344 0 497 0 l 81 0 l 181 724 q 418 749 303 749 q 617 703 544 749 q 689 572 689 657 m 394 435 q 515 469 471 435 q 560 564 560 503 q 525 630 560 610 q 417 650 490 650 q 300 642 358 650 l 269 435 l 394 435 m 547 250 q 509 322 547 303 q 396 340 471 340 l 256 340 l 221 100 l 332 100 q 486 130 425 100 q 547 250 547 160 z "},"ɢ":{"ha":771,"x_min":72,"x_max":706,"o":"m 467 749 q 600 726 546 749 q 706 657 654 703 l 629 582 q 552 629 590 615 q 463 643 514 643 q 322 591 379 643 q 235 454 264 539 q 206 274 206 369 q 244 130 206 174 q 363 86 283 86 q 513 118 436 86 l 536 314 l 404 314 l 404 413 l 674 413 l 626 57 q 351 -15 492 -15 q 145 60 218 -15 q 72 279 72 136 q 122 515 72 407 q 262 685 172 622 q 467 749 351 749 z "},"ʛ":{"ha":776,"x_min":71,"x_max":988,"o":"m 832 1042 q 988 986 921 1042 l 931 908 q 886 932 906 925 q 836 939 867 939 q 764 912 793 939 q 728 832 735 885 l 704 657 l 642 596 q 461 643 556 643 q 319 590 378 643 q 233 452 261 538 q 204 268 204 367 q 244 128 204 171 q 361 86 283 86 q 511 118 435 86 l 535 314 l 403 314 l 403 413 l 672 413 l 625 57 q 350 -15 490 -15 q 144 60 217 -15 q 71 279 71 136 q 122 516 71 408 q 261 686 172 624 q 458 749 350 749 q 586 724 536 749 l 601 829 q 677 988 617 935 q 832 1042 738 1042 z "},"ʜ":{"ha":815,"x_min":79,"x_max":736,"o":"m 507 0 l 553 322 l 251 322 l 206 0 l 79 0 l 182 732 l 308 732 l 265 425 l 567 425 l 610 732 l 736 732 l 633 0 l 507 0 z "},"ɪ":{"ha":447,"x_min":-24,"x_max":469,"o":"m 457 635 l 324 635 l 249 97 l 381 97 l 367 0 l -24 0 l -10 97 l 121 97 l 196 635 l 67 635 l 79 732 l 469 732 l 457 635 z "},"ʟ":{"ha":601,"x_min":79,"x_max":543,"o":"m 308 732 l 221 108 l 543 108 l 513 0 l 79 0 l 182 732 l 308 732 z "},"ɴ":{"ha":818,"x_min":79,"x_max":739,"o":"m 636 0 l 475 0 l 265 601 q 236 286 260 454 l 196 0 l 79 0 l 182 732 l 343 732 l 553 128 q 567 338 550 214 l 622 732 l 739 732 l 636 0 z "},"ɶ":{"ha":1036,"x_min":72,"x_max":1039,"o":"m 1011 633 l 664 633 q 712 542 694 599 q 729 421 729 485 l 940 421 l 926 322 l 718 322 q 670 197 703 254 q 588 99 638 139 l 957 99 l 943 0 l 454 0 q 350 -17 404 -17 q 144 64 217 -17 q 72 286 72 144 q 110 495 72 389 q 233 675 149 601 q 451 749 318 749 q 560 732 508 749 l 1039 732 l 1011 633 m 357 86 q 499 147 444 86 q 575 292 553 207 q 597 460 597 378 q 447 646 597 646 q 306 585 360 646 q 228 440 251 525 q 206 272 206 354 q 357 86 206 86 z "},"ʀ":{"ha":721,"x_min":79,"x_max":651,"o":"m 651 531 q 465 304 651 365 l 624 0 l 486 0 l 350 281 l 244 281 l 206 0 l 79 0 l 182 732 l 375 732 q 581 681 510 732 q 651 531 651 629 m 258 378 l 343 378 q 474 418 428 378 q 519 528 519 458 q 483 610 519 586 q 367 635 446 635 l 294 635 l 258 378 z "},"ʁ":{"ha":724,"x_min":79,"x_max":729,"o":"m 486 429 q 611 254 611 379 q 522 64 611 128 q 279 0 432 0 l 79 0 l 182 732 l 308 732 l 269 451 l 379 451 l 593 732 l 729 732 l 486 429 m 285 97 q 429 137 378 97 q 481 251 481 176 q 444 331 481 307 q 340 354 408 354 l 256 354 l 219 97 l 285 97 z "},"ʏ":{"ha":656,"x_min":65,"x_max":694,"o":"m 694 732 l 379 275 l 340 0 l 213 0 l 253 274 l 65 732 l 197 732 l 326 369 l 556 732 l 694 732 z "},"a":{"ha":790,"x_min":69,"x_max":717,"o":"m 460 749 q 590 733 528 749 q 717 686 651 718 l 642 167 q 639 136 639 144 q 649 96 639 111 q 686 71 660 81 l 650 -17 q 560 19 592 -10 q 521 106 528 49 q 421 16 476 49 q 303 -17 365 -17 q 131 60 192 -17 q 69 264 69 136 q 110 486 69 375 q 239 673 151 597 q 460 749 326 749 m 463 647 q 317 588 375 647 q 233 441 260 529 q 206 263 206 353 q 238 128 206 172 q 329 85 269 85 q 431 119 386 85 q 525 219 476 154 l 582 624 q 526 642 553 636 q 463 647 499 647 z "},"á":{"ha":790,"x_min":69,"x_max":717,"o":"m 460 749 q 590 733 528 749 q 717 686 651 718 l 642 167 q 639 136 639 144 q 649 96 639 111 q 686 71 660 81 l 650 -17 q 560 19 592 -10 q 521 106 528 49 q 421 16 476 49 q 303 -17 365 -17 q 131 60 192 -17 q 69 264 69 136 q 110 486 69 375 q 239 673 151 597 q 460 749 326 749 m 463 647 q 317 588 375 647 q 233 441 260 529 q 206 263 206 353 q 238 128 206 172 q 329 85 269 85 q 431 119 386 85 q 525 219 476 154 l 582 624 q 526 642 553 636 q 463 647 499 647 m 633 1113 l 675 1006 l 369 886 l 340 954 l 633 1113 z "},"ă":{"ha":790,"x_min":69,"x_max":719,"o":"m 460 749 q 590 733 528 749 q 717 686 651 718 l 642 167 q 639 136 639 144 q 649 96 639 111 q 686 71 660 81 l 650 -17 q 560 19 592 -10 q 521 106 528 49 q 421 16 476 49 q 303 -17 365 -17 q 131 60 192 -17 q 69 264 69 136 q 110 486 69 375 q 239 673 151 597 q 460 749 326 749 m 463 647 q 317 588 375 647 q 233 441 260 529 q 206 263 206 353 q 238 128 206 172 q 329 85 269 85 q 431 119 386 85 q 525 219 476 154 l 582 624 q 526 642 553 636 q 463 647 499 647 m 488 893 q 351 944 401 893 q 303 1082 300 996 l 389 1093 q 420 1015 396 1040 q 490 990 444 990 q 578 1018 540 990 q 636 1099 615 1046 l 719 1074 q 635 941 699 989 q 488 893 571 893 z "},"ắ":{"ha":790,"x_min":69,"x_max":717,"o":"m 636 1267 l 707 1192 l 499 1017 l 449 1065 l 636 1267 m 488 831 q 351 879 403 831 q 301 1006 299 928 l 383 1017 q 490 928 403 928 q 576 953 539 928 q 633 1022 613 979 l 717 997 q 635 876 699 921 q 488 831 571 831 m 460 749 q 590 733 528 749 q 717 686 651 718 l 642 167 q 639 136 639 144 q 649 96 639 111 q 686 71 660 81 l 650 -17 q 560 19 592 -10 q 521 106 528 49 q 421 16 476 49 q 303 -17 365 -17 q 131 60 192 -17 q 69 264 69 136 q 110 486 69 375 q 239 673 151 597 q 460 749 326 749 m 463 647 q 317 588 375 647 q 233 441 260 529 q 206 263 206 353 q 238 128 206 172 q 329 85 269 85 q 431 119 386 85 q 525 219 476 154 l 582 624 q 526 642 553 636 q 463 647 499 647 z "},"ặ":{"ha":790,"x_min":69,"x_max":719,"o":"m 460 749 q 590 733 528 749 q 717 686 651 718 l 642 167 q 639 136 639 144 q 649 96 639 111 q 686 71 660 81 l 650 -17 q 560 19 592 -10 q 521 106 528 49 q 421 16 476 49 q 303 -17 365 -17 q 131 60 192 -17 q 69 264 69 136 q 110 486 69 375 q 239 673 151 597 q 460 749 326 749 m 463 647 q 317 588 375 647 q 233 441 260 529 q 206 263 206 353 q 238 128 206 172 q 329 85 269 85 q 431 119 386 85 q 525 219 476 154 l 582 624 q 526 642 553 636 q 463 647 499 647 m 488 893 q 351 944 401 893 q 303 1082 300 996 l 389 1093 q 420 1015 396 1040 q 490 990 444 990 q 578 1018 540 990 q 636 1099 615 1046 l 719 1074 q 635 941 699 989 q 488 893 571 893 m 365 -103 q 424 -126 401 -103 q 447 -182 447 -149 q 419 -249 447 -222 q 351 -276 392 -276 q 292 -254 314 -276 q 269 -197 269 -232 q 297 -130 269 -157 q 365 -103 325 -103 z "},"ằ":{"ha":790,"x_min":69,"x_max":717,"o":"m 414 1264 l 549 1060 l 496 1017 l 332 1193 l 414 1264 m 488 831 q 351 879 403 831 q 301 1006 299 928 l 383 1017 q 490 928 403 928 q 576 953 539 928 q 633 1022 613 979 l 717 997 q 635 876 699 921 q 488 831 571 831 m 460 749 q 590 733 528 749 q 717 686 651 718 l 642 167 q 639 136 639 144 q 649 96 639 111 q 686 71 660 81 l 650 -17 q 560 19 592 -10 q 521 106 528 49 q 421 16 476 49 q 303 -17 365 -17 q 131 60 192 -17 q 69 264 69 136 q 110 486 69 375 q 239 673 151 597 q 460 749 326 749 m 463 647 q 317 588 375 647 q 233 441 260 529 q 206 263 206 353 q 238 128 206 172 q 329 85 269 85 q 431 119 386 85 q 525 219 476 154 l 582 624 q 526 642 553 636 q 463 647 499 647 z "},"ẳ":{"ha":790,"x_min":69,"x_max":721,"o":"m 460 749 q 590 733 528 749 q 717 686 651 718 l 642 167 q 639 136 639 144 q 649 96 639 111 q 686 71 660 81 l 650 -17 q 560 19 592 -10 q 521 106 528 49 q 421 16 476 49 q 303 -17 365 -17 q 131 60 192 -17 q 69 264 69 136 q 110 486 69 375 q 239 673 151 597 q 460 749 326 749 m 463 647 q 317 588 375 647 q 233 441 260 529 q 206 263 206 353 q 238 128 206 172 q 329 85 269 85 q 431 119 386 85 q 525 219 476 154 l 582 624 q 526 642 553 636 q 463 647 499 647 m 492 831 q 355 879 407 831 q 306 1006 303 928 l 388 1017 q 494 928 407 928 q 580 953 543 928 q 638 1022 617 979 l 721 997 q 639 876 703 921 q 492 831 575 831 m 475 1131 q 558 1152 529 1138 q 586 1201 586 1167 q 536 1240 586 1240 q 453 1218 493 1240 l 428 1294 q 558 1326 488 1326 q 658 1293 622 1326 q 694 1206 694 1260 q 661 1120 694 1150 q 567 1081 628 1090 l 556 1000 l 461 1000 l 475 1131 z "},"ẵ":{"ha":790,"x_min":69,"x_max":751,"o":"m 594 1063 q 540 1074 563 1063 q 492 1104 517 1085 q 464 1123 475 1117 q 440 1129 453 1129 q 395 1113 415 1129 q 353 1063 375 1096 l 281 1107 q 443 1226 354 1226 q 493 1216 474 1226 q 539 1186 513 1206 q 568 1166 557 1172 q 592 1160 579 1160 q 634 1175 614 1160 q 676 1224 654 1190 l 751 1179 q 676 1092 717 1121 q 594 1063 636 1063 m 482 831 q 345 879 397 831 q 296 1006 293 928 l 378 1017 q 485 928 397 928 q 570 953 533 928 q 628 1022 607 979 l 711 997 q 629 876 693 921 q 482 831 565 831 m 460 749 q 590 733 528 749 q 717 686 651 718 l 642 167 q 639 136 639 144 q 649 96 639 111 q 686 71 660 81 l 650 -17 q 560 19 592 -10 q 521 106 528 49 q 421 16 476 49 q 303 -17 365 -17 q 131 60 192 -17 q 69 264 69 136 q 110 486 69 375 q 239 673 151 597 q 460 749 326 749 m 463 647 q 317 588 375 647 q 233 441 260 529 q 206 263 206 353 q 238 128 206 172 q 329 85 269 85 q 431 119 386 85 q 525 219 476 154 l 582 624 q 526 642 553 636 q 463 647 499 647 z "},"ǎ":{"ha":790,"x_min":69,"x_max":732,"o":"m 460 749 q 590 733 528 749 q 717 686 651 718 l 642 167 q 639 136 639 144 q 649 96 639 111 q 686 71 660 81 l 650 -17 q 560 19 592 -10 q 521 106 528 49 q 421 16 476 49 q 303 -17 365 -17 q 131 60 192 -17 q 69 264 69 136 q 110 486 69 375 q 239 673 151 597 q 460 749 326 749 m 463 647 q 317 588 375 647 q 233 441 260 529 q 206 263 206 353 q 238 128 206 172 q 329 85 269 85 q 431 119 386 85 q 525 219 476 154 l 582 624 q 526 642 553 636 q 463 647 499 647 m 685 1090 l 732 1028 l 525 871 l 442 871 l 276 1028 l 333 1090 l 490 974 l 685 1090 z "},"â":{"ha":790,"x_min":69,"x_max":724,"o":"m 460 749 q 590 733 528 749 q 717 686 651 718 l 642 167 q 639 136 639 144 q 649 96 639 111 q 686 71 660 81 l 650 -17 q 560 19 592 -10 q 521 106 528 49 q 421 16 476 49 q 303 -17 365 -17 q 131 60 192 -17 q 69 264 69 136 q 110 486 69 375 q 239 673 151 597 q 460 749 326 749 m 463 647 q 317 588 375 647 q 233 441 260 529 q 206 263 206 353 q 238 128 206 172 q 329 85 269 85 q 431 119 386 85 q 525 219 476 154 l 582 624 q 526 642 553 636 q 463 647 499 647 m 319 881 l 268 943 l 475 1100 l 558 1100 l 724 943 l 663 881 l 506 997 l 319 881 z "},"ấ":{"ha":790,"x_min":69,"x_max":883,"o":"m 813 1239 l 883 1164 l 675 989 l 625 1038 l 813 1239 m 307 818 l 256 881 l 463 1033 l 546 1033 l 711 881 l 654 818 l 494 931 l 307 818 m 460 749 q 590 733 528 749 q 717 686 651 718 l 642 167 q 639 136 639 144 q 649 96 639 111 q 686 71 660 81 l 650 -17 q 560 19 592 -10 q 521 106 528 49 q 421 16 476 49 q 303 -17 365 -17 q 131 60 192 -17 q 69 264 69 136 q 110 486 69 375 q 239 673 151 597 q 460 749 326 749 m 463 647 q 317 588 375 647 q 233 441 260 529 q 206 263 206 353 q 238 128 206 172 q 329 85 269 85 q 431 119 386 85 q 525 219 476 154 l 582 624 q 526 642 553 636 q 463 647 499 647 z "},"ậ":{"ha":790,"x_min":69,"x_max":724,"o":"m 460 749 q 590 733 528 749 q 717 686 651 718 l 642 167 q 639 136 639 144 q 649 96 639 111 q 686 71 660 81 l 650 -17 q 560 19 592 -10 q 521 106 528 49 q 421 16 476 49 q 303 -17 365 -17 q 131 60 192 -17 q 69 264 69 136 q 110 486 69 375 q 239 673 151 597 q 460 749 326 749 m 463 647 q 317 588 375 647 q 233 441 260 529 q 206 263 206 353 q 238 128 206 172 q 329 85 269 85 q 431 119 386 85 q 525 219 476 154 l 582 624 q 526 642 553 636 q 463 647 499 647 m 319 881 l 268 943 l 475 1100 l 558 1100 l 724 943 l 663 881 l 506 997 l 319 881 m 365 -103 q 424 -126 401 -103 q 447 -182 447 -149 q 419 -249 447 -222 q 351 -276 392 -276 q 292 -254 314 -276 q 269 -197 269 -232 q 297 -130 269 -157 q 365 -103 325 -103 z "},"ầ":{"ha":790,"x_min":69,"x_max":717,"o":"m 240 1236 l 375 1032 l 322 989 l 158 1165 l 240 1236 m 308 818 l 257 881 l 464 1033 l 547 1033 l 713 881 l 656 818 l 496 931 l 308 818 m 460 749 q 590 733 528 749 q 717 686 651 718 l 642 167 q 639 136 639 144 q 649 96 639 111 q 686 71 660 81 l 650 -17 q 560 19 592 -10 q 521 106 528 49 q 421 16 476 49 q 303 -17 365 -17 q 131 60 192 -17 q 69 264 69 136 q 110 486 69 375 q 239 673 151 597 q 460 749 326 749 m 463 647 q 317 588 375 647 q 233 441 260 529 q 206 263 206 353 q 238 128 206 172 q 329 85 269 85 q 431 119 386 85 q 525 219 476 154 l 582 624 q 526 642 553 636 q 463 647 499 647 z "},"ẩ":{"ha":790,"x_min":69,"x_max":871,"o":"m 460 749 q 590 733 528 749 q 717 686 651 718 l 642 167 q 639 136 639 144 q 649 96 639 111 q 686 71 660 81 l 650 -17 q 560 19 592 -10 q 521 106 528 49 q 421 16 476 49 q 303 -17 365 -17 q 131 60 192 -17 q 69 264 69 136 q 110 486 69 375 q 239 673 151 597 q 460 749 326 749 m 463 647 q 317 588 375 647 q 233 441 260 529 q 206 263 206 353 q 238 128 206 172 q 329 85 269 85 q 431 119 386 85 q 525 219 476 154 l 582 624 q 526 642 553 636 q 463 647 499 647 m 300 818 l 249 881 l 456 1033 l 539 1033 l 704 881 l 647 818 l 488 931 l 300 818 m 651 1125 q 734 1147 706 1132 q 763 1196 763 1161 q 713 1235 763 1235 q 629 1213 669 1235 l 604 1289 q 735 1321 664 1321 q 835 1288 799 1321 q 871 1200 871 1254 q 838 1115 871 1144 q 743 1075 804 1085 l 732 994 l 638 994 l 651 1125 z "},"ẫ":{"ha":790,"x_min":69,"x_max":764,"o":"m 607 1060 q 552 1071 575 1060 q 504 1101 529 1082 q 476 1120 488 1114 q 453 1126 465 1126 q 408 1110 428 1126 q 365 1060 388 1093 l 293 1104 q 456 1224 367 1224 q 506 1213 486 1224 q 551 1183 525 1203 q 581 1163 569 1169 q 604 1157 592 1157 q 647 1172 626 1157 q 689 1221 667 1188 l 764 1176 q 689 1089 729 1118 q 607 1060 649 1060 m 307 804 l 256 867 l 463 1019 l 546 1019 l 711 867 l 654 804 l 494 917 l 307 804 m 460 749 q 590 733 528 749 q 717 686 651 718 l 642 167 q 639 136 639 144 q 649 96 639 111 q 686 71 660 81 l 650 -17 q 560 19 592 -10 q 521 106 528 49 q 421 16 476 49 q 303 -17 365 -17 q 131 60 192 -17 q 69 264 69 136 q 110 486 69 375 q 239 673 151 597 q 460 749 326 749 m 463 647 q 317 588 375 647 q 233 441 260 529 q 206 263 206 353 q 238 128 206 172 q 329 85 269 85 q 431 119 386 85 q 525 219 476 154 l 582 624 q 526 642 553 636 q 463 647 499 647 z "},"ȁ":{"ha":790,"x_min":69,"x_max":717,"o":"m 460 749 q 590 733 528 749 q 717 686 651 718 l 642 167 q 639 136 639 144 q 649 96 639 111 q 686 71 660 81 l 650 -17 q 560 19 592 -10 q 521 106 528 49 q 421 16 476 49 q 303 -17 365 -17 q 131 60 192 -17 q 69 264 69 136 q 110 486 69 375 q 239 673 151 597 q 460 749 326 749 m 463 647 q 317 588 375 647 q 233 441 260 529 q 206 263 206 353 q 238 128 206 172 q 329 85 269 85 q 431 119 386 85 q 525 219 476 154 l 582 624 q 526 642 553 636 q 463 647 499 647 m 364 1156 l 449 915 l 367 881 l 250 1099 l 364 1156 m 572 1156 l 644 922 l 563 888 l 458 1099 l 572 1156 z "},"ä":{"ha":790,"x_min":69,"x_max":729,"o":"m 460 749 q 590 733 528 749 q 717 686 651 718 l 642 167 q 639 136 639 144 q 649 96 639 111 q 686 71 660 81 l 650 -17 q 560 19 592 -10 q 521 106 528 49 q 421 16 476 49 q 303 -17 365 -17 q 131 60 192 -17 q 69 264 69 136 q 110 486 69 375 q 239 673 151 597 q 460 749 326 749 m 463 647 q 317 588 375 647 q 233 441 260 529 q 206 263 206 353 q 238 128 206 172 q 329 85 269 85 q 431 119 386 85 q 525 219 476 154 l 582 624 q 526 642 553 636 q 463 647 499 647 m 353 908 q 300 928 321 908 q 279 979 279 949 q 304 1041 279 1017 q 367 1065 329 1065 q 419 1045 399 1065 q 440 994 440 1025 q 415 933 440 957 q 353 908 390 908 m 642 908 q 589 928 610 908 q 568 979 568 949 q 593 1041 568 1017 q 656 1065 618 1065 q 708 1045 688 1065 q 729 994 729 1025 q 704 933 729 957 q 642 908 679 908 z "},"ǟ":{"ha":790,"x_min":69,"x_max":724,"o":"m 460 749 q 590 733 528 749 q 717 686 651 718 l 642 167 q 639 136 639 144 q 649 96 639 111 q 686 71 660 81 l 650 -17 q 560 19 592 -10 q 521 106 528 49 q 421 16 476 49 q 303 -17 365 -17 q 131 60 192 -17 q 69 264 69 136 q 110 486 69 375 q 239 673 151 597 q 460 749 326 749 m 463 647 q 317 588 375 647 q 233 441 260 529 q 206 263 206 353 q 238 128 206 172 q 329 85 269 85 q 431 119 386 85 q 525 219 476 154 l 582 624 q 526 642 553 636 q 463 647 499 647 m 347 867 q 294 887 315 867 q 274 938 274 907 q 299 999 274 975 q 361 1024 324 1024 q 414 1003 393 1024 q 435 953 435 983 q 410 891 435 915 q 347 867 385 867 m 636 867 q 583 887 604 867 q 563 938 563 907 q 588 999 563 975 q 650 1024 613 1024 q 703 1003 682 1024 q 724 953 724 983 q 699 891 724 915 q 636 867 674 867 m 700 1099 l 324 1099 l 336 1194 l 713 1194 l 700 1099 z "},"ȧ":{"ha":790,"x_min":69,"x_max":717,"o":"m 460 749 q 590 733 528 749 q 717 686 651 718 l 642 167 q 639 136 639 144 q 649 96 639 111 q 686 71 660 81 l 650 -17 q 560 19 592 -10 q 521 106 528 49 q 421 16 476 49 q 303 -17 365 -17 q 131 60 192 -17 q 69 264 69 136 q 110 486 69 375 q 239 673 151 597 q 460 749 326 749 m 463 647 q 317 588 375 647 q 233 441 260 529 q 206 263 206 353 q 238 128 206 172 q 329 85 269 85 q 431 119 386 85 q 525 219 476 154 l 582 624 q 526 642 553 636 q 463 647 499 647 m 500 910 q 440 933 463 910 q 418 989 418 956 q 446 1056 418 1029 q 514 1083 474 1083 q 574 1061 551 1083 q 596 1004 596 1039 q 568 937 596 964 q 500 910 540 910 z "},"ạ":{"ha":790,"x_min":69,"x_max":717,"o":"m 460 749 q 590 733 528 749 q 717 686 651 718 l 642 167 q 639 136 639 144 q 649 96 639 111 q 686 71 660 81 l 650 -17 q 560 19 592 -10 q 521 106 528 49 q 421 16 476 49 q 303 -17 365 -17 q 131 60 192 -17 q 69 264 69 136 q 110 486 69 375 q 239 673 151 597 q 460 749 326 749 m 463 647 q 317 588 375 647 q 233 441 260 529 q 206 263 206 353 q 238 128 206 172 q 329 85 269 85 q 431 119 386 85 q 525 219 476 154 l 582 624 q 526 642 553 636 q 463 647 499 647 m 365 -103 q 424 -126 401 -103 q 447 -182 447 -149 q 419 -249 447 -222 q 351 -276 392 -276 q 292 -254 314 -276 q 269 -197 269 -232 q 297 -130 269 -157 q 365 -103 325 -103 z "},"ǡ":{"ha":790,"x_min":69,"x_max":717,"o":"m 460 749 q 590 733 528 749 q 717 686 651 718 l 642 167 q 639 136 639 144 q 649 96 639 111 q 686 71 660 81 l 650 -17 q 560 19 592 -10 q 521 106 528 49 q 421 16 476 49 q 303 -17 365 -17 q 131 60 192 -17 q 69 264 69 136 q 110 486 69 375 q 239 673 151 597 q 460 749 326 749 m 463 647 q 317 588 375 647 q 233 441 260 529 q 206 263 206 353 q 238 128 206 172 q 329 85 269 85 q 431 119 386 85 q 525 219 476 154 l 582 624 q 526 642 553 636 q 463 647 499 647 m 488 840 q 428 863 450 840 q 406 919 406 886 q 433 987 406 960 q 501 1014 461 1014 q 561 992 539 1014 q 583 935 583 969 q 556 867 583 894 q 488 840 528 840 m 704 1067 l 328 1067 l 340 1163 l 717 1163 l 704 1067 z "},"à":{"ha":790,"x_min":69,"x_max":717,"o":"m 460 749 q 590 733 528 749 q 717 686 651 718 l 642 167 q 639 136 639 144 q 649 96 639 111 q 686 71 660 81 l 650 -17 q 560 19 592 -10 q 521 106 528 49 q 421 16 476 49 q 303 -17 365 -17 q 131 60 192 -17 q 69 264 69 136 q 110 486 69 375 q 239 673 151 597 q 460 749 326 749 m 463 647 q 317 588 375 647 q 233 441 260 529 q 206 263 206 353 q 238 128 206 172 q 329 85 269 85 q 431 119 386 85 q 525 219 476 154 l 582 624 q 526 642 553 636 q 463 647 499 647 m 422 1113 l 676 954 l 636 886 l 360 1006 l 422 1113 z "},"ả":{"ha":790,"x_min":69,"x_max":717,"o":"m 460 749 q 590 733 528 749 q 717 686 651 718 l 642 167 q 639 136 639 144 q 649 96 639 111 q 686 71 660 81 l 650 -17 q 560 19 592 -10 q 521 106 528 49 q 421 16 476 49 q 303 -17 365 -17 q 131 60 192 -17 q 69 264 69 136 q 110 486 69 375 q 239 673 151 597 q 460 749 326 749 m 463 647 q 317 588 375 647 q 233 441 260 529 q 206 263 206 353 q 238 128 206 172 q 329 85 269 85 q 431 119 386 85 q 525 219 476 154 l 582 624 q 526 642 553 636 q 463 647 499 647 m 453 979 q 535 1001 507 986 q 564 1050 564 1015 q 514 1089 564 1089 q 431 1067 471 1089 l 406 1143 q 536 1175 465 1175 q 636 1142 600 1175 q 672 1054 672 1108 q 639 969 672 999 q 544 929 606 939 l 533 849 l 439 849 l 453 979 z "},"ȃ":{"ha":790,"x_min":69,"x_max":717,"o":"m 460 749 q 590 733 528 749 q 717 686 651 718 l 642 167 q 639 136 639 144 q 649 96 639 111 q 686 71 660 81 l 650 -17 q 560 19 592 -10 q 521 106 528 49 q 421 16 476 49 q 303 -17 365 -17 q 131 60 192 -17 q 69 264 69 136 q 110 486 69 375 q 239 673 151 597 q 460 749 326 749 m 463 647 q 317 588 375 647 q 233 441 260 529 q 206 263 206 353 q 238 128 206 172 q 329 85 269 85 q 431 119 386 85 q 525 219 476 154 l 582 624 q 526 642 553 636 q 463 647 499 647 m 278 875 q 362 1008 299 961 q 510 1056 425 1056 q 648 1004 596 1056 q 697 867 700 953 l 613 856 q 504 958 599 958 q 361 850 407 958 l 278 875 z "},"ɑ":{"ha":790,"x_min":69,"x_max":726,"o":"m 642 167 q 639 136 639 144 q 649 96 639 111 q 686 71 660 81 l 650 -17 q 560 19 592 -10 q 521 106 528 49 q 421 16 476 49 q 303 -17 365 -17 q 130 59 190 -17 q 69 265 69 135 q 113 494 69 382 q 238 677 157 606 q 426 749 319 749 q 528 724 486 749 q 597 642 571 699 l 626 732 l 726 732 l 642 167 m 569 515 q 516 618 551 589 q 426 647 481 647 q 308 593 358 647 q 232 451 258 539 q 206 264 206 363 q 333 85 206 85 q 432 119 388 85 q 525 219 476 154 l 569 515 z "},"ɒ":{"ha":790,"x_min":64,"x_max":721,"o":"m 488 749 q 660 673 600 749 q 721 467 721 597 q 677 238 721 350 q 552 55 633 126 q 364 -17 471 -17 q 262 8 304 -17 q 193 90 219 33 l 164 0 l 64 0 l 149 565 q 151 596 151 588 q 141 636 151 621 q 104 661 131 651 l 140 749 q 231 713 199 742 q 269 626 263 683 q 369 716 314 683 q 488 749 425 749 m 364 85 q 482 139 432 85 q 558 281 532 193 q 585 468 585 369 q 457 647 585 647 q 358 613 403 647 q 265 513 314 578 l 221 217 q 274 114 239 143 q 364 85 310 85 z "},"ā":{"ha":790,"x_min":69,"x_max":717,"o":"m 460 749 q 590 733 528 749 q 717 686 651 718 l 642 167 q 639 136 639 144 q 649 96 639 111 q 686 71 660 81 l 650 -17 q 560 19 592 -10 q 521 106 528 49 q 421 16 476 49 q 303 -17 365 -17 q 131 60 192 -17 q 69 264 69 136 q 110 486 69 375 q 239 673 151 597 q 460 749 326 749 m 463 647 q 317 588 375 647 q 233 441 260 529 q 206 263 206 353 q 238 128 206 172 q 329 85 269 85 q 431 119 386 85 q 525 219 476 154 l 582 624 q 526 642 553 636 q 463 647 499 647 m 686 926 l 310 926 l 322 1022 l 699 1022 l 686 926 z "},"ą":{"ha":790,"x_min":69,"x_max":717,"o":"m 642 167 q 639 136 639 144 q 649 96 639 111 q 686 71 660 81 l 650 -17 q 492 -108 532 -65 q 453 -192 453 -150 q 470 -228 453 -215 q 518 -240 488 -240 q 606 -229 553 -240 l 585 -329 q 500 -337 543 -337 q 384 -301 426 -337 q 342 -207 342 -264 q 568 13 342 -65 q 521 106 529 43 q 421 16 476 49 q 303 -17 365 -17 q 131 60 192 -17 q 69 264 69 136 q 110 486 69 375 q 239 673 151 597 q 460 749 326 749 q 590 733 528 749 q 717 686 651 718 l 642 167 m 582 624 q 526 642 553 636 q 463 647 499 647 q 317 588 375 647 q 233 441 260 529 q 206 263 206 353 q 238 128 206 172 q 329 85 269 85 q 431 119 386 85 q 525 219 476 154 l 582 624 z "},"å":{"ha":790,"x_min":69,"x_max":717,"o":"m 460 749 q 590 733 528 749 q 717 686 651 718 l 642 167 q 639 136 639 144 q 649 96 639 111 q 686 71 660 81 l 650 -17 q 560 19 592 -10 q 521 106 528 49 q 421 16 476 49 q 303 -17 365 -17 q 131 60 192 -17 q 69 264 69 136 q 110 486 69 375 q 239 673 151 597 q 460 749 326 749 m 463 647 q 317 588 375 647 q 233 441 260 529 q 206 263 206 353 q 238 128 206 172 q 329 85 269 85 q 431 119 386 85 q 525 219 476 154 l 582 624 q 526 642 553 636 q 463 647 499 647 m 524 1161 q 627 1123 588 1161 q 667 1028 667 1085 q 617 914 667 961 q 494 867 567 867 q 391 905 431 867 q 351 1000 351 943 q 401 1114 351 1067 q 524 1161 451 1161 m 521 1092 q 458 1065 481 1092 q 436 1001 436 1039 q 452 953 436 971 q 497 936 468 936 q 560 964 538 936 q 583 1028 583 992 q 567 1075 583 1058 q 521 1092 550 1092 z "},"ǻ":{"ha":790,"x_min":69,"x_max":717,"o":"m 460 749 q 590 733 528 749 q 717 686 651 718 l 642 167 q 639 136 639 144 q 649 96 639 111 q 686 71 660 81 l 650 -17 q 560 19 592 -10 q 521 106 528 49 q 421 16 476 49 q 303 -17 365 -17 q 131 60 192 -17 q 69 264 69 136 q 110 486 69 375 q 239 673 151 597 q 460 749 326 749 m 463 647 q 317 588 375 647 q 233 441 260 529 q 206 263 206 353 q 238 128 206 172 q 329 85 269 85 q 431 119 386 85 q 525 219 476 154 l 582 624 q 526 642 553 636 q 463 647 499 647 m 515 1106 q 619 1067 579 1106 q 658 972 658 1029 q 608 858 658 906 q 486 811 558 811 q 383 849 422 811 q 343 944 343 888 q 393 1058 343 1011 q 515 1106 443 1106 m 513 1036 q 450 1010 472 1036 q 428 946 428 983 q 444 898 428 915 q 489 881 460 881 q 552 908 529 881 q 575 972 575 936 q 558 1019 575 1003 q 513 1036 542 1036 m 640 1326 l 682 1219 l 376 1114 l 350 1182 l 640 1326 z "},"ⱥ":{"ha":790,"x_min":69,"x_max":717,"o":"m 642 167 q 639 136 639 144 q 649 96 639 111 q 686 71 660 81 l 650 -17 q 560 19 592 -10 q 521 106 528 49 q 421 16 476 49 q 303 -17 365 -17 q 257 -12 281 -17 l 222 -97 l 165 -82 l 201 4 q 103 102 138 35 q 69 264 69 169 q 110 486 69 375 q 239 673 151 597 q 460 749 326 749 l 508 747 l 542 826 l 599 811 l 568 738 q 717 686 635 725 l 642 167 m 206 263 q 247 117 206 161 l 468 647 l 463 647 q 317 588 375 647 q 233 441 260 529 q 206 263 206 353 m 582 624 q 528 642 558 635 l 299 88 q 329 85 318 85 q 431 119 386 85 q 525 219 476 154 l 582 624 z "},"ã":{"ha":790,"x_min":69,"x_max":742,"o":"m 460 749 q 590 733 528 749 q 717 686 651 718 l 642 167 q 639 136 639 144 q 649 96 639 111 q 686 71 660 81 l 650 -17 q 560 19 592 -10 q 521 106 528 49 q 421 16 476 49 q 303 -17 365 -17 q 131 60 192 -17 q 69 264 69 136 q 110 486 69 375 q 239 673 151 597 q 460 749 326 749 m 463 647 q 317 588 375 647 q 233 441 260 529 q 206 263 206 353 q 238 128 206 172 q 329 85 269 85 q 431 119 386 85 q 525 219 476 154 l 582 624 q 526 642 553 636 q 463 647 499 647 m 585 911 q 530 922 553 911 q 482 953 507 933 q 454 972 465 965 q 431 978 443 978 q 385 961 406 978 q 343 911 365 944 l 271 956 q 433 1075 344 1075 q 483 1065 464 1075 q 529 1035 503 1054 q 558 1015 547 1021 q 582 1008 569 1008 q 624 1024 604 1008 q 667 1072 644 1039 l 742 1028 q 667 940 707 969 q 585 911 626 911 z "},"ɐ":{"ha":742,"x_min":97,"x_max":703,"o":"m 228 228 q 226 194 226 215 q 255 112 226 136 q 354 88 283 88 q 551 128 435 88 l 581 32 q 326 -17 444 -17 q 156 34 214 -17 q 97 181 97 85 q 101 231 97 206 l 149 567 q 151 597 151 589 q 141 638 151 622 q 104 663 131 653 l 140 750 q 226 717 194 742 q 268 640 258 692 q 493 749 351 749 q 647 696 590 749 q 703 556 703 643 q 606 356 703 425 q 350 286 508 286 l 236 286 l 228 228 m 465 653 q 358 623 406 653 q 271 533 311 593 l 249 371 l 339 371 q 509 417 450 371 q 568 554 568 463 q 542 628 568 603 q 465 653 515 653 z "},"æ":{"ha":1135,"x_min":39,"x_max":1097,"o":"m 396 749 q 615 633 563 749 q 721 717 657 685 q 865 749 785 749 q 1037 694 976 749 q 1097 563 1097 640 q 1034 406 1097 464 q 868 320 971 347 q 615 278 765 293 q 660 135 617 179 q 781 90 704 90 q 879 107 832 90 q 976 158 926 124 l 1031 72 q 768 -17 907 -17 q 621 17 682 -17 q 526 113 560 50 q 403 13 468 43 q 257 -17 338 -17 q 97 36 156 -17 q 39 176 39 89 q 124 356 39 285 q 394 428 208 428 l 507 428 q 535 533 518 485 q 488 614 532 583 q 376 644 444 644 q 285 636 326 644 q 183 608 244 628 l 158 704 q 396 749 278 749 m 864 647 q 701 568 760 647 q 624 375 642 489 q 813 406 742 388 q 924 461 885 425 q 964 558 964 497 q 940 619 964 592 q 864 647 917 647 m 406 340 q 235 301 292 340 q 178 175 178 263 q 279 79 178 79 q 394 111 342 79 q 496 210 446 143 q 493 283 493 222 q 494 340 493 331 l 406 340 z "},"ǽ":{"ha":1135,"x_min":39,"x_max":1097,"o":"m 396 749 q 615 633 563 749 q 721 717 657 685 q 865 749 785 749 q 1037 694 976 749 q 1097 563 1097 640 q 1034 406 1097 464 q 868 320 971 347 q 615 278 765 293 q 660 135 617 179 q 781 90 704 90 q 879 107 832 90 q 976 158 926 124 l 1031 72 q 768 -17 907 -17 q 621 17 682 -17 q 526 113 560 50 q 403 13 468 43 q 257 -17 338 -17 q 97 36 156 -17 q 39 176 39 89 q 124 356 39 285 q 394 428 208 428 l 507 428 q 535 533 518 485 q 488 614 532 583 q 376 644 444 644 q 285 636 326 644 q 183 608 244 628 l 158 704 q 396 749 278 749 m 864 647 q 701 568 760 647 q 624 375 642 489 q 813 406 742 388 q 924 461 885 425 q 964 558 964 497 q 940 619 964 592 q 864 647 917 647 m 406 340 q 235 301 292 340 q 178 175 178 263 q 279 79 178 79 q 394 111 342 79 q 496 210 446 143 q 493 283 493 222 q 494 340 493 331 l 406 340 m 796 1113 l 838 1006 l 532 886 l 503 954 l 796 1113 z "},"ǣ":{"ha":1135,"x_min":39,"x_max":1097,"o":"m 396 749 q 615 633 563 749 q 721 717 657 685 q 865 749 785 749 q 1037 694 976 749 q 1097 563 1097 640 q 1034 406 1097 464 q 868 320 971 347 q 615 278 765 293 q 660 135 617 179 q 781 90 704 90 q 879 107 832 90 q 976 158 926 124 l 1031 72 q 768 -17 907 -17 q 621 17 682 -17 q 526 113 560 50 q 403 13 468 43 q 257 -17 338 -17 q 97 36 156 -17 q 39 176 39 89 q 124 356 39 285 q 394 428 208 428 l 507 428 q 535 533 518 485 q 488 614 532 583 q 376 644 444 644 q 285 636 326 644 q 183 608 244 628 l 158 704 q 396 749 278 749 m 864 647 q 701 568 760 647 q 624 375 642 489 q 813 406 742 388 q 924 461 885 425 q 964 558 964 497 q 940 619 964 592 q 864 647 917 647 m 406 340 q 235 301 292 340 q 178 175 178 263 q 279 79 178 79 q 394 111 342 79 q 496 210 446 143 q 493 283 493 222 q 494 340 493 331 l 406 340 m 849 926 l 472 926 l 485 1022 l 861 1022 l 849 926 z "},"b":{"ha":804,"x_min":83,"x_max":733,"o":"m 510 749 q 674 673 614 749 q 733 461 733 597 q 693 238 733 347 q 565 56 653 129 q 342 -17 476 -17 q 222 -6 281 -17 q 83 32 164 6 l 224 1026 l 351 1042 l 299 660 q 400 726 349 704 q 510 749 451 749 m 474 647 q 374 619 419 647 q 282 542 329 592 l 222 107 q 285 90 257 94 q 351 85 313 85 q 492 144 436 85 q 575 292 549 203 q 601 471 601 381 q 474 647 601 647 z "},"ḃ":{"ha":804,"x_min":83,"x_max":733,"o":"m 510 749 q 674 673 614 749 q 733 461 733 597 q 693 238 733 347 q 565 56 653 129 q 342 -17 476 -17 q 222 -6 281 -17 q 83 32 164 6 l 224 1026 l 351 1042 l 299 660 q 400 726 349 704 q 510 749 451 749 m 474 647 q 374 619 419 647 q 282 542 329 592 l 222 107 q 285 90 257 94 q 351 85 313 85 q 492 144 436 85 q 575 292 549 203 q 601 471 601 381 q 474 647 601 647 m 539 1154 q 479 1177 501 1154 q 457 1233 457 1200 q 485 1301 457 1274 q 553 1328 513 1328 q 613 1306 590 1328 q 635 1249 635 1283 q 607 1181 635 1208 q 539 1154 579 1154 z "},"ḅ":{"ha":804,"x_min":83,"x_max":733,"o":"m 510 749 q 674 673 614 749 q 733 461 733 597 q 693 238 733 347 q 565 56 653 129 q 342 -17 476 -17 q 222 -6 281 -17 q 83 32 164 6 l 224 1026 l 351 1042 l 299 660 q 400 726 349 704 q 510 749 451 749 m 474 647 q 374 619 419 647 q 282 542 329 592 l 222 107 q 285 90 257 94 q 351 85 313 85 q 492 144 436 85 q 575 292 549 203 q 601 471 601 381 q 474 647 601 647 m 332 -103 q 391 -126 368 -103 q 414 -182 414 -149 q 386 -249 414 -222 q 318 -276 358 -276 q 258 -254 281 -276 q 236 -197 236 -232 q 264 -130 236 -157 q 332 -103 292 -103 z "},"ꞵ":{"ha":832,"x_min":38,"x_max":758,"o":"m 185 756 q 287 967 203 892 q 500 1042 371 1042 q 683 979 611 1042 q 754 810 754 917 q 695 646 754 719 q 515 554 636 572 q 688 487 617 544 q 758 310 758 429 q 721 157 758 232 q 606 33 683 82 q 417 -17 529 -17 q 308 2 361 -17 q 214 57 256 21 l 167 -283 l 38 -300 l 185 756 m 407 86 q 576 154 524 86 q 629 313 629 222 q 576 455 629 406 q 421 504 522 504 l 347 504 l 374 601 l 439 601 q 549 633 506 601 q 614 713 593 665 q 635 808 635 760 q 599 909 635 876 q 499 942 563 942 q 372 892 419 942 q 311 747 325 843 l 229 157 q 307 104 261 122 q 407 86 353 86 z "},"ɓ":{"ha":804,"x_min":83,"x_max":733,"o":"m 511 749 q 675 674 617 749 q 733 461 733 599 q 693 238 733 347 q 565 56 653 129 q 342 -17 476 -17 q 222 -6 281 -17 q 83 32 164 6 l 182 731 l 197 836 q 276 986 210 931 q 447 1042 342 1042 q 535 1033 497 1042 q 618 1003 574 1024 l 571 913 q 451 939 514 939 q 360 912 390 939 q 324 829 331 885 l 310 731 l 299 660 q 401 726 350 704 q 511 749 453 749 m 351 85 q 492 144 436 85 q 575 292 549 203 q 601 471 601 381 q 471 647 601 647 q 374 619 418 647 q 282 542 329 592 l 222 107 q 285 90 257 94 q 351 85 313 85 z "},"ʭ":{"ha":472,"x_min":-10,"x_max":485,"o":"m 456 554 l 368 554 l 386 679 l 175 679 l 157 554 l 69 554 l 99 761 l 485 761 l 456 554 m 376 -1 l 289 -1 l 307 124 l 96 124 l 78 -1 l -10 -1 l 19 206 l 406 206 l 376 -1 z "},"ʘ":{"ha":1090,"x_min":86,"x_max":1036,"o":"m 625 974 q 841 926 749 974 q 985 786 933 878 q 1036 567 1036 694 q 969 271 1036 404 q 778 60 901 138 q 497 -17 656 -17 q 281 31 374 -17 q 137 169 188 78 q 86 389 86 261 q 154 685 86 551 q 345 897 222 819 q 625 974 468 974 m 622 871 q 398 806 492 871 q 256 632 304 742 q 207 389 207 522 q 285 160 207 235 q 500 86 364 86 q 726 150 632 86 q 869 324 821 214 q 917 567 917 433 q 838 796 915 721 q 622 871 761 871 m 556 393 q 497 416 519 393 q 474 472 474 439 q 501 540 474 513 q 569 567 529 567 q 629 544 607 567 q 651 488 651 522 q 624 420 651 447 q 556 393 596 393 z "},"ʬ":{"ha":649,"x_min":44,"x_max":682,"o":"m 682 924 l 538 556 l 418 556 l 392 825 l 289 556 l 164 556 l 122 924 l 229 924 l 242 646 l 350 924 l 463 924 l 489 644 l 582 924 l 682 924 m 604 368 l 460 0 l 340 0 l 314 269 l 211 0 l 86 0 l 44 368 l 151 368 l 164 90 l 272 368 l 385 368 l 411 89 l 504 368 l 604 368 z "},"ƀ":{"ha":817,"x_min":96,"x_max":746,"o":"m 522 749 q 686 673 626 749 q 746 461 746 597 q 706 238 746 347 q 577 56 665 129 q 354 -17 489 -17 q 235 -6 293 -17 q 96 32 176 6 l 210 842 l 100 842 l 114 939 l 224 939 l 236 1026 l 364 1042 l 350 939 l 560 939 l 533 842 l 336 842 l 311 660 q 413 726 361 704 q 522 749 464 749 m 364 85 q 505 144 449 85 q 588 292 561 203 q 614 471 614 381 q 486 647 614 647 q 387 619 432 647 q 294 542 342 592 l 235 107 q 297 90 269 94 q 364 85 325 85 z "},"ƃ":{"ha":804,"x_min":83,"x_max":733,"o":"m 511 749 q 675 674 617 749 q 733 461 733 599 q 693 238 733 347 q 565 56 653 129 q 342 -17 476 -17 q 222 -6 281 -17 q 83 32 164 6 l 224 1026 l 660 1026 l 629 929 l 336 929 l 299 660 q 401 726 350 704 q 511 749 453 749 m 351 85 q 492 144 436 85 q 575 292 549 203 q 601 471 601 381 q 471 647 601 647 q 374 619 418 647 q 283 542 329 590 l 222 107 q 285 90 257 94 q 351 85 313 85 z "},"c":{"ha":656,"x_min":72,"x_max":656,"o":"m 443 749 q 656 668 571 749 l 588 589 q 521 631 554 618 q 444 643 488 643 q 305 585 358 643 q 228 443 251 528 q 206 272 206 358 q 354 92 206 92 q 438 106 400 92 q 524 149 476 119 l 575 60 q 346 -17 468 -17 q 144 62 215 -17 q 72 282 72 140 q 111 495 72 388 q 233 676 150 603 q 443 749 317 749 z "},"ć":{"ha":656,"x_min":72,"x_max":656,"o":"m 443 749 q 656 668 571 749 l 588 589 q 521 631 554 618 q 444 643 488 643 q 305 585 358 643 q 228 443 251 528 q 206 272 206 358 q 354 92 206 92 q 438 106 400 92 q 524 149 476 119 l 575 60 q 346 -17 468 -17 q 144 62 215 -17 q 72 282 72 140 q 111 495 72 388 q 233 676 150 603 q 443 749 317 749 m 613 1113 l 654 1006 l 349 886 l 319 954 l 613 1113 z "},"č":{"ha":656,"x_min":72,"x_max":711,"o":"m 443 749 q 656 668 571 749 l 588 589 q 521 631 554 618 q 444 643 488 643 q 305 585 358 643 q 228 443 251 528 q 206 272 206 358 q 354 92 206 92 q 438 106 400 92 q 524 149 476 119 l 575 60 q 346 -17 468 -17 q 144 62 215 -17 q 72 282 72 140 q 111 495 72 388 q 233 676 150 603 q 443 749 317 749 m 664 1090 l 711 1028 l 504 871 l 421 871 l 256 1028 l 313 1090 l 469 974 l 664 1090 z "},"ç":{"ha":656,"x_min":72,"x_max":656,"o":"m 444 643 q 305 585 358 643 q 228 443 251 528 q 206 272 206 358 q 354 92 206 92 q 438 106 400 92 q 524 149 476 119 l 575 60 q 368 -17 478 -8 l 358 -78 q 443 -114 414 -83 q 472 -190 472 -144 q 424 -293 472 -251 q 293 -335 376 -335 q 164 -297 214 -335 l 207 -229 q 245 -246 226 -240 q 293 -251 264 -251 q 347 -235 326 -251 q 368 -192 368 -219 q 344 -149 368 -161 q 254 -137 319 -137 l 285 -11 q 128 83 183 7 q 72 282 72 158 q 111 495 72 388 q 233 676 150 603 q 443 749 317 749 q 656 668 571 749 l 588 589 q 521 631 554 618 q 444 643 488 643 z "},"ĉ":{"ha":656,"x_min":72,"x_max":703,"o":"m 443 749 q 656 668 571 749 l 588 589 q 521 631 554 618 q 444 643 488 643 q 305 585 358 643 q 228 443 251 528 q 206 272 206 358 q 354 92 206 92 q 438 106 400 92 q 524 149 476 119 l 575 60 q 346 -17 468 -17 q 144 62 215 -17 q 72 282 72 140 q 111 495 72 388 q 233 676 150 603 q 443 749 317 749 m 299 881 l 247 943 l 454 1100 l 538 1100 l 703 943 l 642 881 l 485 997 l 299 881 z "},"ɕ":{"ha":672,"x_min":72,"x_max":656,"o":"m 461 325 q 569 289 529 325 q 610 188 610 253 q 535 38 610 92 q 346 -17 460 -17 q 246 -1 294 -17 l 186 -104 l 108 -68 l 169 36 l 171 38 q 72 282 72 118 q 111 495 72 388 q 233 676 150 603 q 443 749 317 749 q 656 668 571 749 l 588 589 q 521 631 554 618 q 444 643 488 643 q 305 587 358 643 q 228 446 251 531 q 206 272 206 361 q 236 147 206 190 l 239 151 q 339 284 289 243 q 461 325 389 325 m 364 92 q 463 117 425 92 q 500 188 500 142 q 488 220 500 208 q 451 232 475 232 q 384 204 414 232 q 308 99 354 176 q 364 92 329 92 z "},"ċ":{"ha":656,"x_min":72,"x_max":656,"o":"m 443 749 q 656 668 571 749 l 588 589 q 521 631 554 618 q 444 643 488 643 q 305 585 358 643 q 228 443 251 528 q 206 272 206 358 q 354 92 206 92 q 438 106 400 92 q 524 149 476 119 l 575 60 q 346 -17 468 -17 q 144 62 215 -17 q 72 282 72 140 q 111 495 72 388 q 233 676 150 603 q 443 749 317 749 m 479 910 q 419 933 442 910 q 397 989 397 956 q 425 1056 397 1029 q 493 1083 453 1083 q 553 1061 531 1083 q 575 1004 575 1039 q 547 937 575 964 q 479 910 519 910 z "},"ƈ":{"ha":656,"x_min":72,"x_max":938,"o":"m 782 1042 q 938 986 871 1042 l 881 908 q 836 932 856 925 q 786 939 817 939 q 714 912 743 939 q 678 832 685 885 l 656 668 l 600 603 q 444 643 519 643 q 305 585 358 643 q 228 443 251 528 q 206 272 206 358 q 354 92 206 92 q 438 106 400 92 q 524 149 476 119 l 575 60 q 346 -17 468 -17 q 144 62 215 -17 q 72 282 72 140 q 111 495 72 388 q 232 676 150 603 q 438 749 314 749 q 538 729 494 749 l 551 829 q 627 988 567 935 q 782 1042 688 1042 z "},"ʗ":{"ha":681,"x_min":72,"x_max":682,"o":"m 478 749 q 588 729 539 749 q 682 667 636 710 l 617 592 q 551 631 583 619 q 476 643 518 643 q 324 555 385 643 q 233 335 263 467 q 204 72 204 203 q 240 -124 204 -64 q 346 -185 275 -185 q 424 -171 388 -185 q 508 -126 461 -157 l 561 -215 q 339 -293 454 -293 q 141 -199 210 -293 q 72 72 72 -106 q 118 397 72 242 q 256 650 164 551 q 478 749 347 749 z "},"ȼ":{"ha":656,"x_min":72,"x_max":656,"o":"m 588 589 q 524 629 554 618 l 303 99 q 354 92 328 92 q 438 106 400 92 q 524 149 476 119 l 575 60 q 346 -17 468 -17 q 260 -6 301 -17 l 222 -97 l 165 -82 l 206 15 q 106 117 140 49 q 72 282 72 185 q 111 495 72 388 q 233 676 150 603 q 443 749 317 749 q 507 743 479 749 l 542 826 l 599 811 l 564 728 q 656 668 615 707 l 588 589 m 465 642 q 444 643 458 643 q 305 585 358 643 q 228 443 251 528 q 206 272 206 358 q 251 126 206 172 l 465 642 z "},"d":{"ha":815,"x_min":71,"x_max":778,"o":"m 778 1025 l 633 0 l 522 0 l 524 121 q 428 19 483 56 q 303 -17 372 -17 q 131 61 192 -17 q 71 274 71 139 q 106 489 71 379 q 218 674 142 599 q 411 749 294 749 q 599 657 526 749 l 653 1039 l 778 1025 m 435 647 q 301 586 353 647 q 228 437 250 525 q 206 264 206 349 q 238 129 206 174 q 328 85 269 85 q 440 126 392 85 q 543 254 489 168 l 586 558 q 521 625 557 603 q 435 647 485 647 z "},"ð":{"ha":797,"x_min":68,"x_max":711,"o":"m 544 917 q 672 748 632 844 q 711 524 711 651 q 669 247 711 369 q 543 54 628 125 q 333 -17 458 -17 q 142 58 215 -17 q 68 264 68 132 q 103 447 68 356 q 212 599 139 538 q 390 660 285 660 q 585 574 518 660 q 552 726 581 660 q 465 847 524 793 l 350 749 l 267 793 l 386 899 q 238 944 322 928 l 272 1040 q 467 972 392 1015 l 581 1078 l 647 1013 l 544 917 m 336 85 q 510 190 450 85 q 581 456 569 294 q 407 560 526 560 q 245 469 293 560 q 197 261 197 379 q 234 129 197 174 q 336 85 271 85 z "},"ȸ":{"ha":1181,"x_min":71,"x_max":1110,"o":"m 899 749 q 1053 674 997 749 q 1110 464 1110 599 q 1071 232 1110 343 q 958 52 1032 121 q 783 -17 883 -17 q 688 13 728 -17 q 617 97 649 42 l 590 0 l 494 0 l 497 106 q 397 14 451 44 q 289 -17 343 -17 q 129 61 188 -17 q 71 272 71 139 q 111 503 71 393 q 225 681 151 613 q 396 749 299 749 q 497 719 453 749 q 568 639 542 690 l 622 1026 l 751 1042 l 694 640 q 788 722 739 694 q 899 749 836 749 m 319 85 q 415 115 371 85 q 510 211 460 146 l 556 544 q 417 647 503 647 q 299 589 347 647 q 228 444 251 531 q 206 274 206 357 q 319 85 206 85 m 767 85 q 882 144 835 85 q 953 292 929 204 q 976 464 976 381 q 947 605 976 563 q 863 647 917 647 q 763 616 807 647 q 681 533 719 585 l 632 193 q 690 109 663 133 q 767 85 718 85 z "},"ď":{"ha":815,"x_min":71,"x_max":972,"o":"m 778 1025 l 633 0 l 522 0 l 524 121 q 428 19 483 56 q 303 -17 372 -17 q 131 61 192 -17 q 71 274 71 139 q 106 489 71 379 q 218 674 142 599 q 411 749 294 749 q 599 657 526 749 l 653 1039 l 778 1025 m 435 647 q 301 586 353 647 q 228 437 250 525 q 206 264 206 349 q 238 129 206 174 q 328 85 269 85 q 440 126 392 85 q 543 254 489 168 l 586 558 q 521 625 557 603 q 435 647 485 647 m 858 1040 l 972 1026 l 872 771 l 800 782 l 858 1040 z "},"ḓ":{"ha":815,"x_min":71,"x_max":778,"o":"m 778 1025 l 633 0 l 522 0 l 524 121 q 428 19 483 56 q 303 -17 372 -17 q 131 61 192 -17 q 71 274 71 139 q 106 489 71 379 q 218 674 142 599 q 411 749 294 749 q 599 657 526 749 l 653 1039 l 778 1025 m 435 647 q 301 586 353 647 q 228 437 250 525 q 206 264 206 349 q 238 129 206 174 q 328 85 269 85 q 440 126 392 85 q 543 254 489 168 l 586 558 q 521 625 557 603 q 435 647 485 647 m 138 -314 l 86 -251 l 293 -94 l 376 -94 l 542 -251 l 481 -314 l 324 -197 l 138 -314 z "},"đ":{"ha":826,"x_min":71,"x_max":874,"o":"m 860 842 l 751 842 l 633 0 l 522 0 l 524 121 q 428 19 483 56 q 303 -17 372 -17 q 131 61 192 -17 q 71 274 71 139 q 106 489 71 379 q 218 674 142 599 q 411 749 294 749 q 599 657 526 749 l 625 842 l 415 842 l 415 939 l 639 939 l 653 1039 l 778 1025 l 765 939 l 874 939 l 860 842 m 586 558 q 521 625 557 603 q 435 647 485 647 q 301 586 353 647 q 228 437 250 525 q 206 264 206 349 q 238 129 206 174 q 328 85 269 85 q 440 126 392 85 q 543 254 489 168 l 586 558 z "},"ȡ":{"ha":1013,"x_min":71,"x_max":1013,"o":"m 872 311 q 973 276 933 311 q 1013 182 1013 240 q 937 36 1013 89 q 749 -17 861 -17 q 660 -6 701 -17 l 603 -104 l 525 -68 l 586 32 q 535 129 543 68 q 303 -17 439 -17 q 131 61 192 -17 q 71 274 71 139 q 106 489 71 379 q 218 674 142 599 q 411 749 294 749 q 599 657 526 749 l 653 1039 l 778 1025 l 658 181 q 656 147 656 156 l 658 151 q 751 269 700 226 q 872 311 803 311 m 585 558 q 521 625 557 603 q 435 647 485 647 q 301 586 353 647 q 228 437 250 525 q 206 264 206 349 q 238 129 206 174 q 328 85 269 85 q 440 127 392 85 q 542 254 489 169 l 585 558 m 767 92 q 865 115 828 92 q 903 178 903 138 q 861 218 903 218 q 798 192 826 218 q 724 93 769 165 q 767 92 736 92 z "},"ḋ":{"ha":815,"x_min":71,"x_max":778,"o":"m 778 1025 l 633 0 l 522 0 l 524 121 q 428 19 483 56 q 303 -17 372 -17 q 131 61 192 -17 q 71 274 71 139 q 106 489 71 379 q 218 674 142 599 q 411 749 294 749 q 599 657 526 749 l 653 1039 l 778 1025 m 435 647 q 301 586 353 647 q 228 437 250 525 q 206 264 206 349 q 238 129 206 174 q 328 85 269 85 q 440 126 392 85 q 543 254 489 168 l 586 558 q 521 625 557 603 q 435 647 485 647 m 501 1154 q 442 1177 464 1154 q 419 1233 419 1200 q 447 1301 419 1274 q 515 1328 475 1328 q 575 1306 553 1328 q 597 1249 597 1283 q 569 1181 597 1208 q 501 1154 542 1154 z "},"ḍ":{"ha":815,"x_min":71,"x_max":778,"o":"m 778 1025 l 633 0 l 522 0 l 524 121 q 428 19 483 56 q 303 -17 372 -17 q 131 61 192 -17 q 71 274 71 139 q 106 489 71 379 q 218 674 142 599 q 411 749 294 749 q 599 657 526 749 l 653 1039 l 778 1025 m 435 647 q 301 586 353 647 q 228 437 250 525 q 206 264 206 349 q 238 129 206 174 q 328 85 269 85 q 440 126 392 85 q 543 254 489 168 l 586 558 q 521 625 557 603 q 435 647 485 647 m 332 -103 q 391 -126 368 -103 q 414 -182 414 -149 q 386 -249 414 -222 q 318 -276 358 -276 q 258 -254 281 -276 q 236 -197 236 -232 q 264 -130 236 -157 q 332 -103 292 -103 z "},"ƍ":{"ha":797,"x_min":71,"x_max":726,"o":"m 306 -300 q 173 -279 226 -300 q 71 -215 119 -258 l 140 -143 q 216 -187 179 -175 q 304 -200 253 -200 q 409 -170 374 -200 q 444 -93 444 -140 q 415 -28 444 -54 q 303 36 386 -1 q 132 157 188 89 q 76 331 76 225 q 115 511 76 414 q 236 678 153 608 q 446 749 319 749 q 651 667 575 749 q 726 451 726 585 q 667 227 726 321 q 465 72 607 133 q 549 -3 524 35 q 574 -89 574 -42 q 543 -190 574 -142 q 451 -269 513 -239 q 306 -300 390 -300 m 385 111 q 547 259 501 176 q 592 464 592 342 q 553 597 592 547 q 442 646 515 646 q 306 592 358 646 q 233 463 254 538 q 211 326 211 389 q 251 202 211 250 q 385 111 290 154 z "},"ʤ":{"ha":1303,"x_min":71,"x_max":1281,"o":"m 1268 635 l 926 286 q 1142 222 1069 285 q 1214 49 1214 160 q 1167 -131 1214 -53 q 1035 -253 1119 -210 q 844 -296 951 -296 q 683 -264 750 -296 q 568 -168 617 -232 l 647 -101 q 738 -172 693 -151 q 844 -192 782 -192 q 1017 -124 954 -192 q 1081 49 1081 -56 q 1036 160 1081 128 q 889 192 992 192 l 776 192 l 778 193 l 790 285 l 1119 626 l 722 626 l 633 0 l 522 0 l 524 121 q 428 19 483 56 q 303 -17 372 -17 q 131 61 192 -17 q 71 274 71 139 q 106 489 71 379 q 218 674 142 599 q 411 749 294 749 q 599 657 526 749 l 653 1039 l 778 1025 l 736 732 l 1281 732 l 1268 635 m 586 558 q 521 625 557 603 q 435 647 485 647 q 301 586 353 647 q 228 437 250 525 q 206 264 206 349 q 238 129 206 174 q 328 85 269 85 q 440 126 392 85 q 543 254 489 168 l 586 558 z "},"ɗ":{"ha":815,"x_min":71,"x_max":1011,"o":"m 856 1042 q 942 1026 906 1042 q 1011 986 979 1011 l 954 908 q 910 932 929 925 q 860 939 890 939 q 786 912 815 939 q 750 832 757 885 l 736 732 l 633 0 l 522 0 l 524 121 q 428 19 483 56 q 303 -17 372 -17 q 131 61 192 -17 q 71 274 71 139 q 106 489 71 379 q 218 674 142 599 q 411 749 294 749 q 599 657 526 749 l 610 732 l 624 829 q 699 988 639 935 q 856 1042 760 1042 m 585 558 q 521 625 557 603 q 435 647 485 647 q 301 586 353 647 q 228 437 250 525 q 206 264 206 349 q 238 129 206 174 q 328 85 269 85 q 440 127 392 85 q 542 254 489 169 l 585 558 z "},"ḏ":{"ha":815,"x_min":71,"x_max":778,"o":"m 778 1025 l 633 0 l 522 0 l 524 121 q 428 19 483 56 q 303 -17 372 -17 q 131 61 192 -17 q 71 274 71 139 q 106 489 71 379 q 218 674 142 599 q 411 749 294 749 q 599 657 526 749 l 653 1039 l 778 1025 m 435 647 q 301 586 353 647 q 228 437 250 525 q 206 264 206 349 q 238 129 206 174 q 328 85 269 85 q 440 126 392 85 q 543 254 489 168 l 586 558 q 521 625 557 603 q 435 647 485 647 m 149 -144 l 525 -144 l 513 -240 l 136 -240 l 149 -144 z "},"ɖ":{"ha":817,"x_min":71,"x_max":844,"o":"m 844 -246 q 681 -296 771 -296 q 543 -250 593 -296 q 493 -119 493 -204 q 496 -75 493 -90 l 507 0 l 525 119 q 428 19 485 54 q 303 -17 372 -17 q 131 61 192 -17 q 71 274 71 139 q 106 489 71 379 q 218 674 142 599 q 411 749 294 749 q 599 657 526 749 l 653 1039 l 778 1025 l 633 0 l 621 -94 q 619 -121 619 -104 q 690 -193 619 -193 q 746 -185 722 -193 q 800 -162 769 -178 l 844 -246 m 328 85 q 440 127 392 85 q 542 254 489 169 l 585 558 q 521 625 557 603 q 435 647 485 647 q 301 586 353 647 q 228 437 250 525 q 206 264 206 349 q 238 129 206 174 q 328 85 269 85 z "},"ƌ":{"ha":815,"x_min":71,"x_max":778,"o":"m 633 0 l 522 0 l 524 121 q 428 19 483 56 q 303 -17 372 -17 q 131 61 192 -17 q 71 274 71 139 q 106 489 71 379 q 218 674 142 599 q 411 749 294 749 q 599 657 526 749 l 638 929 l 335 929 l 349 1026 l 778 1026 l 633 0 m 585 558 q 521 625 557 603 q 435 647 485 647 q 301 586 353 647 q 228 437 250 525 q 206 264 206 349 q 238 129 206 174 q 328 85 269 85 q 440 127 392 85 q 542 254 489 169 l 585 558 z "},"ǳ":{"ha":1414,"x_min":71,"x_max":1421,"o":"m 778 1025 l 633 0 l 522 0 l 524 121 q 428 19 483 56 q 303 -17 372 -17 q 131 61 192 -17 q 71 274 71 139 q 106 489 71 379 q 218 674 142 599 q 411 749 294 749 q 599 657 526 749 l 653 1039 l 778 1025 m 435 647 q 301 586 353 647 q 228 437 250 525 q 206 264 206 349 q 238 129 206 174 q 328 85 269 85 q 440 126 392 85 q 543 254 489 168 l 586 558 q 521 625 557 603 q 435 647 485 647 m 1421 732 l 1408 635 l 967 107 l 1338 107 l 1308 0 l 797 0 l 810 96 l 1250 624 l 917 624 l 932 732 l 1421 732 z "},"ʣ":{"ha":1249,"x_min":71,"x_max":1256,"o":"m 1243 635 l 789 107 l 1172 107 l 1143 0 l 522 0 l 524 121 q 428 19 483 56 q 303 -17 372 -17 q 131 61 192 -17 q 71 274 71 139 q 106 489 71 379 q 218 674 142 599 q 411 749 294 749 q 599 657 526 749 l 653 1039 l 778 1025 l 736 732 l 1256 732 l 1243 635 m 586 558 q 521 625 557 603 q 435 647 485 647 q 301 586 353 647 q 228 437 250 525 q 206 264 206 349 q 238 129 206 174 q 328 85 269 85 q 440 126 392 85 q 543 254 489 168 l 586 558 m 647 99 l 1085 624 l 721 624 l 647 99 z "},"ǆ":{"ha":1414,"x_min":71,"x_max":1439,"o":"m 778 1025 l 633 0 l 522 0 l 524 121 q 428 19 483 56 q 303 -17 372 -17 q 131 61 192 -17 q 71 274 71 139 q 106 489 71 379 q 218 674 142 599 q 411 749 294 749 q 599 657 526 749 l 653 1039 l 778 1025 m 435 647 q 301 586 353 647 q 228 437 250 525 q 206 264 206 349 q 238 129 206 174 q 328 85 269 85 q 440 126 392 85 q 543 254 489 168 l 586 558 q 521 625 557 603 q 435 647 485 647 m 1421 732 l 1408 635 l 967 107 l 1338 107 l 1308 0 l 797 0 l 810 96 l 1250 624 l 917 624 l 932 732 l 1421 732 m 1392 1090 l 1439 1028 l 1232 871 l 1149 871 l 983 1028 l 1040 1090 l 1197 974 l 1392 1090 z "},"ʥ":{"ha":1264,"x_min":71,"x_max":1285,"o":"m 1285 179 q 1209 43 1285 85 q 1008 0 1133 1 q 976 -174 992 -65 l 883 -165 q 913 0 893 -97 l 522 0 l 524 121 q 428 19 483 56 q 303 -17 372 -17 q 131 61 192 -17 q 71 274 71 139 q 106 489 71 379 q 218 674 142 599 q 411 749 294 749 q 599 657 526 749 l 653 1039 l 778 1025 l 736 732 l 1256 732 l 1243 635 l 794 107 l 944 107 q 1151 297 1004 297 q 1248 266 1211 297 q 1285 179 1285 235 m 586 558 q 521 625 557 603 q 435 647 485 647 q 301 586 353 647 q 228 437 250 525 q 206 264 206 349 q 238 129 206 174 q 328 85 269 85 q 440 126 392 85 q 543 254 489 168 l 586 558 m 721 624 l 647 99 l 1093 624 l 721 624 m 1043 108 q 1147 126 1114 111 q 1181 179 1181 142 q 1140 213 1181 213 q 1086 190 1110 213 q 1043 108 1063 167 z "},"e":{"ha":718,"x_min":72,"x_max":681,"o":"m 681 563 q 556 360 681 422 q 206 272 431 297 q 364 90 210 90 q 463 107 415 90 q 560 158 510 124 l 614 72 q 351 -17 490 -17 q 145 62 218 -17 q 72 281 72 140 q 110 498 72 390 q 233 677 149 606 q 449 749 318 749 q 620 694 560 749 q 681 563 681 640 m 213 369 q 466 429 385 389 q 547 558 547 469 q 524 619 547 592 q 447 647 500 647 q 285 567 342 647 q 213 369 228 486 z "},"é":{"ha":718,"x_min":72,"x_max":681,"o":"m 681 563 q 556 360 681 422 q 206 272 431 297 q 364 90 210 90 q 463 107 415 90 q 560 158 510 124 l 614 72 q 351 -17 490 -17 q 145 62 218 -17 q 72 281 72 140 q 110 498 72 390 q 233 677 149 606 q 449 749 318 749 q 620 694 560 749 q 681 563 681 640 m 213 369 q 466 429 385 389 q 547 558 547 469 q 524 619 547 592 q 447 647 500 647 q 285 567 342 647 q 213 369 228 486 m 600 1113 l 642 1006 l 336 886 l 307 954 l 600 1113 z "},"ĕ":{"ha":718,"x_min":72,"x_max":686,"o":"m 681 563 q 556 360 681 422 q 206 272 431 297 q 364 90 210 90 q 463 107 415 90 q 560 158 510 124 l 614 72 q 351 -17 490 -17 q 145 62 218 -17 q 72 281 72 140 q 110 498 72 390 q 233 677 149 606 q 449 749 318 749 q 620 694 560 749 q 681 563 681 640 m 213 369 q 466 429 385 389 q 547 558 547 469 q 524 619 547 592 q 447 647 500 647 q 285 567 342 647 q 213 369 228 486 m 454 893 q 317 944 368 893 q 269 1082 267 996 l 356 1093 q 387 1015 363 1040 q 457 990 411 990 q 544 1018 507 990 q 603 1099 582 1046 l 686 1074 q 601 941 665 989 q 454 893 538 893 z "},"ě":{"ha":718,"x_min":72,"x_max":699,"o":"m 681 563 q 556 360 681 422 q 206 272 431 297 q 364 90 210 90 q 463 107 415 90 q 560 158 510 124 l 614 72 q 351 -17 490 -17 q 145 62 218 -17 q 72 281 72 140 q 110 498 72 390 q 233 677 149 606 q 449 749 318 749 q 620 694 560 749 q 681 563 681 640 m 213 369 q 466 429 385 389 q 547 558 547 469 q 524 619 547 592 q 447 647 500 647 q 285 567 342 647 q 213 369 228 486 m 651 1090 l 699 1028 l 492 871 l 408 871 l 243 1028 l 300 1090 l 457 974 l 651 1090 z "},"ȩ":{"ha":718,"x_min":72,"x_max":681,"o":"m 681 563 q 556 360 681 422 q 206 272 431 297 q 364 90 210 90 q 463 107 415 90 q 560 158 510 124 l 614 72 q 382 -15 504 -7 l 372 -78 q 457 -114 428 -83 q 486 -190 486 -144 q 438 -293 486 -251 q 307 -335 390 -335 q 178 -297 228 -335 l 221 -229 q 259 -246 240 -240 q 307 -251 278 -251 q 361 -235 340 -251 q 382 -192 382 -219 q 358 -149 382 -161 q 268 -137 333 -137 l 299 -12 q 131 78 190 1 q 72 281 72 156 q 110 498 72 390 q 233 677 149 606 q 449 749 318 749 q 620 694 560 749 q 681 563 681 640 m 213 369 q 466 429 385 389 q 547 558 547 469 q 524 619 547 592 q 447 647 500 647 q 285 567 342 647 q 213 369 228 486 z "},"ê":{"ha":718,"x_min":72,"x_max":690,"o":"m 681 563 q 556 360 681 422 q 206 272 431 297 q 364 90 210 90 q 463 107 415 90 q 560 158 510 124 l 614 72 q 351 -17 490 -17 q 145 62 218 -17 q 72 281 72 140 q 110 498 72 390 q 233 677 149 606 q 449 749 318 749 q 620 694 560 749 q 681 563 681 640 m 213 369 q 466 429 385 389 q 547 558 547 469 q 524 619 547 592 q 447 647 500 647 q 285 567 342 647 q 213 369 228 486 m 286 881 l 235 943 l 442 1100 l 525 1100 l 690 943 l 629 881 l 472 997 l 286 881 z "},"ế":{"ha":718,"x_min":72,"x_max":850,"o":"m 850 1164 l 642 989 l 592 1038 l 779 1239 l 850 1164 m 461 931 l 274 818 l 222 881 l 429 1033 l 513 1033 l 678 881 l 621 818 l 461 931 m 449 749 q 620 694 560 749 q 681 563 681 640 q 556 360 681 422 q 206 272 431 297 q 364 90 210 90 q 463 107 415 90 q 560 158 510 124 l 614 72 q 351 -17 490 -17 q 145 62 218 -17 q 72 281 72 140 q 110 498 72 390 q 233 677 149 606 q 449 749 318 749 m 213 369 q 466 429 385 389 q 547 558 547 469 q 524 619 547 592 q 447 647 500 647 q 285 567 342 647 q 213 369 228 486 z "},"ệ":{"ha":718,"x_min":72,"x_max":690,"o":"m 681 563 q 556 360 681 422 q 206 272 431 297 q 364 90 210 90 q 463 107 415 90 q 560 158 510 124 l 614 72 q 351 -17 490 -17 q 145 62 218 -17 q 72 281 72 140 q 110 498 72 390 q 233 677 149 606 q 449 749 318 749 q 620 694 560 749 q 681 563 681 640 m 213 369 q 466 429 385 389 q 547 558 547 469 q 524 619 547 592 q 447 647 500 647 q 285 567 342 647 q 213 369 228 486 m 286 881 l 235 943 l 442 1100 l 525 1100 l 690 943 l 629 881 l 472 997 l 286 881 m 335 -103 q 394 -126 371 -103 q 417 -182 417 -149 q 389 -249 417 -222 q 321 -276 361 -276 q 261 -254 283 -276 q 239 -197 239 -232 q 267 -130 239 -157 q 335 -103 294 -103 z "},"ề":{"ha":718,"x_min":72,"x_max":681,"o":"m 342 1032 l 289 989 l 125 1165 l 207 1236 l 342 1032 m 275 818 l 224 881 l 431 1033 l 514 1033 l 679 881 l 622 818 l 463 931 l 275 818 m 681 563 q 556 360 681 422 q 206 272 431 297 q 364 90 210 90 q 463 107 415 90 q 560 158 510 124 l 614 72 q 351 -17 490 -17 q 145 62 218 -17 q 72 281 72 140 q 110 498 72 390 q 233 677 149 606 q 449 749 318 749 q 620 694 560 749 q 681 563 681 640 m 213 369 q 466 429 385 389 q 547 558 547 469 q 524 619 547 592 q 447 647 500 647 q 285 567 342 647 q 213 369 228 486 z "},"ể":{"ha":718,"x_min":72,"x_max":838,"o":"m 681 563 q 556 360 681 422 q 206 272 431 297 q 364 90 210 90 q 463 107 415 90 q 560 158 510 124 l 614 72 q 351 -17 490 -17 q 145 62 218 -17 q 72 281 72 140 q 110 498 72 390 q 233 677 149 606 q 449 749 318 749 q 620 694 560 749 q 681 563 681 640 m 213 369 q 466 429 385 389 q 547 558 547 469 q 524 619 547 592 q 447 647 500 647 q 285 567 342 647 q 213 369 228 486 m 267 818 l 215 881 l 422 1033 l 506 1033 l 671 881 l 614 818 l 454 931 l 267 818 m 618 1125 q 701 1147 672 1132 q 729 1196 729 1161 q 679 1235 729 1235 q 596 1213 636 1235 l 571 1289 q 701 1321 631 1321 q 801 1288 765 1321 q 838 1200 838 1254 q 804 1115 838 1144 q 710 1075 771 1085 l 699 994 l 604 994 l 618 1125 z "},"ễ":{"ha":718,"x_min":72,"x_max":731,"o":"m 419 1126 q 374 1110 394 1126 q 332 1060 354 1093 l 260 1104 q 422 1224 333 1224 q 472 1213 453 1224 q 518 1183 492 1203 q 547 1163 536 1169 q 571 1157 558 1157 q 613 1172 593 1157 q 656 1221 633 1188 l 731 1176 q 656 1089 696 1118 q 574 1060 615 1060 q 519 1071 542 1060 q 471 1101 496 1082 q 443 1120 454 1114 q 419 1126 432 1126 m 461 917 l 274 804 l 222 867 l 429 1019 l 513 1019 l 678 867 l 621 804 l 461 917 m 449 749 q 620 694 560 749 q 681 563 681 640 q 556 360 681 422 q 206 272 431 297 q 364 90 210 90 q 463 107 415 90 q 560 158 510 124 l 614 72 q 351 -17 490 -17 q 145 62 218 -17 q 72 281 72 140 q 110 498 72 390 q 233 677 149 606 q 449 749 318 749 m 213 369 q 466 429 385 389 q 547 558 547 469 q 524 619 547 592 q 447 647 500 647 q 285 567 342 647 q 213 369 228 486 z "},"ȅ":{"ha":718,"x_min":72,"x_max":681,"o":"m 681 563 q 556 360 681 422 q 206 272 431 297 q 364 90 210 90 q 463 107 415 90 q 560 158 510 124 l 614 72 q 351 -17 490 -17 q 145 62 218 -17 q 72 281 72 140 q 110 498 72 390 q 233 677 149 606 q 449 749 318 749 q 620 694 560 749 q 681 563 681 640 m 213 369 q 466 429 385 389 q 547 558 547 469 q 524 619 547 592 q 447 647 500 647 q 285 567 342 647 q 213 369 228 486 m 331 1156 l 415 915 l 333 881 l 217 1099 l 331 1156 m 539 1156 l 611 922 l 529 888 l 425 1099 l 539 1156 z "},"ë":{"ha":718,"x_min":72,"x_max":696,"o":"m 681 563 q 556 360 681 422 q 206 272 431 297 q 364 90 210 90 q 463 107 415 90 q 560 158 510 124 l 614 72 q 351 -17 490 -17 q 145 62 218 -17 q 72 281 72 140 q 110 498 72 390 q 233 677 149 606 q 449 749 318 749 q 620 694 560 749 q 681 563 681 640 m 213 369 q 466 429 385 389 q 547 558 547 469 q 524 619 547 592 q 447 647 500 647 q 285 567 342 647 q 213 369 228 486 m 319 908 q 267 928 288 908 q 246 979 246 949 q 271 1041 246 1017 q 333 1065 296 1065 q 386 1045 365 1065 q 407 994 407 1025 q 382 933 407 957 q 319 908 357 908 m 608 908 q 556 928 576 908 q 535 979 535 949 q 560 1041 535 1017 q 622 1065 585 1065 q 675 1045 654 1065 q 696 994 696 1025 q 671 933 696 957 q 608 908 646 908 z "},"ė":{"ha":718,"x_min":72,"x_max":681,"o":"m 681 563 q 556 360 681 422 q 206 272 431 297 q 364 90 210 90 q 463 107 415 90 q 560 158 510 124 l 614 72 q 351 -17 490 -17 q 145 62 218 -17 q 72 281 72 140 q 110 498 72 390 q 233 677 149 606 q 449 749 318 749 q 620 694 560 749 q 681 563 681 640 m 213 369 q 466 429 385 389 q 547 558 547 469 q 524 619 547 592 q 447 647 500 647 q 285 567 342 647 q 213 369 228 486 m 467 910 q 407 933 429 910 q 385 989 385 956 q 413 1056 385 1029 q 481 1083 440 1083 q 540 1061 518 1083 q 563 1004 563 1039 q 535 937 563 964 q 467 910 507 910 z "},"ẹ":{"ha":718,"x_min":72,"x_max":681,"o":"m 681 563 q 556 360 681 422 q 206 272 431 297 q 364 90 210 90 q 463 107 415 90 q 560 158 510 124 l 614 72 q 351 -17 490 -17 q 145 62 218 -17 q 72 281 72 140 q 110 498 72 390 q 233 677 149 606 q 449 749 318 749 q 620 694 560 749 q 681 563 681 640 m 213 369 q 466 429 385 389 q 547 558 547 469 q 524 619 547 592 q 447 647 500 647 q 285 567 342 647 q 213 369 228 486 m 335 -103 q 394 -126 371 -103 q 417 -182 417 -149 q 389 -249 417 -222 q 321 -276 361 -276 q 261 -254 283 -276 q 239 -197 239 -232 q 267 -130 239 -157 q 335 -103 294 -103 z "},"è":{"ha":718,"x_min":72,"x_max":681,"o":"m 681 563 q 556 360 681 422 q 206 272 431 297 q 364 90 210 90 q 463 107 415 90 q 560 158 510 124 l 614 72 q 351 -17 490 -17 q 145 62 218 -17 q 72 281 72 140 q 110 498 72 390 q 233 677 149 606 q 449 749 318 749 q 620 694 560 749 q 681 563 681 640 m 213 369 q 466 429 385 389 q 547 558 547 469 q 524 619 547 592 q 447 647 500 647 q 285 567 342 647 q 213 369 228 486 m 389 1113 l 643 954 l 603 886 l 326 1006 l 389 1113 z "},"ẻ":{"ha":718,"x_min":72,"x_max":681,"o":"m 681 563 q 556 360 681 422 q 206 272 431 297 q 364 90 210 90 q 463 107 415 90 q 560 158 510 124 l 614 72 q 351 -17 490 -17 q 145 62 218 -17 q 72 281 72 140 q 110 498 72 390 q 233 677 149 606 q 449 749 318 749 q 620 694 560 749 q 681 563 681 640 m 213 369 q 466 429 385 389 q 547 558 547 469 q 524 619 547 592 q 447 647 500 647 q 285 567 342 647 q 213 369 228 486 m 419 979 q 502 1001 474 986 q 531 1050 531 1015 q 481 1089 531 1089 q 397 1067 438 1089 l 372 1143 q 503 1175 432 1175 q 603 1142 567 1175 q 639 1054 639 1108 q 606 969 639 999 q 511 929 572 939 l 500 849 l 406 849 l 419 979 z "},"ȇ":{"ha":718,"x_min":72,"x_max":681,"o":"m 681 563 q 556 360 681 422 q 206 272 431 297 q 364 90 210 90 q 463 107 415 90 q 560 158 510 124 l 614 72 q 351 -17 490 -17 q 145 62 218 -17 q 72 281 72 140 q 110 498 72 390 q 233 677 149 606 q 449 749 318 749 q 620 694 560 749 q 681 563 681 640 m 213 369 q 466 429 385 389 q 547 558 547 469 q 524 619 547 592 q 447 647 500 647 q 285 567 342 647 q 213 369 228 486 m 244 875 q 328 1008 265 961 q 476 1056 392 1056 q 615 1004 563 1056 q 664 867 667 953 l 579 856 q 471 958 565 958 q 328 850 374 958 l 244 875 z "},"ē":{"ha":718,"x_min":72,"x_max":681,"o":"m 681 563 q 556 360 681 422 q 206 272 431 297 q 364 90 210 90 q 463 107 415 90 q 560 158 510 124 l 614 72 q 351 -17 490 -17 q 145 62 218 -17 q 72 281 72 140 q 110 498 72 390 q 233 677 149 606 q 449 749 318 749 q 620 694 560 749 q 681 563 681 640 m 213 369 q 466 429 385 389 q 547 558 547 469 q 524 619 547 592 q 447 647 500 647 q 285 567 342 647 q 213 369 228 486 m 653 926 l 276 926 l 289 1022 l 665 1022 l 653 926 z "},"ę":{"ha":718,"x_min":72,"x_max":681,"o":"m 681 563 q 556 360 681 422 q 206 272 431 297 q 364 90 210 90 q 463 107 415 90 q 560 158 510 124 l 614 72 q 464 -1 542 21 q 347 -76 378 -42 q 315 -150 315 -111 q 393 -217 315 -217 q 478 -207 431 -217 l 465 -304 q 378 -314 417 -314 q 251 -274 299 -314 q 204 -174 204 -235 q 319 -15 204 -75 q 137 72 201 -6 q 72 281 72 150 q 110 498 72 390 q 233 677 149 606 q 449 749 318 749 q 620 694 560 749 q 681 563 681 640 m 213 369 q 466 429 385 389 q 547 558 547 469 q 524 619 547 592 q 447 647 500 647 q 285 567 342 647 q 213 369 228 486 z "},"ɛ":{"ha":671,"x_min":56,"x_max":640,"o":"m 322 -17 q 128 41 201 -17 q 56 190 56 99 q 106 322 56 267 q 267 392 156 378 q 136 538 136 428 q 165 639 136 590 q 257 718 194 688 q 413 749 319 749 q 640 672 547 749 l 574 599 q 501 636 538 624 q 413 649 464 649 q 301 617 339 649 q 263 535 263 585 q 296 458 263 485 q 390 432 329 432 l 476 432 l 447 332 l 374 332 q 232 293 274 332 q 190 192 190 254 q 226 114 190 142 q 333 86 263 86 q 433 102 386 86 q 538 154 479 118 l 593 71 q 322 -17 469 -17 z "},"ʚ":{"ha":783,"x_min":56,"x_max":708,"o":"m 324 -17 q 128 41 201 -17 q 56 190 56 99 q 107 322 56 267 q 272 392 158 378 q 147 538 147 429 q 178 638 147 590 q 270 717 208 686 q 421 749 332 749 q 633 665 558 749 q 708 440 708 582 q 664 205 708 308 q 533 42 619 101 q 324 -17 446 -17 m 332 86 q 517 185 457 86 q 578 439 578 283 q 536 598 578 547 q 414 649 494 649 q 306 617 343 649 q 268 535 268 585 q 390 432 268 432 l 457 432 l 428 332 l 375 332 q 233 293 275 332 q 190 192 190 254 q 226 114 190 142 q 332 86 261 86 z "},"ɜ":{"ha":681,"x_min":-6,"x_max":596,"o":"m 357 749 q 526 699 457 749 q 596 564 596 649 q 553 454 596 500 q 426 390 510 408 q 547 337 504 378 q 589 226 589 296 q 553 108 589 164 q 445 18 518 53 q 265 -17 372 -17 q -6 74 103 -17 l 63 151 q 265 86 153 86 q 408 127 361 86 q 454 228 454 168 q 408 308 454 285 q 281 332 363 332 l 182 332 l 204 432 l 275 432 q 418 467 371 432 q 465 557 465 503 q 433 626 465 604 q 344 649 400 649 q 240 633 285 649 q 140 589 196 618 l 86 667 q 213 728 147 708 q 357 749 278 749 z "},"ɞ":{"ha":772,"x_min":72,"x_max":688,"o":"m 360 -17 q 144 62 217 -17 q 72 281 72 140 q 118 517 72 411 q 250 686 164 624 q 453 749 336 749 q 619 697 551 749 q 688 561 688 646 q 644 453 688 497 q 518 390 601 408 q 638 337 596 378 q 681 226 681 296 q 645 108 681 164 q 538 18 610 53 q 360 -17 465 -17 m 365 86 q 503 127 458 86 q 549 228 549 168 q 502 308 549 285 q 372 332 456 332 l 333 332 l 356 432 l 367 432 q 512 467 464 432 q 560 557 560 503 q 531 625 560 601 q 446 649 501 649 q 310 594 364 649 q 229 453 256 539 q 203 275 203 368 q 241 131 203 175 q 365 86 279 86 z "},"ɝ":{"ha":1017,"x_min":-6,"x_max":1061,"o":"m 1061 485 q 894 435 988 435 q 763 477 810 435 q 717 590 717 519 q 718 617 717 608 l 721 629 l 596 565 l 596 564 q 553 454 596 500 q 426 390 510 408 q 547 337 504 378 q 589 226 589 296 q 553 108 589 164 q 445 18 518 53 q 265 -17 372 -17 q -6 74 103 -17 l 63 151 q 265 86 153 86 q 408 127 361 86 q 454 228 454 168 q 408 308 454 285 q 281 332 363 332 l 182 332 l 204 432 l 275 432 q 418 467 371 432 q 465 557 465 503 q 433 626 465 604 q 344 649 400 649 q 240 633 285 649 q 140 589 196 618 l 86 667 q 213 728 147 708 q 357 749 278 749 q 484 723 426 749 q 571 651 542 697 l 733 732 l 854 732 l 840 631 q 839 604 839 621 q 856 553 839 568 q 908 538 874 538 q 965 546 942 538 q 1018 571 989 554 l 1061 485 z "},"ɘ":{"ha":719,"x_min":24,"x_max":644,"o":"m 354 749 q 574 661 503 749 q 643 428 644 574 q 600 202 644 303 q 472 42 556 101 q 275 -17 388 -17 q 133 7 193 -17 q 24 75 72 31 l 94 151 q 178 105 136 119 q 278 90 219 90 q 410 140 357 90 q 489 272 464 189 q 86 513 86 293 q 122 636 86 582 q 220 719 158 690 q 354 749 282 749 m 218 517 q 290 410 218 443 q 508 368 363 376 q 513 440 513 404 q 474 592 513 536 q 354 647 436 647 q 255 612 292 647 q 218 517 218 576 z "},"ʃ":{"ha":388,"x_min":-193,"x_max":583,"o":"m 428 1042 q 515 1026 478 1042 q 583 986 551 1011 l 526 908 q 482 932 501 925 q 432 939 463 939 q 358 912 388 939 q 322 832 329 885 l 308 732 l 206 0 l 194 -83 q 117 -242 179 -189 q -39 -296 56 -296 q -193 -240 -126 -296 l -136 -162 q -92 -186 -111 -179 q -44 -193 -72 -193 q 31 -167 1 -193 q 67 -86 60 -140 l 79 0 l 182 732 l 196 829 q 272 988 211 935 q 428 1042 332 1042 z "},"ʆ":{"ha":421,"x_min":-196,"x_max":617,"o":"m 461 1042 q 548 1026 511 1042 q 617 986 585 1011 l 560 908 q 515 932 535 925 q 465 939 496 939 q 392 912 421 939 q 356 832 363 885 l 342 732 l 236 -14 q 382 -68 307 -31 l 346 -136 q 221 -93 279 -108 q 128 -243 193 -192 q -33 -294 64 -294 q -152 -257 -108 -294 q -196 -154 -196 -219 q -134 -28 -196 -75 q 19 18 -72 18 q 115 11 76 18 l 215 732 l 229 829 q 305 988 244 935 q 461 1042 365 1042 m -28 -207 q 56 -173 25 -207 q 103 -68 88 -139 q 19 -62 74 -62 q -65 -86 -35 -62 q -94 -149 -94 -110 q -78 -192 -94 -176 q -28 -207 -61 -207 z "},"ƪ":{"ha":429,"x_min":-24,"x_max":451,"o":"m 451 -246 q 288 -296 378 -296 q 150 -250 200 -296 q 100 -119 100 -204 q 103 -75 100 -90 l 114 0 l 208 678 q 132 661 172 661 q 22 706 68 661 q -24 821 -24 750 q 6 938 -24 888 q 83 1015 35 988 q 188 1042 132 1042 q 315 999 269 1042 q 360 872 360 956 q 356 822 360 850 l 240 0 l 228 -94 q 226 -121 226 -104 q 297 -193 226 -193 q 353 -185 329 -193 q 407 -162 376 -178 l 451 -246 m 160 761 q 222 772 186 761 l 233 853 q 236 883 236 875 q 188 942 236 942 q 124 908 147 942 q 103 822 101 875 q 160 761 101 761 z "},"ʅ":{"ha":618,"x_min":47,"x_max":571,"o":"m 571 33 q 407 -17 497 -17 q 269 29 319 -17 q 219 160 219 75 q 222 204 219 189 l 233 279 l 258 453 l 271 547 q 272 574 272 557 q 201 646 272 646 q 146 638 169 646 q 92 615 122 631 l 47 699 q 211 749 121 749 q 349 703 299 749 q 399 572 399 657 q 396 528 399 543 l 385 453 l 360 279 l 347 185 q 346 158 346 175 q 417 86 346 86 q 472 94 449 86 q 526 117 496 101 l 571 33 z "},"ɇ":{"ha":718,"x_min":72,"x_max":681,"o":"m 681 563 q 600 388 681 450 q 372 297 519 326 l 292 103 q 364 90 324 90 q 463 107 415 90 q 560 158 510 124 l 614 72 q 351 -17 490 -17 q 247 -1 297 -17 l 208 -97 l 151 -82 l 194 22 q 103 124 135 58 q 72 281 72 190 q 110 498 72 390 q 233 677 149 606 q 449 749 318 749 q 494 746 467 749 l 528 826 l 585 811 l 553 732 q 647 665 614 711 q 681 563 681 618 m 447 647 q 285 567 342 647 q 213 369 228 486 q 347 390 286 378 l 454 647 l 447 647 m 547 558 q 538 598 547 578 q 510 631 529 618 l 418 410 q 515 467 482 431 q 547 558 547 503 m 304 285 l 206 272 q 243 140 207 188 l 304 285 z "},"ẽ":{"ha":718,"x_min":72,"x_max":708,"o":"m 681 563 q 556 360 681 422 q 206 272 431 297 q 364 90 210 90 q 463 107 415 90 q 560 158 510 124 l 614 72 q 351 -17 490 -17 q 145 62 218 -17 q 72 281 72 140 q 110 498 72 390 q 233 677 149 606 q 449 749 318 749 q 620 694 560 749 q 681 563 681 640 m 213 369 q 466 429 385 389 q 547 558 547 469 q 524 619 547 592 q 447 647 500 647 q 285 567 342 647 q 213 369 228 486 m 551 911 q 497 922 519 911 q 449 953 474 933 q 421 972 432 965 q 397 978 410 978 q 352 961 372 978 q 310 911 332 944 l 238 956 q 400 1075 311 1075 q 450 1065 431 1075 q 496 1035 469 1054 q 525 1015 514 1021 q 549 1008 536 1008 q 591 1024 571 1008 q 633 1072 611 1039 l 708 1028 q 633 940 674 969 q 551 911 593 911 z "},"ǝ":{"ha":718,"x_min":38,"x_max":646,"o":"m 367 749 q 573 670 500 749 q 646 451 646 592 q 608 234 646 342 q 485 55 569 126 q 269 -17 400 -17 q 98 38 158 -17 q 38 169 38 92 q 163 373 38 311 q 513 460 288 435 q 354 642 508 642 q 256 625 303 642 q 158 574 208 608 l 104 660 q 367 749 228 749 m 271 85 q 433 165 376 85 q 506 363 490 246 q 252 303 333 343 q 171 174 171 263 q 194 113 171 140 q 271 85 218 85 z "},"ə":{"ha":718,"x_min":38,"x_max":646,"o":"m 367 749 q 573 670 500 749 q 646 451 646 592 q 608 234 646 342 q 485 55 569 126 q 269 -17 400 -17 q 98 38 158 -17 q 38 169 38 92 q 163 373 38 311 q 513 460 288 435 q 354 642 508 642 q 256 625 303 642 q 158 574 208 608 l 104 660 q 367 749 228 749 m 271 85 q 433 165 376 85 q 506 363 490 246 q 252 303 333 343 q 171 174 171 263 q 194 113 171 140 q 271 85 218 85 z "},"ɚ":{"ha":1047,"x_min":38,"x_max":1092,"o":"m 1092 485 q 925 435 1018 435 q 794 477 840 435 q 747 590 747 519 q 749 617 747 608 l 751 629 l 631 568 q 646 451 646 514 q 608 234 646 342 q 485 55 569 126 q 269 -17 400 -17 q 98 38 158 -17 q 38 169 38 92 q 163 373 38 311 q 513 460 288 435 q 354 642 508 642 q 256 625 303 642 q 158 574 208 608 l 104 660 q 367 749 228 749 q 592 647 518 749 l 764 732 l 885 732 l 871 631 q 869 604 869 621 q 887 553 869 568 q 939 538 904 538 q 996 546 972 538 q 1049 571 1019 554 l 1092 485 m 271 85 q 433 165 376 85 q 506 363 490 246 q 252 303 333 343 q 171 174 171 263 q 194 113 171 140 q 271 85 218 85 z "},"ʒ":{"ha":660,"x_min":-75,"x_max":638,"o":"m 625 635 l 283 286 q 499 222 426 285 q 571 49 571 160 q 524 -131 571 -53 q 392 -253 476 -210 q 201 -296 308 -296 q 40 -264 107 -296 q -75 -168 -26 -232 l 4 -101 q 94 -172 50 -151 q 201 -192 139 -192 q 374 -124 311 -192 q 438 49 438 -56 q 393 160 438 128 q 246 192 349 192 l 133 192 l 135 193 l 147 285 l 476 626 l 78 626 l 93 732 l 638 732 l 625 635 z "},"ǯ":{"ha":660,"x_min":-75,"x_max":638,"o":"m 625 635 l 283 286 q 499 222 426 285 q 571 49 571 160 q 524 -131 571 -53 q 392 -253 476 -210 q 201 -296 308 -296 q 40 -264 107 -296 q -75 -168 -26 -232 l 4 -101 q 94 -172 50 -151 q 201 -192 139 -192 q 374 -124 311 -192 q 438 49 438 -56 q 393 160 438 128 q 246 192 349 192 l 133 192 l 135 193 l 147 285 l 476 626 l 78 626 l 93 732 l 638 732 l 625 635 m 581 1090 l 628 1028 l 421 871 l 338 871 l 172 1028 l 229 1090 l 386 974 l 581 1090 z "},"ʓ":{"ha":664,"x_min":-112,"x_max":642,"o":"m 629 635 l 288 286 q 503 222 431 285 q 575 49 575 160 q 502 -158 575 -72 q 300 -278 429 -244 l 324 -353 l 233 -387 l 204 -293 q 146 -296 168 -296 q -47 -251 18 -296 q -112 -125 -112 -206 q -62 -6 -112 -54 q 61 42 -12 42 q 190 -8 144 42 q 268 -178 236 -57 q 399 -94 356 -154 q 442 49 442 -35 q 397 160 442 128 q 250 192 353 192 l 138 192 l 139 193 l 151 285 l 481 626 l 82 626 l 97 732 l 642 732 l 629 635 m -4 -115 q 33 -173 -4 -154 q 151 -192 71 -192 l 175 -192 q 126 -80 150 -108 q 63 -51 103 -51 q 15 -69 33 -51 q -4 -115 -4 -87 z "},"ƹ":{"ha":665,"x_min":-12,"x_max":671,"o":"m 657 626 l 250 626 l 489 285 l 478 192 l 475 193 l 476 192 l 372 192 q 186 132 250 192 q 122 -33 122 72 q 165 -152 122 -112 q 288 -192 207 -192 q 410 -169 356 -192 q 522 -100 465 -147 l 589 -174 q 450 -266 525 -236 q 281 -296 375 -296 q 67 -224 146 -296 q -12 -31 -12 -151 q 33 135 -12 64 q 162 247 79 207 q 351 286 244 286 l 365 286 l 115 635 l 126 732 l 671 732 l 657 626 z "}}}
